STARTFONT 2.1
FONT -FreeType-Kochismall-Medium-R-Normal--9-90-75-75-P-77-ISO10646-1
SIZE 9 75 75
FONTBOUNDINGBOX 10 10 0 -2

STARTPROPERTIES 24
FOUNDRY "FreeType"
FAMILY_NAME "Kochismall"
WEIGHT_NAME "Medium"
SLANT "R"
SETWIDTH_NAME "Normal"
ADD_STYLE_NAME ""
PIXEL_SIZE 9
POINT_SIZE 90
RESOLUTION_X 75
RESOLUTION_Y 75
SPACING "P"
AVERAGE_WIDTH 77
CHARSET_REGISTRY "ISO10646"
CHARSET_ENCODING "1"
COPYRIGHT "Public Domain(except NAGA10)"
_OTF_FONTFILE "Mincho.ttf"
_OTF_PSNAME "Kochi-Mincho"
_GBDFED_INFO "Edited with gbdfed 1.6."
WEIGHT 10
X_HEIGHT 0
QUAD_WIDTH 6
DEFAULT_CHAR 0
FONT_DESCENT 1
FONT_ASCENT 7
ENDPROPERTIES

CHARS 14755

STARTCHAR 0020
ENCODING 32
SWIDTH 426 0
DWIDTH 4 0
BBX 0 0 0 0
BITMAP
ENDCHAR

STARTCHAR 0021
ENCODING 33
SWIDTH 426 0
DWIDTH 4 0
BBX 1 7 2 0
BITMAP
80
80
80
80
00
00
80
ENDCHAR

STARTCHAR 0022
ENCODING 34
SWIDTH 426 0
DWIDTH 4 0
BBX 3 2 1 6
BITMAP
A0
A0
ENDCHAR

STARTCHAR 0023
ENCODING 35
SWIDTH 426 0
DWIDTH 4 0
BBX 5 6 0 0
BITMAP
10
F8
60
60
A0
F0
ENDCHAR

STARTCHAR 0024
ENCODING 36
SWIDTH 426 0
DWIDTH 4 0
BBX 4 9 0 -1
BITMAP
20
70
A0
60
30
30
B0
60
20
ENDCHAR

STARTCHAR 0025
ENCODING 37
SWIDTH 426 0
DWIDTH 4 0
BBX 5 7 0 0
BITMAP
D0
D0
E0
60
70
68
B0
ENDCHAR

STARTCHAR 0026
ENCODING 38
SWIDTH 426 0
DWIDTH 4 0
BBX 4 7 0 0
BITMAP
60
A0
A0
40
D0
A0
F0
ENDCHAR

STARTCHAR 0027
ENCODING 39
SWIDTH 426 0
DWIDTH 4 0
BBX 1 2 2 6
BITMAP
80
80
ENDCHAR

STARTCHAR 0028
ENCODING 40
SWIDTH 426 0
DWIDTH 4 0
BBX 2 8 1 0
BITMAP
40
80
80
80
80
80
80
40
ENDCHAR

STARTCHAR 0029
ENCODING 41
SWIDTH 426 0
DWIDTH 4 0
BBX 3 9 1 -1
BITMAP
80
40
40
20
20
20
40
40
80
ENDCHAR

STARTCHAR 002A
ENCODING 42
SWIDTH 426 0
DWIDTH 4 0
BBX 4 5 0 1
BITMAP
20
D0
20
D0
20
ENDCHAR

STARTCHAR 002B
ENCODING 43
SWIDTH 426 0
DWIDTH 4 0
BBX 4 7 0 0
BITMAP
20
20
20
F0
20
20
20
ENDCHAR

STARTCHAR 002C
ENCODING 44
SWIDTH 426 0
DWIDTH 4 0
BBX 2 1 1 -1
BITMAP
C0
ENDCHAR

STARTCHAR 002D
ENCODING 45
SWIDTH 426 0
DWIDTH 4 0
BBX 4 1 0 3
BITMAP
F0
ENDCHAR

STARTCHAR 002E
ENCODING 46
SWIDTH 426 0
DWIDTH 4 0
BBX 2 1 1 0
BITMAP
C0
ENDCHAR

STARTCHAR 002F
ENCODING 47
SWIDTH 426 0
DWIDTH 4 0
BBX 4 6 0 1
BITMAP
10
20
20
40
40
80
ENDCHAR

STARTCHAR 0030
ENCODING 48
SWIDTH 426 0
DWIDTH 4 0
BBX 4 7 0 0
BITMAP
20
D0
90
90
90
90
60
ENDCHAR

STARTCHAR 0031
ENCODING 49
SWIDTH 426 0
DWIDTH 4 0
BBX 1 7 2 0
BITMAP
80
80
80
80
80
80
80
ENDCHAR

STARTCHAR 0032
ENCODING 50
SWIDTH 426 0
DWIDTH 4 0
BBX 4 7 0 0
BITMAP
60
90
10
20
40
80
F0
ENDCHAR

STARTCHAR 0033
ENCODING 51
SWIDTH 426 0
DWIDTH 4 0
BBX 4 7 0 0
BITMAP
60
10
10
20
10
90
70
ENDCHAR

STARTCHAR 0034
ENCODING 52
SWIDTH 426 0
DWIDTH 4 0
BBX 4 7 0 0
BITMAP
10
30
50
50
90
70
10
ENDCHAR

STARTCHAR 0035
ENCODING 53
SWIDTH 426 0
DWIDTH 4 0
BBX 4 7 0 0
BITMAP
70
80
80
70
10
90
70
ENDCHAR

STARTCHAR 0036
ENCODING 54
SWIDTH 426 0
DWIDTH 4 0
BBX 4 7 0 0
BITMAP
30
D0
80
F0
90
90
70
ENDCHAR

STARTCHAR 0037
ENCODING 55
SWIDTH 426 0
DWIDTH 4 0
BBX 4 7 0 0
BITMAP
70
90
10
20
20
20
20
ENDCHAR

STARTCHAR 0038
ENCODING 56
SWIDTH 426 0
DWIDTH 4 0
BBX 5 7 0 0
BITMAP
70
90
50
70
88
88
70
ENDCHAR

STARTCHAR 0039
ENCODING 57
SWIDTH 426 0
DWIDTH 4 0
BBX 4 7 0 0
BITMAP
60
90
90
90
70
10
60
ENDCHAR

STARTCHAR 003A
ENCODING 58
SWIDTH 426 0
DWIDTH 4 0
BBX 1 4 2 1
BITMAP
80
00
00
80
ENDCHAR

STARTCHAR 003B
ENCODING 59
SWIDTH 426 0
DWIDTH 4 0
BBX 1 5 2 0
BITMAP
80
00
00
80
80
ENDCHAR

STARTCHAR 003C
ENCODING 60
SWIDTH 426 0
DWIDTH 4 0
BBX 5 9 0 -1
BITMAP
08
10
20
40
80
80
40
20
10
ENDCHAR

STARTCHAR 003D
ENCODING 61
SWIDTH 426 0
DWIDTH 4 0
BBX 4 2 0 2
BITMAP
60
F0
ENDCHAR

STARTCHAR 003E
ENCODING 62
SWIDTH 426 0
DWIDTH 4 0
BBX 4 8 0 0
BITMAP
80
40
20
10
10
20
40
80
ENDCHAR

STARTCHAR 003F
ENCODING 63
SWIDTH 426 0
DWIDTH 4 0
BBX 4 7 0 0
BITMAP
F0
90
10
20
20
00
20
ENDCHAR

STARTCHAR 0040
ENCODING 64
SWIDTH 426 0
DWIDTH 4 0
BBX 5 8 0 -1
BITMAP
70
B0
E8
E8
B0
D0
80
70
ENDCHAR

STARTCHAR 0041
ENCODING 65
SWIDTH 426 0
DWIDTH 4 0
BBX 4 7 0 0
BITMAP
20
20
20
60
90
90
90
ENDCHAR

STARTCHAR 0042
ENCODING 66
SWIDTH 426 0
DWIDTH 4 0
BBX 4 7 0 0
BITMAP
F0
90
90
60
90
90
F0
ENDCHAR

STARTCHAR 0043
ENCODING 67
SWIDTH 426 0
DWIDTH 4 0
BBX 4 7 0 0
BITMAP
70
80
80
80
80
80
70
ENDCHAR

STARTCHAR 0044
ENCODING 68
SWIDTH 426 0
DWIDTH 4 0
BBX 5 7 0 0
BITMAP
E0
90
90
88
88
90
E0
ENDCHAR

STARTCHAR 0045
ENCODING 69
SWIDTH 426 0
DWIDTH 4 0
BBX 5 7 0 0
BITMAP
F0
80
80
70
80
88
F0
ENDCHAR

STARTCHAR 0046
ENCODING 70
SWIDTH 426 0
DWIDTH 4 0
BBX 5 7 0 0
BITMAP
F0
88
80
70
80
80
C0
ENDCHAR

STARTCHAR 0047
ENCODING 71
SWIDTH 426 0
DWIDTH 4 0
BBX 4 7 0 0
BITMAP
70
80
80
80
90
90
60
ENDCHAR

STARTCHAR 0048
ENCODING 72
SWIDTH 426 0
DWIDTH 4 0
BBX 5 7 0 0
BITMAP
D8
90
90
70
90
90
D0
ENDCHAR

STARTCHAR 0049
ENCODING 73
SWIDTH 426 0
DWIDTH 4 0
BBX 2 7 1 0
BITMAP
C0
40
40
40
40
40
40
ENDCHAR

STARTCHAR 004A
ENCODING 74
SWIDTH 426 0
DWIDTH 4 0
BBX 3 7 1 0
BITMAP
60
20
20
20
20
20
C0
ENDCHAR

STARTCHAR 004B
ENCODING 75
SWIDTH 426 0
DWIDTH 4 0
BBX 4 7 0 0
BITMAP
D0
A0
C0
60
A0
90
D0
ENDCHAR

STARTCHAR 004C
ENCODING 76
SWIDTH 426 0
DWIDTH 4 0
BBX 5 7 0 0
BITMAP
C0
80
80
80
80
88
F0
ENDCHAR

STARTCHAR 004D
ENCODING 77
SWIDTH 426 0
DWIDTH 4 0
BBX 5 7 0 0
BITMAP
88
90
D0
F0
F0
B0
B8
ENDCHAR

STARTCHAR 004E
ENCODING 78
SWIDTH 426 0
DWIDTH 4 0
BBX 4 7 0 0
BITMAP
90
50
D0
B0
B0
90
80
ENDCHAR

STARTCHAR 004F
ENCODING 79
SWIDTH 426 0
DWIDTH 4 0
BBX 5 7 0 0
BITMAP
60
90
90
88
88
90
60
ENDCHAR

STARTCHAR 0050
ENCODING 80
SWIDTH 426 0
DWIDTH 4 0
BBX 4 7 0 0
BITMAP
F0
90
90
60
80
80
C0
ENDCHAR

STARTCHAR 0051
ENCODING 81
SWIDTH 426 0
DWIDTH 4 0
BBX 5 8 0 -1
BITMAP
60
90
90
88
88
F0
60
10
ENDCHAR

STARTCHAR 0052
ENCODING 82
SWIDTH 426 0
DWIDTH 4 0
BBX 4 7 0 0
BITMAP
E0
90
90
60
A0
90
D0
ENDCHAR

STARTCHAR 0053
ENCODING 83
SWIDTH 426 0
DWIDTH 4 0
BBX 5 7 0 0
BITMAP
70
80
80
60
10
88
F0
ENDCHAR

STARTCHAR 0054
ENCODING 84
SWIDTH 426 0
DWIDTH 4 0
BBX 5 7 0 0
BITMAP
F0
28
20
20
20
20
20
ENDCHAR

STARTCHAR 0055
ENCODING 85
SWIDTH 426 0
DWIDTH 4 0
BBX 5 7 0 0
BITMAP
D8
90
90
90
90
90
60
ENDCHAR

STARTCHAR 0056
ENCODING 86
SWIDTH 426 0
DWIDTH 4 0
BBX 5 7 0 0
BITMAP
D8
90
50
60
60
20
20
ENDCHAR

STARTCHAR 0057
ENCODING 87
SWIDTH 426 0
DWIDTH 4 0
BBX 5 7 0 0
BITMAP
A8
B0
F0
70
50
50
50
ENDCHAR

STARTCHAR 0058
ENCODING 88
SWIDTH 426 0
DWIDTH 4 0
BBX 4 7 0 0
BITMAP
D0
60
60
20
60
90
90
ENDCHAR

STARTCHAR 0059
ENCODING 89
SWIDTH 426 0
DWIDTH 4 0
BBX 5 7 0 0
BITMAP
D8
50
60
20
20
20
20
ENDCHAR

STARTCHAR 005A
ENCODING 90
SWIDTH 426 0
DWIDTH 4 0
BBX 4 7 0 0
BITMAP
70
90
20
20
40
40
F0
ENDCHAR

STARTCHAR 005B
ENCODING 91
SWIDTH 426 0
DWIDTH 4 0
BBX 2 9 2 -1
BITMAP
C0
80
80
80
80
80
80
80
C0
ENDCHAR

STARTCHAR 005C
ENCODING 92
SWIDTH 426 0
DWIDTH 4 0
BBX 5 8 0 0
BITMAP
80
80
40
20
20
10
10
08
ENDCHAR

STARTCHAR 005D
ENCODING 93
SWIDTH 426 0
DWIDTH 4 0
BBX 2 9 1 -1
BITMAP
C0
40
40
40
40
40
40
40
C0
ENDCHAR

STARTCHAR 005E
ENCODING 94
SWIDTH 426 0
DWIDTH 4 0
BBX 2 2 1 6
BITMAP
40
80
ENDCHAR

STARTCHAR 005F
ENCODING 95
SWIDTH 426 0
DWIDTH 4 0
BBX 3 1 1 -1
BITMAP
E0
ENDCHAR

STARTCHAR 0060
ENCODING 96
SWIDTH 426 0
DWIDTH 4 0
BBX 1 1 1 7
BITMAP
80
ENDCHAR

STARTCHAR 0061
ENCODING 97
SWIDTH 426 0
DWIDTH 4 0
BBX 4 5 0 0
BITMAP
60
10
70
90
F0
ENDCHAR

STARTCHAR 0062
ENCODING 98
SWIDTH 426 0
DWIDTH 4 0
BBX 4 7 0 0
BITMAP
80
80
A0
D0
90
90
60
ENDCHAR

STARTCHAR 0063
ENCODING 99
SWIDTH 426 0
DWIDTH 4 0
BBX 4 5 0 0
BITMAP
20
D0
80
80
70
ENDCHAR

STARTCHAR 0064
ENCODING 100
SWIDTH 426 0
DWIDTH 4 0
BBX 5 7 0 0
BITMAP
10
10
70
90
90
90
78
ENDCHAR

STARTCHAR 0065
ENCODING 101
SWIDTH 426 0
DWIDTH 4 0
BBX 4 5 0 0
BITMAP
20
D0
E0
80
70
ENDCHAR

STARTCHAR 0066
ENCODING 102
SWIDTH 426 0
DWIDTH 4 0
BBX 4 7 0 0
BITMAP
60
40
F0
40
40
40
60
ENDCHAR

STARTCHAR 0067
ENCODING 103
SWIDTH 426 0
DWIDTH 4 0
BBX 5 6 0 -1
BITMAP
78
90
60
80
F0
F0
ENDCHAR

STARTCHAR 0068
ENCODING 104
SWIDTH 426 0
DWIDTH 4 0
BBX 4 7 0 0
BITMAP
80
80
A0
D0
90
90
D0
ENDCHAR

STARTCHAR 0069
ENCODING 105
SWIDTH 426 0
DWIDTH 4 0
BBX 2 7 1 0
BITMAP
40
00
C0
40
40
40
40
ENDCHAR

STARTCHAR 006A
ENCODING 106
SWIDTH 426 0
DWIDTH 4 0
BBX 3 8 1 -1
BITMAP
20
00
60
20
20
20
20
C0
ENDCHAR

STARTCHAR 006B
ENCODING 107
SWIDTH 426 0
DWIDTH 4 0
BBX 4 7 0 0
BITMAP
80
80
90
A0
60
90
D0
ENDCHAR

STARTCHAR 006C
ENCODING 108
SWIDTH 426 0
DWIDTH 4 0
BBX 1 7 2 0
BITMAP
80
80
80
80
80
80
80
ENDCHAR

STARTCHAR 006D
ENCODING 109
SWIDTH 426 0
DWIDTH 4 0
BBX 4 5 0 0
BITMAP
D0
B0
B0
B0
B0
ENDCHAR

STARTCHAR 006E
ENCODING 110
SWIDTH 426 0
DWIDTH 4 0
BBX 4 5 0 0
BITMAP
20
D0
90
90
D0
ENDCHAR

STARTCHAR 006F
ENCODING 111
SWIDTH 426 0
DWIDTH 4 0
BBX 5 5 0 0
BITMAP
60
90
88
90
70
ENDCHAR

STARTCHAR 0070
ENCODING 112
SWIDTH 426 0
DWIDTH 4 0
BBX 4 6 0 -1
BITMAP
20
D0
90
90
E0
80
ENDCHAR

STARTCHAR 0071
ENCODING 113
SWIDTH 426 0
DWIDTH 4 0
BBX 4 6 0 -1
BITMAP
70
90
90
90
70
10
ENDCHAR

STARTCHAR 0072
ENCODING 114
SWIDTH 426 0
DWIDTH 4 0
BBX 3 5 1 0
BITMAP
E0
80
80
80
80
ENDCHAR

STARTCHAR 0073
ENCODING 115
SWIDTH 426 0
DWIDTH 4 0
BBX 3 5 1 0
BITMAP
E0
A0
40
20
E0
ENDCHAR

STARTCHAR 0074
ENCODING 116
SWIDTH 426 0
DWIDTH 4 0
BBX 3 5 1 1
BITMAP
80
80
80
80
60
ENDCHAR

STARTCHAR 0075
ENCODING 117
SWIDTH 426 0
DWIDTH 4 0
BBX 5 4 0 1
BITMAP
90
90
90
68
ENDCHAR

STARTCHAR 0076
ENCODING 118
SWIDTH 426 0
DWIDTH 4 0
BBX 3 4 1 0
BITMAP
A0
C0
C0
40
ENDCHAR

STARTCHAR 0077
ENCODING 119
SWIDTH 426 0
DWIDTH 4 0
BBX 4 4 0 0
BITMAP
A0
F0
50
40
ENDCHAR

STARTCHAR 0078
ENCODING 120
SWIDTH 426 0
DWIDTH 4 0
BBX 4 4 0 0
BITMAP
50
20
60
90
ENDCHAR

STARTCHAR 0079
ENCODING 121
SWIDTH 426 0
DWIDTH 4 0
BBX 3 5 1 -1
BITMAP
A0
C0
40
40
80
ENDCHAR

STARTCHAR 007A
ENCODING 122
SWIDTH 426 0
DWIDTH 4 0
BBX 4 4 0 0
BITMAP
70
20
40
F0
ENDCHAR

STARTCHAR 007B
ENCODING 123
SWIDTH 426 0
DWIDTH 4 0
BBX 3 8 1 -1
BITMAP
20
40
40
40
80
40
40
40
ENDCHAR

STARTCHAR 007C
ENCODING 124
SWIDTH 426 0
DWIDTH 4 0
BBX 1 9 2 -1
BITMAP
80
80
80
80
80
80
80
80
80
ENDCHAR

STARTCHAR 007D
ENCODING 125
SWIDTH 426 0
DWIDTH 4 0
BBX 2 8 1 0
BITMAP
80
80
80
40
80
80
80
80
ENDCHAR

STARTCHAR 007E
ENCODING 126
SWIDTH 426 0
DWIDTH 4 0
BBX 3 1 0 6
BITMAP
E0
ENDCHAR

STARTCHAR 00A0
ENCODING 160
SWIDTH 426 0
DWIDTH 4 0
BBX 0 0 0 0
BITMAP
ENDCHAR

STARTCHAR 00A1
ENCODING 161
SWIDTH 426 0
DWIDTH 4 0
BBX 0 0 0 0
BITMAP
ENDCHAR

STARTCHAR 00A2
ENCODING 162
SWIDTH 426 0
DWIDTH 4 0
BBX 0 0 0 0
BITMAP
ENDCHAR

STARTCHAR 00A3
ENCODING 163
SWIDTH 426 0
DWIDTH 4 0
BBX 0 0 0 0
BITMAP
ENDCHAR

STARTCHAR 00A4
ENCODING 164
SWIDTH 426 0
DWIDTH 4 0
BBX 0 0 0 0
BITMAP
ENDCHAR

STARTCHAR 00A5
ENCODING 165
SWIDTH 426 0
DWIDTH 4 0
BBX 0 0 0 0
BITMAP
ENDCHAR

STARTCHAR 00A6
ENCODING 166
SWIDTH 426 0
DWIDTH 4 0
BBX 0 0 0 0
BITMAP
ENDCHAR

STARTCHAR 00A7
ENCODING 167
SWIDTH 960 0
DWIDTH 9 0
BBX 4 8 2 -1
BITMAP
F0
40
60
90
70
10
90
70
ENDCHAR

STARTCHAR 00A8
ENCODING 168
SWIDTH 960 0
DWIDTH 9 0
BBX 3 1 3 6
BITMAP
A0
ENDCHAR

STARTCHAR 00A9
ENCODING 169
SWIDTH 426 0
DWIDTH 4 0
BBX 0 0 0 0
BITMAP
ENDCHAR

STARTCHAR 00AA
ENCODING 170
SWIDTH 426 0
DWIDTH 4 0
BBX 0 0 0 0
BITMAP
ENDCHAR

STARTCHAR 00AB
ENCODING 171
SWIDTH 426 0
DWIDTH 4 0
BBX 0 0 0 0
BITMAP
ENDCHAR

STARTCHAR 00AC
ENCODING 172
SWIDTH 426 0
DWIDTH 4 0
BBX 0 0 0 0
BITMAP
ENDCHAR

STARTCHAR 00AD
ENCODING 173
SWIDTH 426 0
DWIDTH 4 0
BBX 0 0 0 0
BITMAP
ENDCHAR

STARTCHAR 00AE
ENCODING 174
SWIDTH 426 0
DWIDTH 4 0
BBX 0 0 0 0
BITMAP
ENDCHAR

STARTCHAR 00AF
ENCODING 175
SWIDTH 426 0
DWIDTH 4 0
BBX 0 0 0 0
BITMAP
ENDCHAR

STARTCHAR 00B0
ENCODING 176
SWIDTH 960 0
DWIDTH 9 0
BBX 2 2 0 5
BITMAP
C0
40
ENDCHAR

STARTCHAR 00B1
ENCODING 177
SWIDTH 960 0
DWIDTH 9 0
BBX 7 7 1 0
BITMAP
10
10
10
7C
10
10
FE
ENDCHAR

STARTCHAR 00B2
ENCODING 178
SWIDTH 426 0
DWIDTH 4 0
BBX 0 0 0 0
BITMAP
ENDCHAR

STARTCHAR 00B3
ENCODING 179
SWIDTH 426 0
DWIDTH 4 0
BBX 0 0 0 0
BITMAP
ENDCHAR

STARTCHAR 00B4
ENCODING 180
SWIDTH 960 0
DWIDTH 9 0
BBX 1 1 4 7
BITMAP
80
ENDCHAR

STARTCHAR 00B5
ENCODING 181
SWIDTH 426 0
DWIDTH 4 0
BBX 0 0 0 0
BITMAP
ENDCHAR

STARTCHAR 00B6
ENCODING 182
SWIDTH 960 0
DWIDTH 9 0
BBX 4 6 2 0
BITMAP
F0
D0
D0
50
50
50
ENDCHAR

STARTCHAR 00B7
ENCODING 183
SWIDTH 426 0
DWIDTH 4 0
BBX 0 0 0 0
BITMAP
ENDCHAR

STARTCHAR 00B8
ENCODING 184
SWIDTH 426 0
DWIDTH 4 0
BBX 0 0 0 0
BITMAP
ENDCHAR

STARTCHAR 00B9
ENCODING 185
SWIDTH 426 0
DWIDTH 4 0
BBX 0 0 0 0
BITMAP
ENDCHAR

STARTCHAR 00BA
ENCODING 186
SWIDTH 426 0
DWIDTH 4 0
BBX 0 0 0 0
BITMAP
ENDCHAR

STARTCHAR 00BB
ENCODING 187
SWIDTH 426 0
DWIDTH 4 0
BBX 0 0 0 0
BITMAP
ENDCHAR

STARTCHAR 00BC
ENCODING 188
SWIDTH 426 0
DWIDTH 4 0
BBX 0 0 0 0
BITMAP
ENDCHAR

STARTCHAR 00BD
ENCODING 189
SWIDTH 426 0
DWIDTH 4 0
BBX 0 0 0 0
BITMAP
ENDCHAR

STARTCHAR 00BE
ENCODING 190
SWIDTH 426 0
DWIDTH 4 0
BBX 0 0 0 0
BITMAP
ENDCHAR

STARTCHAR 00BF
ENCODING 191
SWIDTH 426 0
DWIDTH 4 0
BBX 0 0 0 0
BITMAP
ENDCHAR

STARTCHAR 00C0
ENCODING 192
SWIDTH 426 0
DWIDTH 4 0
BBX 0 0 0 0
BITMAP
ENDCHAR

STARTCHAR 00C1
ENCODING 193
SWIDTH 426 0
DWIDTH 4 0
BBX 0 0 0 0
BITMAP
ENDCHAR

STARTCHAR 00C2
ENCODING 194
SWIDTH 426 0
DWIDTH 4 0
BBX 0 0 0 0
BITMAP
ENDCHAR

STARTCHAR 00C3
ENCODING 195
SWIDTH 426 0
DWIDTH 4 0
BBX 0 0 0 0
BITMAP
ENDCHAR

STARTCHAR 00C4
ENCODING 196
SWIDTH 426 0
DWIDTH 4 0
BBX 0 0 0 0
BITMAP
ENDCHAR

STARTCHAR 00C5
ENCODING 197
SWIDTH 426 0
DWIDTH 4 0
BBX 0 0 0 0
BITMAP
ENDCHAR

STARTCHAR 00C6
ENCODING 198
SWIDTH 426 0
DWIDTH 4 0
BBX 0 0 0 0
BITMAP
ENDCHAR

STARTCHAR 00C7
ENCODING 199
SWIDTH 426 0
DWIDTH 4 0
BBX 0 0 0 0
BITMAP
ENDCHAR

STARTCHAR 00C8
ENCODING 200
SWIDTH 426 0
DWIDTH 4 0
BBX 0 0 0 0
BITMAP
ENDCHAR

STARTCHAR 00C9
ENCODING 201
SWIDTH 426 0
DWIDTH 4 0
BBX 0 0 0 0
BITMAP
ENDCHAR

STARTCHAR 00CA
ENCODING 202
SWIDTH 426 0
DWIDTH 4 0
BBX 0 0 0 0
BITMAP
ENDCHAR

STARTCHAR 00CB
ENCODING 203
SWIDTH 426 0
DWIDTH 4 0
BBX 0 0 0 0
BITMAP
ENDCHAR

STARTCHAR 00CC
ENCODING 204
SWIDTH 426 0
DWIDTH 4 0
BBX 0 0 0 0
BITMAP
ENDCHAR

STARTCHAR 00CD
ENCODING 205
SWIDTH 426 0
DWIDTH 4 0
BBX 0 0 0 0
BITMAP
ENDCHAR

STARTCHAR 00CE
ENCODING 206
SWIDTH 426 0
DWIDTH 4 0
BBX 0 0 0 0
BITMAP
ENDCHAR

STARTCHAR 00CF
ENCODING 207
SWIDTH 426 0
DWIDTH 4 0
BBX 0 0 0 0
BITMAP
ENDCHAR

STARTCHAR 00D0
ENCODING 208
SWIDTH 426 0
DWIDTH 4 0
BBX 0 0 0 0
BITMAP
ENDCHAR

STARTCHAR 00D1
ENCODING 209
SWIDTH 426 0
DWIDTH 4 0
BBX 0 0 0 0
BITMAP
ENDCHAR

STARTCHAR 00D2
ENCODING 210
SWIDTH 426 0
DWIDTH 4 0
BBX 0 0 0 0
BITMAP
ENDCHAR

STARTCHAR 00D3
ENCODING 211
SWIDTH 426 0
DWIDTH 4 0
BBX 0 0 0 0
BITMAP
ENDCHAR

STARTCHAR 00D4
ENCODING 212
SWIDTH 426 0
DWIDTH 4 0
BBX 0 0 0 0
BITMAP
ENDCHAR

STARTCHAR 00D5
ENCODING 213
SWIDTH 426 0
DWIDTH 4 0
BBX 0 0 0 0
BITMAP
ENDCHAR

STARTCHAR 00D6
ENCODING 214
SWIDTH 426 0
DWIDTH 4 0
BBX 0 0 0 0
BITMAP
ENDCHAR

STARTCHAR 00D7
ENCODING 215
SWIDTH 960 0
DWIDTH 9 0
BBX 6 6 2 0
BITMAP
88
50
20
50
88
04
ENDCHAR

STARTCHAR 00D8
ENCODING 216
SWIDTH 426 0
DWIDTH 4 0
BBX 0 0 0 0
BITMAP
ENDCHAR

STARTCHAR 00D9
ENCODING 217
SWIDTH 426 0
DWIDTH 4 0
BBX 0 0 0 0
BITMAP
ENDCHAR

STARTCHAR 00DA
ENCODING 218
SWIDTH 426 0
DWIDTH 4 0
BBX 0 0 0 0
BITMAP
ENDCHAR

STARTCHAR 00DB
ENCODING 219
SWIDTH 426 0
DWIDTH 4 0
BBX 0 0 0 0
BITMAP
ENDCHAR

STARTCHAR 00DC
ENCODING 220
SWIDTH 426 0
DWIDTH 4 0
BBX 0 0 0 0
BITMAP
ENDCHAR

STARTCHAR 00DD
ENCODING 221
SWIDTH 426 0
DWIDTH 4 0
BBX 0 0 0 0
BITMAP
ENDCHAR

STARTCHAR 00DE
ENCODING 222
SWIDTH 426 0
DWIDTH 4 0
BBX 0 0 0 0
BITMAP
ENDCHAR

STARTCHAR 00DF
ENCODING 223
SWIDTH 426 0
DWIDTH 4 0
BBX 0 0 0 0
BITMAP
ENDCHAR

STARTCHAR 00E0
ENCODING 224
SWIDTH 426 0
DWIDTH 4 0
BBX 0 0 0 0
BITMAP
ENDCHAR

STARTCHAR 00E1
ENCODING 225
SWIDTH 426 0
DWIDTH 4 0
BBX 0 0 0 0
BITMAP
ENDCHAR

STARTCHAR 00E2
ENCODING 226
SWIDTH 426 0
DWIDTH 4 0
BBX 0 0 0 0
BITMAP
ENDCHAR

STARTCHAR 00E3
ENCODING 227
SWIDTH 426 0
DWIDTH 4 0
BBX 0 0 0 0
BITMAP
ENDCHAR

STARTCHAR 00E4
ENCODING 228
SWIDTH 426 0
DWIDTH 4 0
BBX 0 0 0 0
BITMAP
ENDCHAR

STARTCHAR 00E5
ENCODING 229
SWIDTH 426 0
DWIDTH 4 0
BBX 0 0 0 0
BITMAP
ENDCHAR

STARTCHAR 00E6
ENCODING 230
SWIDTH 426 0
DWIDTH 4 0
BBX 0 0 0 0
BITMAP
ENDCHAR

STARTCHAR 00E7
ENCODING 231
SWIDTH 426 0
DWIDTH 4 0
BBX 0 0 0 0
BITMAP
ENDCHAR

STARTCHAR 00E8
ENCODING 232
SWIDTH 426 0
DWIDTH 4 0
BBX 0 0 0 0
BITMAP
ENDCHAR

STARTCHAR 00E9
ENCODING 233
SWIDTH 426 0
DWIDTH 4 0
BBX 0 0 0 0
BITMAP
ENDCHAR

STARTCHAR 00EA
ENCODING 234
SWIDTH 426 0
DWIDTH 4 0
BBX 0 0 0 0
BITMAP
ENDCHAR

STARTCHAR 00EB
ENCODING 235
SWIDTH 426 0
DWIDTH 4 0
BBX 0 0 0 0
BITMAP
ENDCHAR

STARTCHAR 00EC
ENCODING 236
SWIDTH 426 0
DWIDTH 4 0
BBX 0 0 0 0
BITMAP
ENDCHAR

STARTCHAR 00ED
ENCODING 237
SWIDTH 426 0
DWIDTH 4 0
BBX 0 0 0 0
BITMAP
ENDCHAR

STARTCHAR 00EE
ENCODING 238
SWIDTH 426 0
DWIDTH 4 0
BBX 0 0 0 0
BITMAP
ENDCHAR

STARTCHAR 00EF
ENCODING 239
SWIDTH 426 0
DWIDTH 4 0
BBX 0 0 0 0
BITMAP
ENDCHAR

STARTCHAR 00F0
ENCODING 240
SWIDTH 426 0
DWIDTH 4 0
BBX 0 0 0 0
BITMAP
ENDCHAR

STARTCHAR 00F1
ENCODING 241
SWIDTH 426 0
DWIDTH 4 0
BBX 0 0 0 0
BITMAP
ENDCHAR

STARTCHAR 00F2
ENCODING 242
SWIDTH 426 0
DWIDTH 4 0
BBX 0 0 0 0
BITMAP
ENDCHAR

STARTCHAR 00F3
ENCODING 243
SWIDTH 426 0
DWIDTH 4 0
BBX 0 0 0 0
BITMAP
ENDCHAR

STARTCHAR 00F4
ENCODING 244
SWIDTH 426 0
DWIDTH 4 0
BBX 0 0 0 0
BITMAP
ENDCHAR

STARTCHAR 00F5
ENCODING 245
SWIDTH 426 0
DWIDTH 4 0
BBX 0 0 0 0
BITMAP
ENDCHAR

STARTCHAR 00F6
ENCODING 246
SWIDTH 426 0
DWIDTH 4 0
BBX 0 0 0 0
BITMAP
ENDCHAR

STARTCHAR 00F7
ENCODING 247
SWIDTH 960 0
DWIDTH 9 0
BBX 7 5 1 1
BITMAP
10
00
FE
00
10
ENDCHAR

STARTCHAR 00F8
ENCODING 248
SWIDTH 426 0
DWIDTH 4 0
BBX 0 0 0 0
BITMAP
ENDCHAR

STARTCHAR 00F9
ENCODING 249
SWIDTH 426 0
DWIDTH 4 0
BBX 0 0 0 0
BITMAP
ENDCHAR

STARTCHAR 00FA
ENCODING 250
SWIDTH 426 0
DWIDTH 4 0
BBX 0 0 0 0
BITMAP
ENDCHAR

STARTCHAR 00FB
ENCODING 251
SWIDTH 426 0
DWIDTH 4 0
BBX 0 0 0 0
BITMAP
ENDCHAR

STARTCHAR 00FC
ENCODING 252
SWIDTH 426 0
DWIDTH 4 0
BBX 0 0 0 0
BITMAP
ENDCHAR

STARTCHAR 00FD
ENCODING 253
SWIDTH 426 0
DWIDTH 4 0
BBX 0 0 0 0
BITMAP
ENDCHAR

STARTCHAR 00FE
ENCODING 254
SWIDTH 426 0
DWIDTH 4 0
BBX 0 0 0 0
BITMAP
ENDCHAR

STARTCHAR 00FF
ENCODING 255
SWIDTH 426 0
DWIDTH 4 0
BBX 0 0 0 0
BITMAP
ENDCHAR

STARTCHAR 0100
ENCODING 256
SWIDTH 426 0
DWIDTH 4 0
BBX 0 0 0 0
BITMAP
ENDCHAR

STARTCHAR 0101
ENCODING 257
SWIDTH 426 0
DWIDTH 4 0
BBX 0 0 0 0
BITMAP
ENDCHAR

STARTCHAR 0102
ENCODING 258
SWIDTH 426 0
DWIDTH 4 0
BBX 0 0 0 0
BITMAP
ENDCHAR

STARTCHAR 0103
ENCODING 259
SWIDTH 426 0
DWIDTH 4 0
BBX 0 0 0 0
BITMAP
ENDCHAR

STARTCHAR 0104
ENCODING 260
SWIDTH 426 0
DWIDTH 4 0
BBX 0 0 0 0
BITMAP
ENDCHAR

STARTCHAR 0105
ENCODING 261
SWIDTH 426 0
DWIDTH 4 0
BBX 0 0 0 0
BITMAP
ENDCHAR

STARTCHAR 0106
ENCODING 262
SWIDTH 426 0
DWIDTH 4 0
BBX 0 0 0 0
BITMAP
ENDCHAR

STARTCHAR 0107
ENCODING 263
SWIDTH 426 0
DWIDTH 4 0
BBX 0 0 0 0
BITMAP
ENDCHAR

STARTCHAR 0108
ENCODING 264
SWIDTH 426 0
DWIDTH 4 0
BBX 0 0 0 0
BITMAP
ENDCHAR

STARTCHAR 0109
ENCODING 265
SWIDTH 426 0
DWIDTH 4 0
BBX 0 0 0 0
BITMAP
ENDCHAR

STARTCHAR 010A
ENCODING 266
SWIDTH 426 0
DWIDTH 4 0
BBX 0 0 0 0
BITMAP
ENDCHAR

STARTCHAR 010B
ENCODING 267
SWIDTH 426 0
DWIDTH 4 0
BBX 0 0 0 0
BITMAP
ENDCHAR

STARTCHAR 010C
ENCODING 268
SWIDTH 426 0
DWIDTH 4 0
BBX 0 0 0 0
BITMAP
ENDCHAR

STARTCHAR 010D
ENCODING 269
SWIDTH 426 0
DWIDTH 4 0
BBX 0 0 0 0
BITMAP
ENDCHAR

STARTCHAR 010E
ENCODING 270
SWIDTH 426 0
DWIDTH 4 0
BBX 0 0 0 0
BITMAP
ENDCHAR

STARTCHAR 010F
ENCODING 271
SWIDTH 426 0
DWIDTH 4 0
BBX 0 0 0 0
BITMAP
ENDCHAR

STARTCHAR 0110
ENCODING 272
SWIDTH 426 0
DWIDTH 4 0
BBX 0 0 0 0
BITMAP
ENDCHAR

STARTCHAR 0111
ENCODING 273
SWIDTH 426 0
DWIDTH 4 0
BBX 0 0 0 0
BITMAP
ENDCHAR

STARTCHAR 0112
ENCODING 274
SWIDTH 426 0
DWIDTH 4 0
BBX 0 0 0 0
BITMAP
ENDCHAR

STARTCHAR 0113
ENCODING 275
SWIDTH 426 0
DWIDTH 4 0
BBX 0 0 0 0
BITMAP
ENDCHAR

STARTCHAR 0114
ENCODING 276
SWIDTH 426 0
DWIDTH 4 0
BBX 0 0 0 0
BITMAP
ENDCHAR

STARTCHAR 0115
ENCODING 277
SWIDTH 426 0
DWIDTH 4 0
BBX 0 0 0 0
BITMAP
ENDCHAR

STARTCHAR 0116
ENCODING 278
SWIDTH 426 0
DWIDTH 4 0
BBX 0 0 0 0
BITMAP
ENDCHAR

STARTCHAR 0117
ENCODING 279
SWIDTH 426 0
DWIDTH 4 0
BBX 0 0 0 0
BITMAP
ENDCHAR

STARTCHAR 0118
ENCODING 280
SWIDTH 426 0
DWIDTH 4 0
BBX 0 0 0 0
BITMAP
ENDCHAR

STARTCHAR 0119
ENCODING 281
SWIDTH 426 0
DWIDTH 4 0
BBX 0 0 0 0
BITMAP
ENDCHAR

STARTCHAR 011A
ENCODING 282
SWIDTH 426 0
DWIDTH 4 0
BBX 0 0 0 0
BITMAP
ENDCHAR

STARTCHAR 011B
ENCODING 283
SWIDTH 426 0
DWIDTH 4 0
BBX 0 0 0 0
BITMAP
ENDCHAR

STARTCHAR 011C
ENCODING 284
SWIDTH 426 0
DWIDTH 4 0
BBX 0 0 0 0
BITMAP
ENDCHAR

STARTCHAR 011D
ENCODING 285
SWIDTH 426 0
DWIDTH 4 0
BBX 0 0 0 0
BITMAP
ENDCHAR

STARTCHAR 011E
ENCODING 286
SWIDTH 426 0
DWIDTH 4 0
BBX 0 0 0 0
BITMAP
ENDCHAR

STARTCHAR 011F
ENCODING 287
SWIDTH 426 0
DWIDTH 4 0
BBX 0 0 0 0
BITMAP
ENDCHAR

STARTCHAR 0120
ENCODING 288
SWIDTH 426 0
DWIDTH 4 0
BBX 0 0 0 0
BITMAP
ENDCHAR

STARTCHAR 0121
ENCODING 289
SWIDTH 426 0
DWIDTH 4 0
BBX 0 0 0 0
BITMAP
ENDCHAR

STARTCHAR 0122
ENCODING 290
SWIDTH 426 0
DWIDTH 4 0
BBX 0 0 0 0
BITMAP
ENDCHAR

STARTCHAR 0123
ENCODING 291
SWIDTH 426 0
DWIDTH 4 0
BBX 0 0 0 0
BITMAP
ENDCHAR

STARTCHAR 0124
ENCODING 292
SWIDTH 426 0
DWIDTH 4 0
BBX 0 0 0 0
BITMAP
ENDCHAR

STARTCHAR 0125
ENCODING 293
SWIDTH 426 0
DWIDTH 4 0
BBX 0 0 0 0
BITMAP
ENDCHAR

STARTCHAR 0126
ENCODING 294
SWIDTH 426 0
DWIDTH 4 0
BBX 0 0 0 0
BITMAP
ENDCHAR

STARTCHAR 0127
ENCODING 295
SWIDTH 426 0
DWIDTH 4 0
BBX 0 0 0 0
BITMAP
ENDCHAR

STARTCHAR 0128
ENCODING 296
SWIDTH 426 0
DWIDTH 4 0
BBX 0 0 0 0
BITMAP
ENDCHAR

STARTCHAR 0129
ENCODING 297
SWIDTH 426 0
DWIDTH 4 0
BBX 0 0 0 0
BITMAP
ENDCHAR

STARTCHAR 012A
ENCODING 298
SWIDTH 426 0
DWIDTH 4 0
BBX 0 0 0 0
BITMAP
ENDCHAR

STARTCHAR 012B
ENCODING 299
SWIDTH 426 0
DWIDTH 4 0
BBX 0 0 0 0
BITMAP
ENDCHAR

STARTCHAR 012C
ENCODING 300
SWIDTH 426 0
DWIDTH 4 0
BBX 0 0 0 0
BITMAP
ENDCHAR

STARTCHAR 012D
ENCODING 301
SWIDTH 426 0
DWIDTH 4 0
BBX 0 0 0 0
BITMAP
ENDCHAR

STARTCHAR 012E
ENCODING 302
SWIDTH 426 0
DWIDTH 4 0
BBX 0 0 0 0
BITMAP
ENDCHAR

STARTCHAR 012F
ENCODING 303
SWIDTH 426 0
DWIDTH 4 0
BBX 0 0 0 0
BITMAP
ENDCHAR

STARTCHAR 0130
ENCODING 304
SWIDTH 426 0
DWIDTH 4 0
BBX 0 0 0 0
BITMAP
ENDCHAR

STARTCHAR 0131
ENCODING 305
SWIDTH 426 0
DWIDTH 4 0
BBX 0 0 0 0
BITMAP
ENDCHAR

STARTCHAR 0132
ENCODING 306
SWIDTH 426 0
DWIDTH 4 0
BBX 0 0 0 0
BITMAP
ENDCHAR

STARTCHAR 0133
ENCODING 307
SWIDTH 426 0
DWIDTH 4 0
BBX 0 0 0 0
BITMAP
ENDCHAR

STARTCHAR 0134
ENCODING 308
SWIDTH 426 0
DWIDTH 4 0
BBX 0 0 0 0
BITMAP
ENDCHAR

STARTCHAR 0135
ENCODING 309
SWIDTH 426 0
DWIDTH 4 0
BBX 0 0 0 0
BITMAP
ENDCHAR

STARTCHAR 0136
ENCODING 310
SWIDTH 426 0
DWIDTH 4 0
BBX 0 0 0 0
BITMAP
ENDCHAR

STARTCHAR 0137
ENCODING 311
SWIDTH 426 0
DWIDTH 4 0
BBX 0 0 0 0
BITMAP
ENDCHAR

STARTCHAR 0138
ENCODING 312
SWIDTH 426 0
DWIDTH 4 0
BBX 0 0 0 0
BITMAP
ENDCHAR

STARTCHAR 0139
ENCODING 313
SWIDTH 426 0
DWIDTH 4 0
BBX 0 0 0 0
BITMAP
ENDCHAR

STARTCHAR 013A
ENCODING 314
SWIDTH 426 0
DWIDTH 4 0
BBX 0 0 0 0
BITMAP
ENDCHAR

STARTCHAR 013B
ENCODING 315
SWIDTH 426 0
DWIDTH 4 0
BBX 0 0 0 0
BITMAP
ENDCHAR

STARTCHAR 013C
ENCODING 316
SWIDTH 426 0
DWIDTH 4 0
BBX 0 0 0 0
BITMAP
ENDCHAR

STARTCHAR 013D
ENCODING 317
SWIDTH 426 0
DWIDTH 4 0
BBX 0 0 0 0
BITMAP
ENDCHAR

STARTCHAR 013E
ENCODING 318
SWIDTH 426 0
DWIDTH 4 0
BBX 0 0 0 0
BITMAP
ENDCHAR

STARTCHAR 013F
ENCODING 319
SWIDTH 426 0
DWIDTH 4 0
BBX 0 0 0 0
BITMAP
ENDCHAR

STARTCHAR 0140
ENCODING 320
SWIDTH 426 0
DWIDTH 4 0
BBX 0 0 0 0
BITMAP
ENDCHAR

STARTCHAR 0141
ENCODING 321
SWIDTH 426 0
DWIDTH 4 0
BBX 0 0 0 0
BITMAP
ENDCHAR

STARTCHAR 0142
ENCODING 322
SWIDTH 426 0
DWIDTH 4 0
BBX 0 0 0 0
BITMAP
ENDCHAR

STARTCHAR 0143
ENCODING 323
SWIDTH 426 0
DWIDTH 4 0
BBX 0 0 0 0
BITMAP
ENDCHAR

STARTCHAR 0144
ENCODING 324
SWIDTH 426 0
DWIDTH 4 0
BBX 0 0 0 0
BITMAP
ENDCHAR

STARTCHAR 0145
ENCODING 325
SWIDTH 426 0
DWIDTH 4 0
BBX 0 0 0 0
BITMAP
ENDCHAR

STARTCHAR 0146
ENCODING 326
SWIDTH 426 0
DWIDTH 4 0
BBX 0 0 0 0
BITMAP
ENDCHAR

STARTCHAR 0147
ENCODING 327
SWIDTH 426 0
DWIDTH 4 0
BBX 0 0 0 0
BITMAP
ENDCHAR

STARTCHAR 0148
ENCODING 328
SWIDTH 426 0
DWIDTH 4 0
BBX 0 0 0 0
BITMAP
ENDCHAR

STARTCHAR 0149
ENCODING 329
SWIDTH 426 0
DWIDTH 4 0
BBX 0 0 0 0
BITMAP
ENDCHAR

STARTCHAR 014A
ENCODING 330
SWIDTH 426 0
DWIDTH 4 0
BBX 0 0 0 0
BITMAP
ENDCHAR

STARTCHAR 014B
ENCODING 331
SWIDTH 426 0
DWIDTH 4 0
BBX 0 0 0 0
BITMAP
ENDCHAR

STARTCHAR 014C
ENCODING 332
SWIDTH 426 0
DWIDTH 4 0
BBX 0 0 0 0
BITMAP
ENDCHAR

STARTCHAR 014D
ENCODING 333
SWIDTH 426 0
DWIDTH 4 0
BBX 0 0 0 0
BITMAP
ENDCHAR

STARTCHAR 014E
ENCODING 334
SWIDTH 426 0
DWIDTH 4 0
BBX 0 0 0 0
BITMAP
ENDCHAR

STARTCHAR 014F
ENCODING 335
SWIDTH 426 0
DWIDTH 4 0
BBX 0 0 0 0
BITMAP
ENDCHAR

STARTCHAR 0150
ENCODING 336
SWIDTH 426 0
DWIDTH 4 0
BBX 0 0 0 0
BITMAP
ENDCHAR

STARTCHAR 0151
ENCODING 337
SWIDTH 426 0
DWIDTH 4 0
BBX 0 0 0 0
BITMAP
ENDCHAR

STARTCHAR 0152
ENCODING 338
SWIDTH 426 0
DWIDTH 4 0
BBX 0 0 0 0
BITMAP
ENDCHAR

STARTCHAR 0153
ENCODING 339
SWIDTH 426 0
DWIDTH 4 0
BBX 0 0 0 0
BITMAP
ENDCHAR

STARTCHAR 0154
ENCODING 340
SWIDTH 426 0
DWIDTH 4 0
BBX 0 0 0 0
BITMAP
ENDCHAR

STARTCHAR 0155
ENCODING 341
SWIDTH 426 0
DWIDTH 4 0
BBX 0 0 0 0
BITMAP
ENDCHAR

STARTCHAR 0156
ENCODING 342
SWIDTH 426 0
DWIDTH 4 0
BBX 0 0 0 0
BITMAP
ENDCHAR

STARTCHAR 0157
ENCODING 343
SWIDTH 426 0
DWIDTH 4 0
BBX 0 0 0 0
BITMAP
ENDCHAR

STARTCHAR 0158
ENCODING 344
SWIDTH 426 0
DWIDTH 4 0
BBX 0 0 0 0
BITMAP
ENDCHAR

STARTCHAR 0159
ENCODING 345
SWIDTH 426 0
DWIDTH 4 0
BBX 0 0 0 0
BITMAP
ENDCHAR

STARTCHAR 015A
ENCODING 346
SWIDTH 426 0
DWIDTH 4 0
BBX 0 0 0 0
BITMAP
ENDCHAR

STARTCHAR 015B
ENCODING 347
SWIDTH 426 0
DWIDTH 4 0
BBX 0 0 0 0
BITMAP
ENDCHAR

STARTCHAR 015C
ENCODING 348
SWIDTH 426 0
DWIDTH 4 0
BBX 0 0 0 0
BITMAP
ENDCHAR

STARTCHAR 015D
ENCODING 349
SWIDTH 426 0
DWIDTH 4 0
BBX 0 0 0 0
BITMAP
ENDCHAR

STARTCHAR 015E
ENCODING 350
SWIDTH 426 0
DWIDTH 4 0
BBX 0 0 0 0
BITMAP
ENDCHAR

STARTCHAR 015F
ENCODING 351
SWIDTH 426 0
DWIDTH 4 0
BBX 0 0 0 0
BITMAP
ENDCHAR

STARTCHAR 0160
ENCODING 352
SWIDTH 426 0
DWIDTH 4 0
BBX 0 0 0 0
BITMAP
ENDCHAR

STARTCHAR 0161
ENCODING 353
SWIDTH 426 0
DWIDTH 4 0
BBX 0 0 0 0
BITMAP
ENDCHAR

STARTCHAR 0162
ENCODING 354
SWIDTH 426 0
DWIDTH 4 0
BBX 0 0 0 0
BITMAP
ENDCHAR

STARTCHAR 0163
ENCODING 355
SWIDTH 426 0
DWIDTH 4 0
BBX 0 0 0 0
BITMAP
ENDCHAR

STARTCHAR 0164
ENCODING 356
SWIDTH 426 0
DWIDTH 4 0
BBX 0 0 0 0
BITMAP
ENDCHAR

STARTCHAR 0165
ENCODING 357
SWIDTH 426 0
DWIDTH 4 0
BBX 0 0 0 0
BITMAP
ENDCHAR

STARTCHAR 0166
ENCODING 358
SWIDTH 426 0
DWIDTH 4 0
BBX 0 0 0 0
BITMAP
ENDCHAR

STARTCHAR 0167
ENCODING 359
SWIDTH 426 0
DWIDTH 4 0
BBX 0 0 0 0
BITMAP
ENDCHAR

STARTCHAR 0168
ENCODING 360
SWIDTH 426 0
DWIDTH 4 0
BBX 0 0 0 0
BITMAP
ENDCHAR

STARTCHAR 0169
ENCODING 361
SWIDTH 426 0
DWIDTH 4 0
BBX 0 0 0 0
BITMAP
ENDCHAR

STARTCHAR 016A
ENCODING 362
SWIDTH 426 0
DWIDTH 4 0
BBX 0 0 0 0
BITMAP
ENDCHAR

STARTCHAR 016B
ENCODING 363
SWIDTH 426 0
DWIDTH 4 0
BBX 0 0 0 0
BITMAP
ENDCHAR

STARTCHAR 016C
ENCODING 364
SWIDTH 426 0
DWIDTH 4 0
BBX 0 0 0 0
BITMAP
ENDCHAR

STARTCHAR 016D
ENCODING 365
SWIDTH 426 0
DWIDTH 4 0
BBX 0 0 0 0
BITMAP
ENDCHAR

STARTCHAR 016E
ENCODING 366
SWIDTH 426 0
DWIDTH 4 0
BBX 0 0 0 0
BITMAP
ENDCHAR

STARTCHAR 016F
ENCODING 367
SWIDTH 426 0
DWIDTH 4 0
BBX 0 0 0 0
BITMAP
ENDCHAR

STARTCHAR 0170
ENCODING 368
SWIDTH 426 0
DWIDTH 4 0
BBX 0 0 0 0
BITMAP
ENDCHAR

STARTCHAR 0171
ENCODING 369
SWIDTH 426 0
DWIDTH 4 0
BBX 0 0 0 0
BITMAP
ENDCHAR

STARTCHAR 0172
ENCODING 370
SWIDTH 426 0
DWIDTH 4 0
BBX 0 0 0 0
BITMAP
ENDCHAR

STARTCHAR 0173
ENCODING 371
SWIDTH 426 0
DWIDTH 4 0
BBX 0 0 0 0
BITMAP
ENDCHAR

STARTCHAR 0174
ENCODING 372
SWIDTH 426 0
DWIDTH 4 0
BBX 0 0 0 0
BITMAP
ENDCHAR

STARTCHAR 0175
ENCODING 373
SWIDTH 426 0
DWIDTH 4 0
BBX 0 0 0 0
BITMAP
ENDCHAR

STARTCHAR 0176
ENCODING 374
SWIDTH 426 0
DWIDTH 4 0
BBX 0 0 0 0
BITMAP
ENDCHAR

STARTCHAR 0177
ENCODING 375
SWIDTH 426 0
DWIDTH 4 0
BBX 0 0 0 0
BITMAP
ENDCHAR

STARTCHAR 0178
ENCODING 376
SWIDTH 426 0
DWIDTH 4 0
BBX 0 0 0 0
BITMAP
ENDCHAR

STARTCHAR 0179
ENCODING 377
SWIDTH 426 0
DWIDTH 4 0
BBX 0 0 0 0
BITMAP
ENDCHAR

STARTCHAR 017A
ENCODING 378
SWIDTH 426 0
DWIDTH 4 0
BBX 0 0 0 0
BITMAP
ENDCHAR

STARTCHAR 017B
ENCODING 379
SWIDTH 426 0
DWIDTH 4 0
BBX 0 0 0 0
BITMAP
ENDCHAR

STARTCHAR 017C
ENCODING 380
SWIDTH 426 0
DWIDTH 4 0
BBX 0 0 0 0
BITMAP
ENDCHAR

STARTCHAR 017D
ENCODING 381
SWIDTH 426 0
DWIDTH 4 0
BBX 0 0 0 0
BITMAP
ENDCHAR

STARTCHAR 017E
ENCODING 382
SWIDTH 426 0
DWIDTH 4 0
BBX 0 0 0 0
BITMAP
ENDCHAR

STARTCHAR 017F
ENCODING 383
SWIDTH 426 0
DWIDTH 4 0
BBX 0 0 0 0
BITMAP
ENDCHAR

STARTCHAR 0192
ENCODING 402
SWIDTH 426 0
DWIDTH 4 0
BBX 0 0 0 0
BITMAP
ENDCHAR

STARTCHAR 01CD
ENCODING 461
SWIDTH 960 0
DWIDTH 9 0
BBX 0 0 0 0
BITMAP
ENDCHAR

STARTCHAR 01CE
ENCODING 462
SWIDTH 960 0
DWIDTH 9 0
BBX 0 0 0 0
BITMAP
ENDCHAR

STARTCHAR 01CF
ENCODING 463
SWIDTH 960 0
DWIDTH 9 0
BBX 0 0 0 0
BITMAP
ENDCHAR

STARTCHAR 01D0
ENCODING 464
SWIDTH 960 0
DWIDTH 9 0
BBX 0 0 0 0
BITMAP
ENDCHAR

STARTCHAR 01D1
ENCODING 465
SWIDTH 960 0
DWIDTH 9 0
BBX 0 0 0 0
BITMAP
ENDCHAR

STARTCHAR 01D2
ENCODING 466
SWIDTH 960 0
DWIDTH 9 0
BBX 0 0 0 0
BITMAP
ENDCHAR

STARTCHAR 01D3
ENCODING 467
SWIDTH 960 0
DWIDTH 9 0
BBX 0 0 0 0
BITMAP
ENDCHAR

STARTCHAR 01D4
ENCODING 468
SWIDTH 960 0
DWIDTH 9 0
BBX 0 0 0 0
BITMAP
ENDCHAR

STARTCHAR 01D5
ENCODING 469
SWIDTH 960 0
DWIDTH 9 0
BBX 0 0 0 0
BITMAP
ENDCHAR

STARTCHAR 01D6
ENCODING 470
SWIDTH 960 0
DWIDTH 9 0
BBX 0 0 0 0
BITMAP
ENDCHAR

STARTCHAR 01D7
ENCODING 471
SWIDTH 960 0
DWIDTH 9 0
BBX 0 0 0 0
BITMAP
ENDCHAR

STARTCHAR 01D8
ENCODING 472
SWIDTH 960 0
DWIDTH 9 0
BBX 0 0 0 0
BITMAP
ENDCHAR

STARTCHAR 01D9
ENCODING 473
SWIDTH 960 0
DWIDTH 9 0
BBX 0 0 0 0
BITMAP
ENDCHAR

STARTCHAR 01DA
ENCODING 474
SWIDTH 960 0
DWIDTH 9 0
BBX 0 0 0 0
BITMAP
ENDCHAR

STARTCHAR 01DB
ENCODING 475
SWIDTH 960 0
DWIDTH 9 0
BBX 0 0 0 0
BITMAP
ENDCHAR

STARTCHAR 01DC
ENCODING 476
SWIDTH 960 0
DWIDTH 9 0
BBX 0 0 0 0
BITMAP
ENDCHAR

STARTCHAR 01F5
ENCODING 501
SWIDTH 960 0
DWIDTH 9 0
BBX 0 0 0 0
BITMAP
ENDCHAR

STARTCHAR 01FA
ENCODING 506
SWIDTH 426 0
DWIDTH 4 0
BBX 0 0 0 0
BITMAP
ENDCHAR

STARTCHAR 01FB
ENCODING 507
SWIDTH 426 0
DWIDTH 4 0
BBX 0 0 0 0
BITMAP
ENDCHAR

STARTCHAR 01FC
ENCODING 508
SWIDTH 426 0
DWIDTH 4 0
BBX 0 0 0 0
BITMAP
ENDCHAR

STARTCHAR 01FD
ENCODING 509
SWIDTH 426 0
DWIDTH 4 0
BBX 0 0 0 0
BITMAP
ENDCHAR

STARTCHAR 01FE
ENCODING 510
SWIDTH 426 0
DWIDTH 4 0
BBX 0 0 0 0
BITMAP
ENDCHAR

STARTCHAR 01FF
ENCODING 511
SWIDTH 426 0
DWIDTH 4 0
BBX 0 0 0 0
BITMAP
ENDCHAR

STARTCHAR 0250
ENCODING 592
SWIDTH 426 0
DWIDTH 4 0
BBX 0 0 0 0
BITMAP
ENDCHAR

STARTCHAR 0251
ENCODING 593
SWIDTH 426 0
DWIDTH 4 0
BBX 0 0 0 0
BITMAP
ENDCHAR

STARTCHAR 0252
ENCODING 594
SWIDTH 426 0
DWIDTH 4 0
BBX 0 0 0 0
BITMAP
ENDCHAR

STARTCHAR 0253
ENCODING 595
SWIDTH 426 0
DWIDTH 4 0
BBX 0 0 0 0
BITMAP
ENDCHAR

STARTCHAR 0254
ENCODING 596
SWIDTH 426 0
DWIDTH 4 0
BBX 0 0 0 0
BITMAP
ENDCHAR

STARTCHAR 0255
ENCODING 597
SWIDTH 426 0
DWIDTH 4 0
BBX 0 0 0 0
BITMAP
ENDCHAR

STARTCHAR 0256
ENCODING 598
SWIDTH 426 0
DWIDTH 4 0
BBX 0 0 0 0
BITMAP
ENDCHAR

STARTCHAR 0257
ENCODING 599
SWIDTH 426 0
DWIDTH 4 0
BBX 0 0 0 0
BITMAP
ENDCHAR

STARTCHAR 0258
ENCODING 600
SWIDTH 426 0
DWIDTH 4 0
BBX 0 0 0 0
BITMAP
ENDCHAR

STARTCHAR 0259
ENCODING 601
SWIDTH 426 0
DWIDTH 4 0
BBX 0 0 0 0
BITMAP
ENDCHAR

STARTCHAR 025A
ENCODING 602
SWIDTH 426 0
DWIDTH 4 0
BBX 0 0 0 0
BITMAP
ENDCHAR

STARTCHAR 025B
ENCODING 603
SWIDTH 426 0
DWIDTH 4 0
BBX 0 0 0 0
BITMAP
ENDCHAR

STARTCHAR 025C
ENCODING 604
SWIDTH 426 0
DWIDTH 4 0
BBX 0 0 0 0
BITMAP
ENDCHAR

STARTCHAR 025D
ENCODING 605
SWIDTH 426 0
DWIDTH 4 0
BBX 0 0 0 0
BITMAP
ENDCHAR

STARTCHAR 025E
ENCODING 606
SWIDTH 426 0
DWIDTH 4 0
BBX 0 0 0 0
BITMAP
ENDCHAR

STARTCHAR 025F
ENCODING 607
SWIDTH 426 0
DWIDTH 4 0
BBX 0 0 0 0
BITMAP
ENDCHAR

STARTCHAR 0260
ENCODING 608
SWIDTH 426 0
DWIDTH 4 0
BBX 0 0 0 0
BITMAP
ENDCHAR

STARTCHAR 0261
ENCODING 609
SWIDTH 426 0
DWIDTH 4 0
BBX 0 0 0 0
BITMAP
ENDCHAR

STARTCHAR 0262
ENCODING 610
SWIDTH 426 0
DWIDTH 4 0
BBX 0 0 0 0
BITMAP
ENDCHAR

STARTCHAR 0263
ENCODING 611
SWIDTH 426 0
DWIDTH 4 0
BBX 0 0 0 0
BITMAP
ENDCHAR

STARTCHAR 0264
ENCODING 612
SWIDTH 426 0
DWIDTH 4 0
BBX 0 0 0 0
BITMAP
ENDCHAR

STARTCHAR 0265
ENCODING 613
SWIDTH 426 0
DWIDTH 4 0
BBX 0 0 0 0
BITMAP
ENDCHAR

STARTCHAR 0266
ENCODING 614
SWIDTH 426 0
DWIDTH 4 0
BBX 0 0 0 0
BITMAP
ENDCHAR

STARTCHAR 0267
ENCODING 615
SWIDTH 426 0
DWIDTH 4 0
BBX 0 0 0 0
BITMAP
ENDCHAR

STARTCHAR 0268
ENCODING 616
SWIDTH 426 0
DWIDTH 4 0
BBX 0 0 0 0
BITMAP
ENDCHAR

STARTCHAR 0269
ENCODING 617
SWIDTH 426 0
DWIDTH 4 0
BBX 0 0 0 0
BITMAP
ENDCHAR

STARTCHAR 026A
ENCODING 618
SWIDTH 426 0
DWIDTH 4 0
BBX 0 0 0 0
BITMAP
ENDCHAR

STARTCHAR 026B
ENCODING 619
SWIDTH 426 0
DWIDTH 4 0
BBX 0 0 0 0
BITMAP
ENDCHAR

STARTCHAR 026C
ENCODING 620
SWIDTH 426 0
DWIDTH 4 0
BBX 0 0 0 0
BITMAP
ENDCHAR

STARTCHAR 026D
ENCODING 621
SWIDTH 426 0
DWIDTH 4 0
BBX 0 0 0 0
BITMAP
ENDCHAR

STARTCHAR 026E
ENCODING 622
SWIDTH 426 0
DWIDTH 4 0
BBX 0 0 0 0
BITMAP
ENDCHAR

STARTCHAR 026F
ENCODING 623
SWIDTH 426 0
DWIDTH 4 0
BBX 0 0 0 0
BITMAP
ENDCHAR

STARTCHAR 0270
ENCODING 624
SWIDTH 426 0
DWIDTH 4 0
BBX 0 0 0 0
BITMAP
ENDCHAR

STARTCHAR 0271
ENCODING 625
SWIDTH 426 0
DWIDTH 4 0
BBX 0 0 0 0
BITMAP
ENDCHAR

STARTCHAR 0272
ENCODING 626
SWIDTH 426 0
DWIDTH 4 0
BBX 0 0 0 0
BITMAP
ENDCHAR

STARTCHAR 0273
ENCODING 627
SWIDTH 426 0
DWIDTH 4 0
BBX 0 0 0 0
BITMAP
ENDCHAR

STARTCHAR 0274
ENCODING 628
SWIDTH 426 0
DWIDTH 4 0
BBX 0 0 0 0
BITMAP
ENDCHAR

STARTCHAR 0275
ENCODING 629
SWIDTH 426 0
DWIDTH 4 0
BBX 0 0 0 0
BITMAP
ENDCHAR

STARTCHAR 0276
ENCODING 630
SWIDTH 426 0
DWIDTH 4 0
BBX 0 0 0 0
BITMAP
ENDCHAR

STARTCHAR 0277
ENCODING 631
SWIDTH 426 0
DWIDTH 4 0
BBX 0 0 0 0
BITMAP
ENDCHAR

STARTCHAR 0278
ENCODING 632
SWIDTH 426 0
DWIDTH 4 0
BBX 0 0 0 0
BITMAP
ENDCHAR

STARTCHAR 0279
ENCODING 633
SWIDTH 426 0
DWIDTH 4 0
BBX 0 0 0 0
BITMAP
ENDCHAR

STARTCHAR 027A
ENCODING 634
SWIDTH 426 0
DWIDTH 4 0
BBX 0 0 0 0
BITMAP
ENDCHAR

STARTCHAR 027B
ENCODING 635
SWIDTH 426 0
DWIDTH 4 0
BBX 0 0 0 0
BITMAP
ENDCHAR

STARTCHAR 027C
ENCODING 636
SWIDTH 426 0
DWIDTH 4 0
BBX 0 0 0 0
BITMAP
ENDCHAR

STARTCHAR 027D
ENCODING 637
SWIDTH 426 0
DWIDTH 4 0
BBX 0 0 0 0
BITMAP
ENDCHAR

STARTCHAR 027E
ENCODING 638
SWIDTH 426 0
DWIDTH 4 0
BBX 0 0 0 0
BITMAP
ENDCHAR

STARTCHAR 027F
ENCODING 639
SWIDTH 426 0
DWIDTH 4 0
BBX 0 0 0 0
BITMAP
ENDCHAR

STARTCHAR 0280
ENCODING 640
SWIDTH 426 0
DWIDTH 4 0
BBX 0 0 0 0
BITMAP
ENDCHAR

STARTCHAR 0281
ENCODING 641
SWIDTH 426 0
DWIDTH 4 0
BBX 0 0 0 0
BITMAP
ENDCHAR

STARTCHAR 0282
ENCODING 642
SWIDTH 426 0
DWIDTH 4 0
BBX 0 0 0 0
BITMAP
ENDCHAR

STARTCHAR 0283
ENCODING 643
SWIDTH 426 0
DWIDTH 4 0
BBX 0 0 0 0
BITMAP
ENDCHAR

STARTCHAR 0284
ENCODING 644
SWIDTH 426 0
DWIDTH 4 0
BBX 0 0 0 0
BITMAP
ENDCHAR

STARTCHAR 0285
ENCODING 645
SWIDTH 426 0
DWIDTH 4 0
BBX 0 0 0 0
BITMAP
ENDCHAR

STARTCHAR 0286
ENCODING 646
SWIDTH 426 0
DWIDTH 4 0
BBX 0 0 0 0
BITMAP
ENDCHAR

STARTCHAR 0287
ENCODING 647
SWIDTH 426 0
DWIDTH 4 0
BBX 0 0 0 0
BITMAP
ENDCHAR

STARTCHAR 0288
ENCODING 648
SWIDTH 426 0
DWIDTH 4 0
BBX 0 0 0 0
BITMAP
ENDCHAR

STARTCHAR 0289
ENCODING 649
SWIDTH 426 0
DWIDTH 4 0
BBX 0 0 0 0
BITMAP
ENDCHAR

STARTCHAR 028A
ENCODING 650
SWIDTH 426 0
DWIDTH 4 0
BBX 0 0 0 0
BITMAP
ENDCHAR

STARTCHAR 028B
ENCODING 651
SWIDTH 426 0
DWIDTH 4 0
BBX 0 0 0 0
BITMAP
ENDCHAR

STARTCHAR 028C
ENCODING 652
SWIDTH 426 0
DWIDTH 4 0
BBX 0 0 0 0
BITMAP
ENDCHAR

STARTCHAR 028D
ENCODING 653
SWIDTH 426 0
DWIDTH 4 0
BBX 0 0 0 0
BITMAP
ENDCHAR

STARTCHAR 028E
ENCODING 654
SWIDTH 426 0
DWIDTH 4 0
BBX 0 0 0 0
BITMAP
ENDCHAR

STARTCHAR 028F
ENCODING 655
SWIDTH 426 0
DWIDTH 4 0
BBX 0 0 0 0
BITMAP
ENDCHAR

STARTCHAR 0290
ENCODING 656
SWIDTH 426 0
DWIDTH 4 0
BBX 0 0 0 0
BITMAP
ENDCHAR

STARTCHAR 0291
ENCODING 657
SWIDTH 426 0
DWIDTH 4 0
BBX 0 0 0 0
BITMAP
ENDCHAR

STARTCHAR 0292
ENCODING 658
SWIDTH 426 0
DWIDTH 4 0
BBX 0 0 0 0
BITMAP
ENDCHAR

STARTCHAR 0293
ENCODING 659
SWIDTH 426 0
DWIDTH 4 0
BBX 0 0 0 0
BITMAP
ENDCHAR

STARTCHAR 0294
ENCODING 660
SWIDTH 426 0
DWIDTH 4 0
BBX 0 0 0 0
BITMAP
ENDCHAR

STARTCHAR 0295
ENCODING 661
SWIDTH 426 0
DWIDTH 4 0
BBX 0 0 0 0
BITMAP
ENDCHAR

STARTCHAR 0296
ENCODING 662
SWIDTH 426 0
DWIDTH 4 0
BBX 0 0 0 0
BITMAP
ENDCHAR

STARTCHAR 0297
ENCODING 663
SWIDTH 426 0
DWIDTH 4 0
BBX 0 0 0 0
BITMAP
ENDCHAR

STARTCHAR 0298
ENCODING 664
SWIDTH 426 0
DWIDTH 4 0
BBX 0 0 0 0
BITMAP
ENDCHAR

STARTCHAR 0299
ENCODING 665
SWIDTH 426 0
DWIDTH 4 0
BBX 0 0 0 0
BITMAP
ENDCHAR

STARTCHAR 029A
ENCODING 666
SWIDTH 426 0
DWIDTH 4 0
BBX 0 0 0 0
BITMAP
ENDCHAR

STARTCHAR 029B
ENCODING 667
SWIDTH 426 0
DWIDTH 4 0
BBX 0 0 0 0
BITMAP
ENDCHAR

STARTCHAR 029C
ENCODING 668
SWIDTH 426 0
DWIDTH 4 0
BBX 0 0 0 0
BITMAP
ENDCHAR

STARTCHAR 029D
ENCODING 669
SWIDTH 426 0
DWIDTH 4 0
BBX 0 0 0 0
BITMAP
ENDCHAR

STARTCHAR 029E
ENCODING 670
SWIDTH 426 0
DWIDTH 4 0
BBX 0 0 0 0
BITMAP
ENDCHAR

STARTCHAR 029F
ENCODING 671
SWIDTH 426 0
DWIDTH 4 0
BBX 0 0 0 0
BITMAP
ENDCHAR

STARTCHAR 02A0
ENCODING 672
SWIDTH 426 0
DWIDTH 4 0
BBX 0 0 0 0
BITMAP
ENDCHAR

STARTCHAR 02A1
ENCODING 673
SWIDTH 426 0
DWIDTH 4 0
BBX 0 0 0 0
BITMAP
ENDCHAR

STARTCHAR 02A2
ENCODING 674
SWIDTH 426 0
DWIDTH 4 0
BBX 0 0 0 0
BITMAP
ENDCHAR

STARTCHAR 02A3
ENCODING 675
SWIDTH 426 0
DWIDTH 4 0
BBX 0 0 0 0
BITMAP
ENDCHAR

STARTCHAR 02A4
ENCODING 676
SWIDTH 426 0
DWIDTH 4 0
BBX 0 0 0 0
BITMAP
ENDCHAR

STARTCHAR 02A5
ENCODING 677
SWIDTH 426 0
DWIDTH 4 0
BBX 0 0 0 0
BITMAP
ENDCHAR

STARTCHAR 02A6
ENCODING 678
SWIDTH 426 0
DWIDTH 4 0
BBX 0 0 0 0
BITMAP
ENDCHAR

STARTCHAR 02A7
ENCODING 679
SWIDTH 426 0
DWIDTH 4 0
BBX 0 0 0 0
BITMAP
ENDCHAR

STARTCHAR 02A8
ENCODING 680
SWIDTH 426 0
DWIDTH 4 0
BBX 0 0 0 0
BITMAP
ENDCHAR

STARTCHAR 02C6
ENCODING 710
SWIDTH 426 0
DWIDTH 4 0
BBX 0 0 0 0
BITMAP
ENDCHAR

STARTCHAR 02C7
ENCODING 711
SWIDTH 426 0
DWIDTH 4 0
BBX 0 0 0 0
BITMAP
ENDCHAR

STARTCHAR 02C9
ENCODING 713
SWIDTH 426 0
DWIDTH 4 0
BBX 0 0 0 0
BITMAP
ENDCHAR

STARTCHAR 02D8
ENCODING 728
SWIDTH 426 0
DWIDTH 4 0
BBX 0 0 0 0
BITMAP
ENDCHAR

STARTCHAR 02D9
ENCODING 729
SWIDTH 426 0
DWIDTH 4 0
BBX 0 0 0 0
BITMAP
ENDCHAR

STARTCHAR 02DA
ENCODING 730
SWIDTH 426 0
DWIDTH 4 0
BBX 0 0 0 0
BITMAP
ENDCHAR

STARTCHAR 02DB
ENCODING 731
SWIDTH 426 0
DWIDTH 4 0
BBX 0 0 0 0
BITMAP
ENDCHAR

STARTCHAR 02DC
ENCODING 732
SWIDTH 426 0
DWIDTH 4 0
BBX 0 0 0 0
BITMAP
ENDCHAR

STARTCHAR 02DD
ENCODING 733
SWIDTH 426 0
DWIDTH 4 0
BBX 0 0 0 0
BITMAP
ENDCHAR

STARTCHAR 0391
ENCODING 913
SWIDTH 960 0
DWIDTH 9 0
BBX 6 7 2 0
BITMAP
20
50
50
90
88
F8
04
ENDCHAR

STARTCHAR 0392
ENCODING 914
SWIDTH 960 0
DWIDTH 9 0
BBX 6 7 2 0
BITMAP
F8
88
88
F0
98
84
F8
ENDCHAR

STARTCHAR 0393
ENCODING 915
SWIDTH 960 0
DWIDTH 9 0
BBX 5 7 2 0
BITMAP
F8
80
80
80
80
80
80
ENDCHAR

STARTCHAR 0394
ENCODING 916
SWIDTH 960 0
DWIDTH 9 0
BBX 5 7 2 0
BITMAP
20
50
50
90
88
88
F8
ENDCHAR

STARTCHAR 0395
ENCODING 917
SWIDTH 960 0
DWIDTH 9 0
BBX 5 7 2 0
BITMAP
F8
80
80
E0
80
80
F8
ENDCHAR

STARTCHAR 0396
ENCODING 918
SWIDTH 960 0
DWIDTH 9 0
BBX 6 7 2 0
BITMAP
F8
08
10
20
40
40
FC
ENDCHAR

STARTCHAR 0397
ENCODING 919
SWIDTH 960 0
DWIDTH 9 0
BBX 7 7 1 0
BITMAP
02
82
82
FE
82
82
82
ENDCHAR

STARTCHAR 0398
ENCODING 920
SWIDTH 960 0
DWIDTH 9 0
BBX 6 7 2 0
BITMAP
70
88
84
F4
84
88
F8
ENDCHAR

STARTCHAR 0399
ENCODING 921
SWIDTH 960 0
DWIDTH 9 0
BBX 1 7 4 0
BITMAP
80
80
80
80
80
80
80
ENDCHAR

STARTCHAR 039A
ENCODING 922
SWIDTH 960 0
DWIDTH 9 0
BBX 5 7 2 0
BITMAP
88
90
A0
E0
A0
90
88
ENDCHAR

STARTCHAR 039B
ENCODING 923
SWIDTH 960 0
DWIDTH 9 0
BBX 7 7 1 0
BITMAP
10
28
28
48
44
84
02
ENDCHAR

STARTCHAR 039C
ENCODING 924
SWIDTH 960 0
DWIDTH 9 0
BBX 8 7 0 0
BITMAP
C1
A1
A3
95
95
99
09
ENDCHAR

STARTCHAR 039D
ENCODING 925
SWIDTH 960 0
DWIDTH 9 0
BBX 6 7 1 0
BITMAP
C0
A4
94
94
8C
8C
04
ENDCHAR

STARTCHAR 039E
ENCODING 926
SWIDTH 960 0
DWIDTH 9 0
BBX 7 7 1 0
BITMAP
7E
80
00
7C
40
00
7E
ENDCHAR

STARTCHAR 039F
ENCODING 927
SWIDTH 960 0
DWIDTH 9 0
BBX 6 7 2 0
BITMAP
70
88
84
84
84
88
F8
ENDCHAR

STARTCHAR 03A0
ENCODING 928
SWIDTH 960 0
DWIDTH 9 0
BBX 5 7 2 0
BITMAP
F8
88
88
88
88
88
88
ENDCHAR

STARTCHAR 03A1
ENCODING 929
SWIDTH 960 0
DWIDTH 9 0
BBX 5 7 2 0
BITMAP
F8
88
88
F0
80
80
80
ENDCHAR

STARTCHAR 03A3
ENCODING 931
SWIDTH 960 0
DWIDTH 9 0
BBX 6 7 2 0
BITMAP
F0
40
20
10
20
C0
FC
ENDCHAR

STARTCHAR 03A4
ENCODING 932
SWIDTH 960 0
DWIDTH 9 0
BBX 7 7 1 0
BITMAP
FE
10
10
10
10
10
10
ENDCHAR

STARTCHAR 03A5
ENCODING 933
SWIDTH 960 0
DWIDTH 9 0
BBX 6 7 2 0
BITMAP
D8
24
20
20
20
20
20
ENDCHAR

STARTCHAR 03A6
ENCODING 934
SWIDTH 960 0
DWIDTH 9 0
BBX 7 7 1 0
BITMAP
10
7C
92
92
92
54
38
ENDCHAR

STARTCHAR 03A7
ENCODING 935
SWIDTH 960 0
DWIDTH 9 0
BBX 6 7 2 0
BITMAP
80
88
50
20
50
88
0C
ENDCHAR

STARTCHAR 03A8
ENCODING 936
SWIDTH 960 0
DWIDTH 9 0
BBX 7 7 1 0
BITMAP
10
92
92
54
54
38
10
ENDCHAR

STARTCHAR 03A9
ENCODING 937
SWIDTH 960 0
DWIDTH 9 0
BBX 7 7 1 0
BITMAP
38
44
84
82
84
44
CC
ENDCHAR

STARTCHAR 03AA
ENCODING 938
SWIDTH 426 0
DWIDTH 4 0
BBX 0 0 0 0
BITMAP
ENDCHAR

STARTCHAR 03AB
ENCODING 939
SWIDTH 426 0
DWIDTH 4 0
BBX 0 0 0 0
BITMAP
ENDCHAR

STARTCHAR 03AC
ENCODING 940
SWIDTH 426 0
DWIDTH 4 0
BBX 0 0 0 0
BITMAP
ENDCHAR

STARTCHAR 03AD
ENCODING 941
SWIDTH 426 0
DWIDTH 4 0
BBX 0 0 0 0
BITMAP
ENDCHAR

STARTCHAR 03AE
ENCODING 942
SWIDTH 426 0
DWIDTH 4 0
BBX 0 0 0 0
BITMAP
ENDCHAR

STARTCHAR 03AF
ENCODING 943
SWIDTH 426 0
DWIDTH 4 0
BBX 0 0 0 0
BITMAP
ENDCHAR

STARTCHAR 03B0
ENCODING 944
SWIDTH 426 0
DWIDTH 4 0
BBX 0 0 0 0
BITMAP
ENDCHAR

STARTCHAR 03B1
ENCODING 945
SWIDTH 960 0
DWIDTH 9 0
BBX 5 5 2 -1
BITMAP
60
B0
90
90
68
ENDCHAR

STARTCHAR 03B2
ENCODING 946
SWIDTH 960 0
DWIDTH 9 0
BBX 4 7 3 -1
BITMAP
70
90
90
A0
90
A0
C0
ENDCHAR

STARTCHAR 03B3
ENCODING 947
SWIDTH 960 0
DWIDTH 9 0
BBX 3 4 2 0
BITMAP
60
40
40
80
ENDCHAR

STARTCHAR 03B4
ENCODING 948
SWIDTH 960 0
DWIDTH 9 0
BBX 4 8 2 -1
BITMAP
C0
A0
50
A0
90
90
A0
40
ENDCHAR

STARTCHAR 03B5
ENCODING 949
SWIDTH 960 0
DWIDTH 9 0
BBX 3 4 3 -1
BITMAP
C0
80
80
E0
ENDCHAR

STARTCHAR 03B6
ENCODING 950
SWIDTH 960 0
DWIDTH 9 0
BBX 4 7 2 0
BITMAP
70
40
80
80
40
30
20
ENDCHAR

STARTCHAR 03B7
ENCODING 951
SWIDTH 960 0
DWIDTH 9 0
BBX 3 4 3 0
BITMAP
E0
A0
20
20
ENDCHAR

STARTCHAR 03B8
ENCODING 952
SWIDTH 960 0
DWIDTH 9 0
BBX 5 9 2 -1
BITMAP
10
68
48
88
F8
90
90
90
60
ENDCHAR

STARTCHAR 03B9
ENCODING 953
SWIDTH 960 0
DWIDTH 9 0
BBX 1 2 4 0
BITMAP
80
80
ENDCHAR

STARTCHAR 03BA
ENCODING 954
SWIDTH 960 0
DWIDTH 9 0
BBX 4 4 3 0
BITMAP
B0
C0
C0
A0
ENDCHAR

STARTCHAR 03BB
ENCODING 955
SWIDTH 960 0
DWIDTH 9 0
BBX 4 7 3 0
BITMAP
20
20
20
60
A0
A0
10
ENDCHAR

STARTCHAR 03BC
ENCODING 956
SWIDTH 960 0
DWIDTH 9 0
BBX 5 4 2 0
BITMAP
70
90
98
E0
ENDCHAR

STARTCHAR 03BD
ENCODING 957
SWIDTH 960 0
DWIDTH 9 0
BBX 3 4 4 0
BITMAP
A0
A0
C0
80
ENDCHAR

STARTCHAR 03BE
ENCODING 958
SWIDTH 960 0
DWIDTH 9 0
BBX 4 8 3 0
BITMAP
50
A0
80
60
C0
80
60
20
ENDCHAR

STARTCHAR 03BF
ENCODING 959
SWIDTH 960 0
DWIDTH 9 0
BBX 3 3 3 0
BITMAP
E0
A0
E0
ENDCHAR

STARTCHAR 03C0
ENCODING 960
SWIDTH 960 0
DWIDTH 9 0
BBX 5 5 2 -1
BITMAP
F8
60
60
A0
90
ENDCHAR

STARTCHAR 03C1
ENCODING 961
SWIDTH 960 0
DWIDTH 9 0
BBX 3 4 3 -1
BITMAP
E0
A0
A0
40
ENDCHAR

STARTCHAR 03C2
ENCODING 962
SWIDTH 426 0
DWIDTH 4 0
BBX 5 5 0 0
BITMAP
70
80
80
70
38
ENDCHAR

STARTCHAR 03C3
ENCODING 963
SWIDTH 960 0
DWIDTH 9 0
BBX 4 5 3 -1
BITMAP
30
E0
A0
A0
40
ENDCHAR

STARTCHAR 03C4
ENCODING 964
SWIDTH 960 0
DWIDTH 9 0
BBX 3 4 3 0
BITMAP
E0
80
80
60
ENDCHAR

STARTCHAR 03C5
ENCODING 965
SWIDTH 960 0
DWIDTH 9 0
BBX 4 5 3 -1
BITMAP
10
90
90
A0
40
ENDCHAR

STARTCHAR 03C6
ENCODING 966
SWIDTH 960 0
DWIDTH 9 0
BBX 4 6 3 -1
BITMAP
20
20
E0
D0
D0
E0
ENDCHAR

STARTCHAR 03C7
ENCODING 967
SWIDTH 960 0
DWIDTH 9 0
BBX 6 7 2 -1
BITMAP
04
28
10
20
60
60
98
ENDCHAR

STARTCHAR 03C8
ENCODING 968
SWIDTH 960 0
DWIDTH 9 0
BBX 5 6 2 -1
BITMAP
20
20
68
A8
B0
60
ENDCHAR

STARTCHAR 03C9
ENCODING 969
SWIDTH 960 0
DWIDTH 9 0
BBX 5 4 2 -1
BITMAP
20
A8
C8
30
ENDCHAR

STARTCHAR 03CA
ENCODING 970
SWIDTH 426 0
DWIDTH 4 0
BBX 0 0 0 0
BITMAP
ENDCHAR

STARTCHAR 03CB
ENCODING 971
SWIDTH 426 0
DWIDTH 4 0
BBX 0 0 0 0
BITMAP
ENDCHAR

STARTCHAR 03CC
ENCODING 972
SWIDTH 426 0
DWIDTH 4 0
BBX 0 0 0 0
BITMAP
ENDCHAR

STARTCHAR 03CD
ENCODING 973
SWIDTH 426 0
DWIDTH 4 0
BBX 0 0 0 0
BITMAP
ENDCHAR

STARTCHAR 03CE
ENCODING 974
SWIDTH 426 0
DWIDTH 4 0
BBX 0 0 0 0
BITMAP
ENDCHAR

STARTCHAR 0401
ENCODING 1025
SWIDTH 960 0
DWIDTH 9 0
BBX 5 8 2 0
BITMAP
10
E8
80
80
E0
80
80
F8
ENDCHAR

STARTCHAR 0402
ENCODING 1026
SWIDTH 426 0
DWIDTH 4 0
BBX 0 0 0 0
BITMAP
ENDCHAR

STARTCHAR 0403
ENCODING 1027
SWIDTH 426 0
DWIDTH 4 0
BBX 0 0 0 0
BITMAP
ENDCHAR

STARTCHAR 0404
ENCODING 1028
SWIDTH 426 0
DWIDTH 4 0
BBX 0 0 0 0
BITMAP
ENDCHAR

STARTCHAR 0405
ENCODING 1029
SWIDTH 426 0
DWIDTH 4 0
BBX 0 0 0 0
BITMAP
ENDCHAR

STARTCHAR 0406
ENCODING 1030
SWIDTH 426 0
DWIDTH 4 0
BBX 0 0 0 0
BITMAP
ENDCHAR

STARTCHAR 0407
ENCODING 1031
SWIDTH 426 0
DWIDTH 4 0
BBX 0 0 0 0
BITMAP
ENDCHAR

STARTCHAR 0408
ENCODING 1032
SWIDTH 426 0
DWIDTH 4 0
BBX 0 0 0 0
BITMAP
ENDCHAR

STARTCHAR 0409
ENCODING 1033
SWIDTH 426 0
DWIDTH 4 0
BBX 0 0 0 0
BITMAP
ENDCHAR

STARTCHAR 040A
ENCODING 1034
SWIDTH 426 0
DWIDTH 4 0
BBX 0 0 0 0
BITMAP
ENDCHAR

STARTCHAR 040B
ENCODING 1035
SWIDTH 426 0
DWIDTH 4 0
BBX 0 0 0 0
BITMAP
ENDCHAR

STARTCHAR 040C
ENCODING 1036
SWIDTH 426 0
DWIDTH 4 0
BBX 0 0 0 0
BITMAP
ENDCHAR

STARTCHAR 040E
ENCODING 1038
SWIDTH 426 0
DWIDTH 4 0
BBX 0 0 0 0
BITMAP
ENDCHAR

STARTCHAR 040F
ENCODING 1039
SWIDTH 426 0
DWIDTH 4 0
BBX 0 0 0 0
BITMAP
ENDCHAR

STARTCHAR 0410
ENCODING 1040
SWIDTH 960 0
DWIDTH 9 0
BBX 6 7 2 0
BITMAP
20
50
50
90
88
F8
04
ENDCHAR

STARTCHAR 0411
ENCODING 1041
SWIDTH 960 0
DWIDTH 9 0
BBX 6 7 2 0
BITMAP
F8
80
80
E0
98
84
F8
ENDCHAR

STARTCHAR 0412
ENCODING 1042
SWIDTH 960 0
DWIDTH 9 0
BBX 6 7 2 0
BITMAP
F8
88
88
F0
98
84
F8
ENDCHAR

STARTCHAR 0413
ENCODING 1043
SWIDTH 960 0
DWIDTH 9 0
BBX 5 7 2 0
BITMAP
F8
80
80
80
80
80
80
ENDCHAR

STARTCHAR 0414
ENCODING 1044
SWIDTH 960 0
DWIDTH 9 0
BBX 6 8 2 -1
BITMAP
F8
88
88
88
88
88
88
74
ENDCHAR

STARTCHAR 0415
ENCODING 1045
SWIDTH 960 0
DWIDTH 9 0
BBX 5 7 2 0
BITMAP
F8
80
80
E0
80
80
F8
ENDCHAR

STARTCHAR 0416
ENCODING 1046
SWIDTH 960 0
DWIDTH 9 0
BBX 9 7 0 0
BITMAP
8880
4900
4900
3E00
2A00
4900
4900
ENDCHAR

STARTCHAR 0417
ENCODING 1047
SWIDTH 960 0
DWIDTH 9 0
BBX 5 7 2 0
BITMAP
F0
88
10
20
18
88
F0
ENDCHAR

STARTCHAR 0418
ENCODING 1048
SWIDTH 960 0
DWIDTH 9 0
BBX 7 7 1 0
BITMAP
02
86
8A
92
A2
C2
82
ENDCHAR

STARTCHAR 0419
ENCODING 1049
SWIDTH 960 0
DWIDTH 9 0
BBX 7 8 1 0
BITMAP
28
12
86
8A
92
A2
C2
82
ENDCHAR

STARTCHAR 041A
ENCODING 1050
SWIDTH 960 0
DWIDTH 9 0
BBX 6 7 2 0
BITMAP
84
98
90
E0
A0
90
88
ENDCHAR

STARTCHAR 041B
ENCODING 1051
SWIDTH 960 0
DWIDTH 9 0
BBX 6 7 1 0
BITMAP
3C
44
44
44
44
44
C4
ENDCHAR

STARTCHAR 041C
ENCODING 1052
SWIDTH 960 0
DWIDTH 9 0
BBX 7 7 1 0
BITMAP
46
CA
AA
AA
AA
92
12
ENDCHAR

STARTCHAR 041D
ENCODING 1053
SWIDTH 960 0
DWIDTH 9 0
BBX 7 7 1 0
BITMAP
02
82
82
FE
82
82
82
ENDCHAR

STARTCHAR 041E
ENCODING 1054
SWIDTH 960 0
DWIDTH 9 0
BBX 6 7 2 0
BITMAP
70
88
84
84
84
88
F8
ENDCHAR

STARTCHAR 041F
ENCODING 1055
SWIDTH 960 0
DWIDTH 9 0
BBX 7 7 1 0
BITMAP
FE
82
82
82
82
82
82
ENDCHAR

STARTCHAR 0420
ENCODING 1056
SWIDTH 960 0
DWIDTH 9 0
BBX 5 7 2 0
BITMAP
F8
88
88
F0
80
80
80
ENDCHAR

STARTCHAR 0421
ENCODING 1057
SWIDTH 960 0
DWIDTH 9 0
BBX 5 7 2 0
BITMAP
78
80
80
80
80
80
F0
ENDCHAR

STARTCHAR 0422
ENCODING 1058
SWIDTH 960 0
DWIDTH 9 0
BBX 7 7 1 0
BITMAP
FE
10
10
10
10
10
10
ENDCHAR

STARTCHAR 0423
ENCODING 1059
SWIDTH 960 0
DWIDTH 9 0
BBX 5 7 2 0
BITMAP
80
58
50
30
30
20
E0
ENDCHAR

STARTCHAR 0424
ENCODING 1060
SWIDTH 960 0
DWIDTH 9 0
BBX 7 7 1 0
BITMAP
10
7C
92
92
92
54
38
ENDCHAR

STARTCHAR 0425
ENCODING 1061
SWIDTH 960 0
DWIDTH 9 0
BBX 6 7 2 0
BITMAP
80
88
50
20
50
88
0C
ENDCHAR

STARTCHAR 0426
ENCODING 1062
SWIDTH 960 0
DWIDTH 9 0
BBX 8 8 1 -1
BITMAP
02
82
82
82
82
82
82
7D
ENDCHAR

STARTCHAR 0427
ENCODING 1063
SWIDTH 960 0
DWIDTH 9 0
BBX 5 7 2 0
BITMAP
88
88
88
88
58
28
08
ENDCHAR

STARTCHAR 0428
ENCODING 1064
SWIDTH 960 0
DWIDTH 9 0
BBX 7 7 1 0
BITMAP
92
92
92
92
92
92
FE
ENDCHAR

STARTCHAR 0429
ENCODING 1065
SWIDTH 960 0
DWIDTH 9 0
BBX 8 8 1 -1
BITMAP
92
92
92
92
92
92
92
6D
ENDCHAR

STARTCHAR 042A
ENCODING 1066
SWIDTH 960 0
DWIDTH 9 0
BBX 6 7 2 0
BITMAP
C0
40
78
44
44
44
78
ENDCHAR

STARTCHAR 042B
ENCODING 1067
SWIDTH 960 0
DWIDTH 9 0
BBX 6 7 2 0
BITMAP
84
84
E4
94
94
94
F4
ENDCHAR

STARTCHAR 042C
ENCODING 1068
SWIDTH 960 0
DWIDTH 9 0
BBX 5 7 2 0
BITMAP
40
40
70
48
48
48
F0
ENDCHAR

STARTCHAR 042D
ENCODING 1069
SWIDTH 960 0
DWIDTH 9 0
BBX 6 7 2 0
BITMAP
F0
08
08
64
18
08
F8
ENDCHAR

STARTCHAR 042E
ENCODING 1070
SWIDTH 960 0
DWIDTH 9 0
BBX 8 7 1 0
BITMAP
9C
A2
C2
C1
C1
A2
BC
ENDCHAR

STARTCHAR 042F
ENCODING 1071
SWIDTH 960 0
DWIDTH 9 0
BBX 5 7 2 -1
BITMAP
F8
88
88
48
78
48
88
ENDCHAR

STARTCHAR 0430
ENCODING 1072
SWIDTH 960 0
DWIDTH 9 0
BBX 4 5 3 0
BITMAP
E0
10
70
90
F0
ENDCHAR

STARTCHAR 0431
ENCODING 1073
SWIDTH 960 0
DWIDTH 9 0
BBX 5 7 2 1
BITMAP
30
C0
F0
88
88
88
70
ENDCHAR

STARTCHAR 0432
ENCODING 1074
SWIDTH 960 0
DWIDTH 9 0
BBX 5 5 2 0
BITMAP
78
88
70
88
78
ENDCHAR

STARTCHAR 0433
ENCODING 1075
SWIDTH 960 0
DWIDTH 9 0
BBX 5 5 2 0
BITMAP
F8
80
80
80
80
ENDCHAR

STARTCHAR 0434
ENCODING 1076
SWIDTH 960 0
DWIDTH 9 0
BBX 4 6 2 -1
BITMAP
70
90
90
90
90
E0
ENDCHAR

STARTCHAR 0435
ENCODING 1077
SWIDTH 960 0
DWIDTH 9 0
BBX 4 6 3 -1
BITMAP
E0
90
F0
80
90
60
ENDCHAR

STARTCHAR 0436
ENCODING 1078
SWIDTH 960 0
DWIDTH 9 0
BBX 7 5 1 0
BITMAP
12
94
54
7C
56
ENDCHAR

STARTCHAR 0437
ENCODING 1079
SWIDTH 960 0
DWIDTH 9 0
BBX 3 5 3 0
BITMAP
E0
20
C0
60
E0
ENDCHAR

STARTCHAR 0438
ENCODING 1080
SWIDTH 960 0
DWIDTH 9 0
BBX 5 5 2 0
BITMAP
88
98
A8
C8
88
ENDCHAR

STARTCHAR 0439
ENCODING 1081
SWIDTH 960 0
DWIDTH 9 0
BBX 5 6 2 0
BITMAP
10
A8
98
A8
C8
88
ENDCHAR

STARTCHAR 043A
ENCODING 1082
SWIDTH 960 0
DWIDTH 9 0
BBX 5 5 2 0
BITMAP
08
90
60
A0
98
ENDCHAR

STARTCHAR 043B
ENCODING 1083
SWIDTH 960 0
DWIDTH 9 0
BBX 4 5 2 0
BITMAP
70
50
50
50
D0
ENDCHAR

STARTCHAR 043C
ENCODING 1084
SWIDTH 960 0
DWIDTH 9 0
BBX 7 5 1 0
BITMAP
42
CE
AA
B2
12
ENDCHAR

STARTCHAR 043D
ENCODING 1085
SWIDTH 960 0
DWIDTH 9 0
BBX 5 5 2 0
BITMAP
88
88
88
F8
88
ENDCHAR

STARTCHAR 043E
ENCODING 1086
SWIDTH 960 0
DWIDTH 9 0
BBX 5 5 2 0
BITMAP
70
88
88
88
70
ENDCHAR

STARTCHAR 043F
ENCODING 1087
SWIDTH 960 0
DWIDTH 9 0
BBX 5 5 2 0
BITMAP
F8
88
88
88
88
ENDCHAR

STARTCHAR 0440
ENCODING 1088
SWIDTH 960 0
DWIDTH 9 0
BBX 5 6 2 -1
BITMAP
F0
48
48
48
50
60
ENDCHAR

STARTCHAR 0441
ENCODING 1089
SWIDTH 960 0
DWIDTH 9 0
BBX 4 6 3 -1
BITMAP
F0
80
80
80
90
60
ENDCHAR

STARTCHAR 0442
ENCODING 1090
SWIDTH 960 0
DWIDTH 9 0
BBX 5 5 2 0
BITMAP
F8
20
20
20
20
ENDCHAR

STARTCHAR 0443
ENCODING 1091
SWIDTH 960 0
DWIDTH 9 0
BBX 5 6 2 -1
BITMAP
C8
50
30
10
20
60
ENDCHAR

STARTCHAR 0444
ENCODING 1092
SWIDTH 960 0
DWIDTH 9 0
BBX 5 7 2 -1
BITMAP
20
20
F8
A8
A8
70
20
ENDCHAR

STARTCHAR 0445
ENCODING 1093
SWIDTH 960 0
DWIDTH 9 0
BBX 5 4 2 1
BITMAP
58
20
50
88
ENDCHAR

STARTCHAR 0446
ENCODING 1094
SWIDTH 960 0
DWIDTH 9 0
BBX 6 6 2 -1
BITMAP
88
88
88
88
88
74
ENDCHAR

STARTCHAR 0447
ENCODING 1095
SWIDTH 960 0
DWIDTH 9 0
BBX 3 5 3 0
BITMAP
A0
A0
A0
60
20
ENDCHAR

STARTCHAR 0448
ENCODING 1096
SWIDTH 960 0
DWIDTH 9 0
BBX 7 5 1 0
BITMAP
12
92
92
92
FE
ENDCHAR

STARTCHAR 0449
ENCODING 1097
SWIDTH 960 0
DWIDTH 9 0
BBX 7 6 1 -1
BITMAP
12
92
92
92
92
6C
ENDCHAR

STARTCHAR 044A
ENCODING 1098
SWIDTH 960 0
DWIDTH 9 0
BBX 4 5 3 0
BITMAP
C0
40
70
50
70
ENDCHAR

STARTCHAR 044B
ENCODING 1099
SWIDTH 960 0
DWIDTH 9 0
BBX 5 5 2 0
BITMAP
08
A8
D8
98
F8
ENDCHAR

STARTCHAR 044C
ENCODING 1100
SWIDTH 960 0
DWIDTH 9 0
BBX 3 5 3 0
BITMAP
80
80
E0
A0
E0
ENDCHAR

STARTCHAR 044D
ENCODING 1101
SWIDTH 960 0
DWIDTH 9 0
BBX 5 5 2 0
BITMAP
B0
08
28
18
F0
ENDCHAR

STARTCHAR 044E
ENCODING 1102
SWIDTH 960 0
DWIDTH 9 0
BBX 7 5 1 0
BITMAP
9C
A2
A2
E2
BC
ENDCHAR

STARTCHAR 044F
ENCODING 1103
SWIDTH 960 0
DWIDTH 9 0
BBX 5 5 2 0
BITMAP
F8
88
48
78
88
ENDCHAR

STARTCHAR 0451
ENCODING 1105
SWIDTH 960 0
DWIDTH 9 0
BBX 4 7 3 -1
BITMAP
80
E0
90
F0
80
90
60
ENDCHAR

STARTCHAR 1E80
ENCODING 7808
SWIDTH 426 0
DWIDTH 4 0
BBX 0 0 0 0
BITMAP
ENDCHAR

STARTCHAR 1E81
ENCODING 7809
SWIDTH 426 0
DWIDTH 4 0
BBX 0 0 0 0
BITMAP
ENDCHAR

STARTCHAR 1E82
ENCODING 7810
SWIDTH 426 0
DWIDTH 4 0
BBX 0 0 0 0
BITMAP
ENDCHAR

STARTCHAR 1E83
ENCODING 7811
SWIDTH 426 0
DWIDTH 4 0
BBX 0 0 0 0
BITMAP
ENDCHAR

STARTCHAR 1E84
ENCODING 7812
SWIDTH 426 0
DWIDTH 4 0
BBX 0 0 0 0
BITMAP
ENDCHAR

STARTCHAR 1E85
ENCODING 7813
SWIDTH 426 0
DWIDTH 4 0
BBX 0 0 0 0
BITMAP
ENDCHAR

STARTCHAR 1EF2
ENCODING 7922
SWIDTH 426 0
DWIDTH 4 0
BBX 0 0 0 0
BITMAP
ENDCHAR

STARTCHAR 1EF3
ENCODING 7923
SWIDTH 426 0
DWIDTH 4 0
BBX 0 0 0 0
BITMAP
ENDCHAR

STARTCHAR 2000
ENCODING 8192
SWIDTH 426 0
DWIDTH 4 0
BBX 0 0 0 0
BITMAP
ENDCHAR

STARTCHAR 2001
ENCODING 8193
SWIDTH 960 0
DWIDTH 9 0
BBX 0 0 0 0
BITMAP
ENDCHAR

STARTCHAR 2002
ENCODING 8194
SWIDTH 426 0
DWIDTH 4 0
BBX 0 0 0 0
BITMAP
ENDCHAR

STARTCHAR 2003
ENCODING 8195
SWIDTH 960 0
DWIDTH 9 0
BBX 0 0 0 0
BITMAP
ENDCHAR

STARTCHAR 2004
ENCODING 8196
SWIDTH 426 0
DWIDTH 4 0
BBX 0 0 0 0
BITMAP
ENDCHAR

STARTCHAR 2005
ENCODING 8197
SWIDTH 426 0
DWIDTH 4 0
BBX 0 0 0 0
BITMAP
ENDCHAR

STARTCHAR 2006
ENCODING 8198
SWIDTH 426 0
DWIDTH 4 0
BBX 0 0 0 0
BITMAP
ENDCHAR

STARTCHAR 2007
ENCODING 8199
SWIDTH 426 0
DWIDTH 4 0
BBX 0 0 0 0
BITMAP
ENDCHAR

STARTCHAR 2008
ENCODING 8200
SWIDTH 426 0
DWIDTH 4 0
BBX 0 0 0 0
BITMAP
ENDCHAR

STARTCHAR 2009
ENCODING 8201
SWIDTH 426 0
DWIDTH 4 0
BBX 0 0 0 0
BITMAP
ENDCHAR

STARTCHAR 200A
ENCODING 8202
SWIDTH 426 0
DWIDTH 4 0
BBX 0 0 0 0
BITMAP
ENDCHAR

STARTCHAR 200B
ENCODING 8203
SWIDTH 426 0
DWIDTH 4 0
BBX 0 0 0 0
BITMAP
ENDCHAR

STARTCHAR 200C
ENCODING 8204
SWIDTH 426 0
DWIDTH 4 0
BBX 0 0 0 0
BITMAP
ENDCHAR

STARTCHAR 200D
ENCODING 8205
SWIDTH 426 0
DWIDTH 4 0
BBX 0 0 0 0
BITMAP
ENDCHAR

STARTCHAR 200E
ENCODING 8206
SWIDTH 426 0
DWIDTH 4 0
BBX 0 0 0 0
BITMAP
ENDCHAR

STARTCHAR 200F
ENCODING 8207
SWIDTH 426 0
DWIDTH 4 0
BBX 0 0 0 0
BITMAP
ENDCHAR

STARTCHAR 2010
ENCODING 8208
SWIDTH 960 0
DWIDTH 9 0
BBX 3 1 3 3
BITMAP
E0
ENDCHAR

STARTCHAR 2011
ENCODING 8209
SWIDTH 426 0
DWIDTH 4 0
BBX 0 0 0 0
BITMAP
ENDCHAR

STARTCHAR 2012
ENCODING 8210
SWIDTH 426 0
DWIDTH 4 0
BBX 0 0 0 0
BITMAP
ENDCHAR

STARTCHAR 2013
ENCODING 8211
SWIDTH 426 0
DWIDTH 4 0
BBX 0 0 0 0
BITMAP
ENDCHAR

STARTCHAR 2014
ENCODING 8212
SWIDTH 426 0
DWIDTH 4 0
BBX 0 0 0 0
BITMAP
ENDCHAR

STARTCHAR 2015
ENCODING 8213
SWIDTH 960 0
DWIDTH 9 0
BBX 7 1 1 3
BITMAP
FE
ENDCHAR

STARTCHAR 2016
ENCODING 8214
SWIDTH 960 0
DWIDTH 9 0
BBX 2 7 4 0
BITMAP
C0
C0
C0
C0
C0
C0
C0
ENDCHAR

STARTCHAR 2017
ENCODING 8215
SWIDTH 426 0
DWIDTH 4 0
BBX 0 0 0 0
BITMAP
ENDCHAR

STARTCHAR 2018
ENCODING 8216
SWIDTH 960 0
DWIDTH 9 0
BBX 1 1 7 7
BITMAP
80
ENDCHAR

STARTCHAR 2019
ENCODING 8217
SWIDTH 960 0
DWIDTH 9 0
BBX 1 2 1 5
BITMAP
80
80
ENDCHAR

STARTCHAR 201A
ENCODING 8218
SWIDTH 426 0
DWIDTH 4 0
BBX 0 0 0 0
BITMAP
ENDCHAR

STARTCHAR 201B
ENCODING 8219
SWIDTH 426 0
DWIDTH 4 0
BBX 0 0 0 0
BITMAP
ENDCHAR

STARTCHAR 201C
ENCODING 8220
SWIDTH 960 0
DWIDTH 9 0
BBX 2 1 6 7
BITMAP
C0
ENDCHAR

STARTCHAR 201D
ENCODING 8221
SWIDTH 960 0
DWIDTH 9 0
BBX 3 2 1 6
BITMAP
A0
A0
ENDCHAR

STARTCHAR 201E
ENCODING 8222
SWIDTH 426 0
DWIDTH 4 0
BBX 0 0 0 0
BITMAP
ENDCHAR

STARTCHAR 201F
ENCODING 8223
SWIDTH 426 0
DWIDTH 4 0
BBX 0 0 0 0
BITMAP
ENDCHAR

STARTCHAR 2020
ENCODING 8224
SWIDTH 960 0
DWIDTH 9 0
BBX 3 8 3 -1
BITMAP
40
40
E0
40
40
40
40
40
ENDCHAR

STARTCHAR 2021
ENCODING 8225
SWIDTH 960 0
DWIDTH 9 0
BBX 4 8 2 -1
BITMAP
20
F0
20
20
20
20
70
20
ENDCHAR

STARTCHAR 2022
ENCODING 8226
SWIDTH 426 0
DWIDTH 4 0
BBX 0 0 0 0
BITMAP
ENDCHAR

STARTCHAR 2023
ENCODING 8227
SWIDTH 426 0
DWIDTH 4 0
BBX 0 0 0 0
BITMAP
ENDCHAR

STARTCHAR 2024
ENCODING 8228
SWIDTH 426 0
DWIDTH 4 0
BBX 0 0 0 0
BITMAP
ENDCHAR

STARTCHAR 2025
ENCODING 8229
SWIDTH 960 0
DWIDTH 9 0
BBX 6 1 2 3
BITMAP
84
ENDCHAR

STARTCHAR 2026
ENCODING 8230
SWIDTH 960 0
DWIDTH 9 0
BBX 7 1 1 3
BITMAP
92
ENDCHAR

STARTCHAR 2027
ENCODING 8231
SWIDTH 426 0
DWIDTH 4 0
BBX 0 0 0 0
BITMAP
ENDCHAR

STARTCHAR 2028
ENCODING 8232
SWIDTH 426 0
DWIDTH 4 0
BBX 0 0 0 0
BITMAP
ENDCHAR

STARTCHAR 2029
ENCODING 8233
SWIDTH 426 0
DWIDTH 4 0
BBX 0 0 0 0
BITMAP
ENDCHAR

STARTCHAR 202A
ENCODING 8234
SWIDTH 426 0
DWIDTH 4 0
BBX 0 0 0 0
BITMAP
ENDCHAR

STARTCHAR 202B
ENCODING 8235
SWIDTH 426 0
DWIDTH 4 0
BBX 0 0 0 0
BITMAP
ENDCHAR

STARTCHAR 202C
ENCODING 8236
SWIDTH 426 0
DWIDTH 4 0
BBX 0 0 0 0
BITMAP
ENDCHAR

STARTCHAR 202D
ENCODING 8237
SWIDTH 426 0
DWIDTH 4 0
BBX 0 0 0 0
BITMAP
ENDCHAR

STARTCHAR 202E
ENCODING 8238
SWIDTH 426 0
DWIDTH 4 0
BBX 0 0 0 0
BITMAP
ENDCHAR

STARTCHAR 2030
ENCODING 8240
SWIDTH 960 0
DWIDTH 9 0
BBX 9 8 0 0
BITMAP
C800
B000
B000
6000
2D80
5680
5680
8900
ENDCHAR

STARTCHAR 2031
ENCODING 8241
SWIDTH 426 0
DWIDTH 4 0
BBX 0 0 0 0
BITMAP
ENDCHAR

STARTCHAR 2032
ENCODING 8242
SWIDTH 960 0
DWIDTH 9 0
BBX 1 3 1 5
BITMAP
80
80
80
ENDCHAR

STARTCHAR 2033
ENCODING 8243
SWIDTH 960 0
DWIDTH 9 0
BBX 3 3 1 5
BITMAP
A0
C0
40
ENDCHAR

STARTCHAR 2034
ENCODING 8244
SWIDTH 426 0
DWIDTH 4 0
BBX 0 0 0 0
BITMAP
ENDCHAR

STARTCHAR 2035
ENCODING 8245
SWIDTH 426 0
DWIDTH 4 0
BBX 0 0 0 0
BITMAP
ENDCHAR

STARTCHAR 2036
ENCODING 8246
SWIDTH 426 0
DWIDTH 4 0
BBX 0 0 0 0
BITMAP
ENDCHAR

STARTCHAR 2037
ENCODING 8247
SWIDTH 426 0
DWIDTH 4 0
BBX 0 0 0 0
BITMAP
ENDCHAR

STARTCHAR 2038
ENCODING 8248
SWIDTH 426 0
DWIDTH 4 0
BBX 0 0 0 0
BITMAP
ENDCHAR

STARTCHAR 2039
ENCODING 8249
SWIDTH 426 0
DWIDTH 4 0
BBX 0 0 0 0
BITMAP
ENDCHAR

STARTCHAR 203A
ENCODING 8250
SWIDTH 426 0
DWIDTH 4 0
BBX 0 0 0 0
BITMAP
ENDCHAR

STARTCHAR 203B
ENCODING 8251
SWIDTH 960 0
DWIDTH 9 0
BBX 7 7 1 0
BITMAP
92
44
28
92
28
44
92
ENDCHAR

STARTCHAR 203C
ENCODING 8252
SWIDTH 426 0
DWIDTH 4 0
BBX 0 0 0 0
BITMAP
ENDCHAR

STARTCHAR 203D
ENCODING 8253
SWIDTH 426 0
DWIDTH 4 0
BBX 0 0 0 0
BITMAP
ENDCHAR

STARTCHAR 203E
ENCODING 8254
SWIDTH 426 0
DWIDTH 4 0
BBX 0 0 0 0
BITMAP
ENDCHAR

STARTCHAR 203F
ENCODING 8255
SWIDTH 426 0
DWIDTH 4 0
BBX 0 0 0 0
BITMAP
ENDCHAR

STARTCHAR 2040
ENCODING 8256
SWIDTH 426 0
DWIDTH 4 0
BBX 0 0 0 0
BITMAP
ENDCHAR

STARTCHAR 2041
ENCODING 8257
SWIDTH 426 0
DWIDTH 4 0
BBX 0 0 0 0
BITMAP
ENDCHAR

STARTCHAR 2042
ENCODING 8258
SWIDTH 426 0
DWIDTH 4 0
BBX 0 0 0 0
BITMAP
ENDCHAR

STARTCHAR 2043
ENCODING 8259
SWIDTH 426 0
DWIDTH 4 0
BBX 0 0 0 0
BITMAP
ENDCHAR

STARTCHAR 2044
ENCODING 8260
SWIDTH 426 0
DWIDTH 4 0
BBX 0 0 0 0
BITMAP
ENDCHAR

STARTCHAR 2045
ENCODING 8261
SWIDTH 426 0
DWIDTH 4 0
BBX 0 0 0 0
BITMAP
ENDCHAR

STARTCHAR 2046
ENCODING 8262
SWIDTH 426 0
DWIDTH 4 0
BBX 0 0 0 0
BITMAP
ENDCHAR

STARTCHAR 2070
ENCODING 8304
SWIDTH 426 0
DWIDTH 4 0
BBX 0 0 0 0
BITMAP
ENDCHAR

STARTCHAR 2074
ENCODING 8308
SWIDTH 426 0
DWIDTH 4 0
BBX 0 0 0 0
BITMAP
ENDCHAR

STARTCHAR 2075
ENCODING 8309
SWIDTH 426 0
DWIDTH 4 0
BBX 0 0 0 0
BITMAP
ENDCHAR

STARTCHAR 2076
ENCODING 8310
SWIDTH 426 0
DWIDTH 4 0
BBX 0 0 0 0
BITMAP
ENDCHAR

STARTCHAR 2077
ENCODING 8311
SWIDTH 426 0
DWIDTH 4 0
BBX 0 0 0 0
BITMAP
ENDCHAR

STARTCHAR 2078
ENCODING 8312
SWIDTH 426 0
DWIDTH 4 0
BBX 0 0 0 0
BITMAP
ENDCHAR

STARTCHAR 2079
ENCODING 8313
SWIDTH 426 0
DWIDTH 4 0
BBX 0 0 0 0
BITMAP
ENDCHAR

STARTCHAR 207A
ENCODING 8314
SWIDTH 426 0
DWIDTH 4 0
BBX 0 0 0 0
BITMAP
ENDCHAR

STARTCHAR 207B
ENCODING 8315
SWIDTH 426 0
DWIDTH 4 0
BBX 0 0 0 0
BITMAP
ENDCHAR

STARTCHAR 207C
ENCODING 8316
SWIDTH 426 0
DWIDTH 4 0
BBX 0 0 0 0
BITMAP
ENDCHAR

STARTCHAR 207D
ENCODING 8317
SWIDTH 426 0
DWIDTH 4 0
BBX 0 0 0 0
BITMAP
ENDCHAR

STARTCHAR 207E
ENCODING 8318
SWIDTH 426 0
DWIDTH 4 0
BBX 0 0 0 0
BITMAP
ENDCHAR

STARTCHAR 207F
ENCODING 8319
SWIDTH 426 0
DWIDTH 4 0
BBX 0 0 0 0
BITMAP
ENDCHAR

STARTCHAR 2080
ENCODING 8320
SWIDTH 426 0
DWIDTH 4 0
BBX 0 0 0 0
BITMAP
ENDCHAR

STARTCHAR 2081
ENCODING 8321
SWIDTH 426 0
DWIDTH 4 0
BBX 0 0 0 0
BITMAP
ENDCHAR

STARTCHAR 2082
ENCODING 8322
SWIDTH 426 0
DWIDTH 4 0
BBX 0 0 0 0
BITMAP
ENDCHAR

STARTCHAR 2083
ENCODING 8323
SWIDTH 426 0
DWIDTH 4 0
BBX 0 0 0 0
BITMAP
ENDCHAR

STARTCHAR 2084
ENCODING 8324
SWIDTH 426 0
DWIDTH 4 0
BBX 0 0 0 0
BITMAP
ENDCHAR

STARTCHAR 2085
ENCODING 8325
SWIDTH 426 0
DWIDTH 4 0
BBX 0 0 0 0
BITMAP
ENDCHAR

STARTCHAR 2086
ENCODING 8326
SWIDTH 426 0
DWIDTH 4 0
BBX 0 0 0 0
BITMAP
ENDCHAR

STARTCHAR 2087
ENCODING 8327
SWIDTH 426 0
DWIDTH 4 0
BBX 0 0 0 0
BITMAP
ENDCHAR

STARTCHAR 2088
ENCODING 8328
SWIDTH 426 0
DWIDTH 4 0
BBX 0 0 0 0
BITMAP
ENDCHAR

STARTCHAR 2089
ENCODING 8329
SWIDTH 426 0
DWIDTH 4 0
BBX 0 0 0 0
BITMAP
ENDCHAR

STARTCHAR 208A
ENCODING 8330
SWIDTH 426 0
DWIDTH 4 0
BBX 0 0 0 0
BITMAP
ENDCHAR

STARTCHAR 208B
ENCODING 8331
SWIDTH 426 0
DWIDTH 4 0
BBX 0 0 0 0
BITMAP
ENDCHAR

STARTCHAR 208C
ENCODING 8332
SWIDTH 426 0
DWIDTH 4 0
BBX 0 0 0 0
BITMAP
ENDCHAR

STARTCHAR 208D
ENCODING 8333
SWIDTH 426 0
DWIDTH 4 0
BBX 0 0 0 0
BITMAP
ENDCHAR

STARTCHAR 208E
ENCODING 8334
SWIDTH 426 0
DWIDTH 4 0
BBX 0 0 0 0
BITMAP
ENDCHAR

STARTCHAR 20A0
ENCODING 8352
SWIDTH 426 0
DWIDTH 4 0
BBX 0 0 0 0
BITMAP
ENDCHAR

STARTCHAR 20A1
ENCODING 8353
SWIDTH 426 0
DWIDTH 4 0
BBX 0 0 0 0
BITMAP
ENDCHAR

STARTCHAR 20A2
ENCODING 8354
SWIDTH 426 0
DWIDTH 4 0
BBX 0 0 0 0
BITMAP
ENDCHAR

STARTCHAR 20A3
ENCODING 8355
SWIDTH 426 0
DWIDTH 4 0
BBX 0 0 0 0
BITMAP
ENDCHAR

STARTCHAR 20A4
ENCODING 8356
SWIDTH 426 0
DWIDTH 4 0
BBX 0 0 0 0
BITMAP
ENDCHAR

STARTCHAR 20A5
ENCODING 8357
SWIDTH 426 0
DWIDTH 4 0
BBX 0 0 0 0
BITMAP
ENDCHAR

STARTCHAR 20A6
ENCODING 8358
SWIDTH 426 0
DWIDTH 4 0
BBX 0 0 0 0
BITMAP
ENDCHAR

STARTCHAR 20A7
ENCODING 8359
SWIDTH 426 0
DWIDTH 4 0
BBX 0 0 0 0
BITMAP
ENDCHAR

STARTCHAR 20A8
ENCODING 8360
SWIDTH 426 0
DWIDTH 4 0
BBX 0 0 0 0
BITMAP
ENDCHAR

STARTCHAR 20A9
ENCODING 8361
SWIDTH 426 0
DWIDTH 4 0
BBX 0 0 0 0
BITMAP
ENDCHAR

STARTCHAR 20AA
ENCODING 8362
SWIDTH 426 0
DWIDTH 4 0
BBX 0 0 0 0
BITMAP
ENDCHAR

STARTCHAR 2100
ENCODING 8448
SWIDTH 426 0
DWIDTH 4 0
BBX 0 0 0 0
BITMAP
ENDCHAR

STARTCHAR 2101
ENCODING 8449
SWIDTH 426 0
DWIDTH 4 0
BBX 0 0 0 0
BITMAP
ENDCHAR

STARTCHAR 2102
ENCODING 8450
SWIDTH 426 0
DWIDTH 4 0
BBX 0 0 0 0
BITMAP
ENDCHAR

STARTCHAR 2103
ENCODING 8451
SWIDTH 960 0
DWIDTH 9 0
BBX 7 7 1 0
BITMAP
9C
A2
40
40
40
22
1C
ENDCHAR

STARTCHAR 2104
ENCODING 8452
SWIDTH 426 0
DWIDTH 4 0
BBX 0 0 0 0
BITMAP
ENDCHAR

STARTCHAR 2105
ENCODING 8453
SWIDTH 426 0
DWIDTH 4 0
BBX 0 0 0 0
BITMAP
ENDCHAR

STARTCHAR 2106
ENCODING 8454
SWIDTH 426 0
DWIDTH 4 0
BBX 0 0 0 0
BITMAP
ENDCHAR

STARTCHAR 2107
ENCODING 8455
SWIDTH 426 0
DWIDTH 4 0
BBX 0 0 0 0
BITMAP
ENDCHAR

STARTCHAR 2108
ENCODING 8456
SWIDTH 426 0
DWIDTH 4 0
BBX 0 0 0 0
BITMAP
ENDCHAR

STARTCHAR 2109
ENCODING 8457
SWIDTH 426 0
DWIDTH 4 0
BBX 0 0 0 0
BITMAP
ENDCHAR

STARTCHAR 210A
ENCODING 8458
SWIDTH 426 0
DWIDTH 4 0
BBX 0 0 0 0
BITMAP
ENDCHAR

STARTCHAR 210B
ENCODING 8459
SWIDTH 426 0
DWIDTH 4 0
BBX 0 0 0 0
BITMAP
ENDCHAR

STARTCHAR 210C
ENCODING 8460
SWIDTH 426 0
DWIDTH 4 0
BBX 0 0 0 0
BITMAP
ENDCHAR

STARTCHAR 210D
ENCODING 8461
SWIDTH 426 0
DWIDTH 4 0
BBX 0 0 0 0
BITMAP
ENDCHAR

STARTCHAR 210E
ENCODING 8462
SWIDTH 426 0
DWIDTH 4 0
BBX 0 0 0 0
BITMAP
ENDCHAR

STARTCHAR 210F
ENCODING 8463
SWIDTH 426 0
DWIDTH 4 0
BBX 0 0 0 0
BITMAP
ENDCHAR

STARTCHAR 2110
ENCODING 8464
SWIDTH 426 0
DWIDTH 4 0
BBX 0 0 0 0
BITMAP
ENDCHAR

STARTCHAR 2111
ENCODING 8465
SWIDTH 426 0
DWIDTH 4 0
BBX 0 0 0 0
BITMAP
ENDCHAR

STARTCHAR 2112
ENCODING 8466
SWIDTH 426 0
DWIDTH 4 0
BBX 0 0 0 0
BITMAP
ENDCHAR

STARTCHAR 2113
ENCODING 8467
SWIDTH 426 0
DWIDTH 4 0
BBX 0 0 0 0
BITMAP
ENDCHAR

STARTCHAR 2114
ENCODING 8468
SWIDTH 426 0
DWIDTH 4 0
BBX 0 0 0 0
BITMAP
ENDCHAR

STARTCHAR 2115
ENCODING 8469
SWIDTH 426 0
DWIDTH 4 0
BBX 0 0 0 0
BITMAP
ENDCHAR

STARTCHAR 2116
ENCODING 8470
SWIDTH 960 0
DWIDTH 9 0
BBX 9 7 0 0
BITMAP
1800
5000
B000
B700
9500
9500
4680
ENDCHAR

STARTCHAR 2117
ENCODING 8471
SWIDTH 426 0
DWIDTH 4 0
BBX 0 0 0 0
BITMAP
ENDCHAR

STARTCHAR 2118
ENCODING 8472
SWIDTH 426 0
DWIDTH 4 0
BBX 0 0 0 0
BITMAP
ENDCHAR

STARTCHAR 2119
ENCODING 8473
SWIDTH 426 0
DWIDTH 4 0
BBX 0 0 0 0
BITMAP
ENDCHAR

STARTCHAR 211A
ENCODING 8474
SWIDTH 426 0
DWIDTH 4 0
BBX 0 0 0 0
BITMAP
ENDCHAR

STARTCHAR 211B
ENCODING 8475
SWIDTH 426 0
DWIDTH 4 0
BBX 0 0 0 0
BITMAP
ENDCHAR

STARTCHAR 211C
ENCODING 8476
SWIDTH 426 0
DWIDTH 4 0
BBX 0 0 0 0
BITMAP
ENDCHAR

STARTCHAR 211D
ENCODING 8477
SWIDTH 426 0
DWIDTH 4 0
BBX 0 0 0 0
BITMAP
ENDCHAR

STARTCHAR 211E
ENCODING 8478
SWIDTH 426 0
DWIDTH 4 0
BBX 0 0 0 0
BITMAP
ENDCHAR

STARTCHAR 211F
ENCODING 8479
SWIDTH 426 0
DWIDTH 4 0
BBX 0 0 0 0
BITMAP
ENDCHAR

STARTCHAR 2120
ENCODING 8480
SWIDTH 426 0
DWIDTH 4 0
BBX 0 0 0 0
BITMAP
ENDCHAR

STARTCHAR 2121
ENCODING 8481
SWIDTH 960 0
DWIDTH 9 0
BBX 9 7 0 0
BITMAP
F000
A800
2000
2A00
2E00
2A00
2D80
ENDCHAR

STARTCHAR 2122
ENCODING 8482
SWIDTH 426 0
DWIDTH 4 0
BBX 0 0 0 0
BITMAP
ENDCHAR

STARTCHAR 2123
ENCODING 8483
SWIDTH 426 0
DWIDTH 4 0
BBX 0 0 0 0
BITMAP
ENDCHAR

STARTCHAR 2124
ENCODING 8484
SWIDTH 426 0
DWIDTH 4 0
BBX 0 0 0 0
BITMAP
ENDCHAR

STARTCHAR 2125
ENCODING 8485
SWIDTH 426 0
DWIDTH 4 0
BBX 0 0 0 0
BITMAP
ENDCHAR

STARTCHAR 2126
ENCODING 8486
SWIDTH 426 0
DWIDTH 4 0
BBX 0 0 0 0
BITMAP
ENDCHAR

STARTCHAR 2127
ENCODING 8487
SWIDTH 426 0
DWIDTH 4 0
BBX 0 0 0 0
BITMAP
ENDCHAR

STARTCHAR 2128
ENCODING 8488
SWIDTH 426 0
DWIDTH 4 0
BBX 0 0 0 0
BITMAP
ENDCHAR

STARTCHAR 2129
ENCODING 8489
SWIDTH 426 0
DWIDTH 4 0
BBX 0 0 0 0
BITMAP
ENDCHAR

STARTCHAR 212A
ENCODING 8490
SWIDTH 426 0
DWIDTH 4 0
BBX 0 0 0 0
BITMAP
ENDCHAR

STARTCHAR 212B
ENCODING 8491
SWIDTH 960 0
DWIDTH 9 0
BBX 6 8 2 0
BITMAP
20
60
20
60
50
70
88
8C
ENDCHAR

STARTCHAR 212C
ENCODING 8492
SWIDTH 426 0
DWIDTH 4 0
BBX 0 0 0 0
BITMAP
ENDCHAR

STARTCHAR 212D
ENCODING 8493
SWIDTH 426 0
DWIDTH 4 0
BBX 0 0 0 0
BITMAP
ENDCHAR

STARTCHAR 212E
ENCODING 8494
SWIDTH 426 0
DWIDTH 4 0
BBX 0 0 0 0
BITMAP
ENDCHAR

STARTCHAR 212F
ENCODING 8495
SWIDTH 426 0
DWIDTH 4 0
BBX 0 0 0 0
BITMAP
ENDCHAR

STARTCHAR 2130
ENCODING 8496
SWIDTH 426 0
DWIDTH 4 0
BBX 0 0 0 0
BITMAP
ENDCHAR

STARTCHAR 2131
ENCODING 8497
SWIDTH 426 0
DWIDTH 4 0
BBX 0 0 0 0
BITMAP
ENDCHAR

STARTCHAR 2132
ENCODING 8498
SWIDTH 426 0
DWIDTH 4 0
BBX 0 0 0 0
BITMAP
ENDCHAR

STARTCHAR 2133
ENCODING 8499
SWIDTH 426 0
DWIDTH 4 0
BBX 0 0 0 0
BITMAP
ENDCHAR

STARTCHAR 2134
ENCODING 8500
SWIDTH 426 0
DWIDTH 4 0
BBX 0 0 0 0
BITMAP
ENDCHAR

STARTCHAR 2135
ENCODING 8501
SWIDTH 426 0
DWIDTH 4 0
BBX 0 0 0 0
BITMAP
ENDCHAR

STARTCHAR 2136
ENCODING 8502
SWIDTH 426 0
DWIDTH 4 0
BBX 0 0 0 0
BITMAP
ENDCHAR

STARTCHAR 2137
ENCODING 8503
SWIDTH 426 0
DWIDTH 4 0
BBX 0 0 0 0
BITMAP
ENDCHAR

STARTCHAR 2138
ENCODING 8504
SWIDTH 426 0
DWIDTH 4 0
BBX 0 0 0 0
BITMAP
ENDCHAR

STARTCHAR 2153
ENCODING 8531
SWIDTH 426 0
DWIDTH 4 0
BBX 0 0 0 0
BITMAP
ENDCHAR

STARTCHAR 2154
ENCODING 8532
SWIDTH 426 0
DWIDTH 4 0
BBX 0 0 0 0
BITMAP
ENDCHAR

STARTCHAR 2155
ENCODING 8533
SWIDTH 426 0
DWIDTH 4 0
BBX 0 0 0 0
BITMAP
ENDCHAR

STARTCHAR 2156
ENCODING 8534
SWIDTH 426 0
DWIDTH 4 0
BBX 0 0 0 0
BITMAP
ENDCHAR

STARTCHAR 2157
ENCODING 8535
SWIDTH 426 0
DWIDTH 4 0
BBX 0 0 0 0
BITMAP
ENDCHAR

STARTCHAR 2158
ENCODING 8536
SWIDTH 426 0
DWIDTH 4 0
BBX 0 0 0 0
BITMAP
ENDCHAR

STARTCHAR 2159
ENCODING 8537
SWIDTH 426 0
DWIDTH 4 0
BBX 0 0 0 0
BITMAP
ENDCHAR

STARTCHAR 215A
ENCODING 8538
SWIDTH 426 0
DWIDTH 4 0
BBX 0 0 0 0
BITMAP
ENDCHAR

STARTCHAR 215B
ENCODING 8539
SWIDTH 426 0
DWIDTH 4 0
BBX 0 0 0 0
BITMAP
ENDCHAR

STARTCHAR 215C
ENCODING 8540
SWIDTH 426 0
DWIDTH 4 0
BBX 0 0 0 0
BITMAP
ENDCHAR

STARTCHAR 215D
ENCODING 8541
SWIDTH 426 0
DWIDTH 4 0
BBX 0 0 0 0
BITMAP
ENDCHAR

STARTCHAR 215E
ENCODING 8542
SWIDTH 426 0
DWIDTH 4 0
BBX 0 0 0 0
BITMAP
ENDCHAR

STARTCHAR 215F
ENCODING 8543
SWIDTH 426 0
DWIDTH 4 0
BBX 0 0 0 0
BITMAP
ENDCHAR

STARTCHAR 2160
ENCODING 8544
SWIDTH 960 0
DWIDTH 9 0
BBX 1 7 4 0
BITMAP
80
80
80
80
80
80
80
ENDCHAR

STARTCHAR 2161
ENCODING 8545
SWIDTH 960 0
DWIDTH 9 0
BBX 4 7 3 0
BITMAP
F0
A0
A0
A0
A0
A0
F0
ENDCHAR

STARTCHAR 2162
ENCODING 8546
SWIDTH 960 0
DWIDTH 9 0
BBX 6 7 2 0
BITMAP
FC
A8
A8
A8
A8
A8
FC
ENDCHAR

STARTCHAR 2163
ENCODING 8547
SWIDTH 960 0
DWIDTH 9 0
BBX 6 7 2 0
BITMAP
E0
A4
94
98
98
88
88
ENDCHAR

STARTCHAR 2164
ENCODING 8548
SWIDTH 960 0
DWIDTH 9 0
BBX 6 7 2 0
BITMAP
84
88
48
50
30
20
20
ENDCHAR

STARTCHAR 2165
ENCODING 8549
SWIDTH 960 0
DWIDTH 9 0
BBX 7 7 1 0
BITMAP
9E
92
52
62
62
22
22
ENDCHAR

STARTCHAR 2166
ENCODING 8550
SWIDTH 960 0
DWIDTH 9 0
BBX 0 0 0 0
BITMAP
ENDCHAR

STARTCHAR 2167
ENCODING 8551
SWIDTH 960 0
DWIDTH 9 0
BBX 0 0 0 0
BITMAP
ENDCHAR

STARTCHAR 2168
ENCODING 8552
SWIDTH 960 0
DWIDTH 9 0
BBX 0 0 0 0
BITMAP
ENDCHAR

STARTCHAR 2169
ENCODING 8553
SWIDTH 960 0
DWIDTH 9 0
BBX 6 7 2 0
BITMAP
88
50
30
20
50
88
84
ENDCHAR

STARTCHAR 216A
ENCODING 8554
SWIDTH 960 0
DWIDTH 9 0
BBX 0 0 0 0
BITMAP
ENDCHAR

STARTCHAR 216B
ENCODING 8555
SWIDTH 960 0
DWIDTH 9 0
BBX 0 0 0 0
BITMAP
ENDCHAR

STARTCHAR 216C
ENCODING 8556
SWIDTH 960 0
DWIDTH 9 0
BBX 0 0 0 0
BITMAP
ENDCHAR

STARTCHAR 216D
ENCODING 8557
SWIDTH 960 0
DWIDTH 9 0
BBX 0 0 0 0
BITMAP
ENDCHAR

STARTCHAR 216E
ENCODING 8558
SWIDTH 960 0
DWIDTH 9 0
BBX 0 0 0 0
BITMAP
ENDCHAR

STARTCHAR 216F
ENCODING 8559
SWIDTH 960 0
DWIDTH 9 0
BBX 0 0 0 0
BITMAP
ENDCHAR

STARTCHAR 2170
ENCODING 8560
SWIDTH 960 0
DWIDTH 9 0
BBX 1 7 4 0
BITMAP
80
00
80
80
80
80
80
ENDCHAR

STARTCHAR 2171
ENCODING 8561
SWIDTH 960 0
DWIDTH 9 0
BBX 4 7 3 0
BITMAP
A0
00
A0
A0
A0
A0
F0
ENDCHAR

STARTCHAR 2172
ENCODING 8562
SWIDTH 960 0
DWIDTH 9 0
BBX 6 7 1 0
BITMAP
54
00
D4
54
54
54
7C
ENDCHAR

STARTCHAR 2173
ENCODING 8563
SWIDTH 960 0
DWIDTH 9 0
BBX 0 0 0 0
BITMAP
ENDCHAR

STARTCHAR 2174
ENCODING 8564
SWIDTH 960 0
DWIDTH 9 0
BBX 0 0 0 0
BITMAP
ENDCHAR

STARTCHAR 2175
ENCODING 8565
SWIDTH 960 0
DWIDTH 9 0
BBX 0 0 0 0
BITMAP
ENDCHAR

STARTCHAR 2176
ENCODING 8566
SWIDTH 960 0
DWIDTH 9 0
BBX 0 0 0 0
BITMAP
ENDCHAR

STARTCHAR 2177
ENCODING 8567
SWIDTH 960 0
DWIDTH 9 0
BBX 0 0 0 0
BITMAP
ENDCHAR

STARTCHAR 2178
ENCODING 8568
SWIDTH 960 0
DWIDTH 9 0
BBX 0 0 0 0
BITMAP
ENDCHAR

STARTCHAR 2179
ENCODING 8569
SWIDTH 960 0
DWIDTH 9 0
BBX 0 0 0 0
BITMAP
ENDCHAR

STARTCHAR 217A
ENCODING 8570
SWIDTH 960 0
DWIDTH 9 0
BBX 0 0 0 0
BITMAP
ENDCHAR

STARTCHAR 217B
ENCODING 8571
SWIDTH 960 0
DWIDTH 9 0
BBX 0 0 0 0
BITMAP
ENDCHAR

STARTCHAR 217C
ENCODING 8572
SWIDTH 960 0
DWIDTH 9 0
BBX 0 0 0 0
BITMAP
ENDCHAR

STARTCHAR 217D
ENCODING 8573
SWIDTH 960 0
DWIDTH 9 0
BBX 0 0 0 0
BITMAP
ENDCHAR

STARTCHAR 217E
ENCODING 8574
SWIDTH 960 0
DWIDTH 9 0
BBX 0 0 0 0
BITMAP
ENDCHAR

STARTCHAR 217F
ENCODING 8575
SWIDTH 960 0
DWIDTH 9 0
BBX 0 0 0 0
BITMAP
ENDCHAR

STARTCHAR 2180
ENCODING 8576
SWIDTH 960 0
DWIDTH 9 0
BBX 0 0 0 0
BITMAP
ENDCHAR

STARTCHAR 2181
ENCODING 8577
SWIDTH 960 0
DWIDTH 9 0
BBX 0 0 0 0
BITMAP
ENDCHAR

STARTCHAR 2182
ENCODING 8578
SWIDTH 960 0
DWIDTH 9 0
BBX 0 0 0 0
BITMAP
ENDCHAR

STARTCHAR 2190
ENCODING 8592
SWIDTH 960 0
DWIDTH 9 0
BBX 8 3 1 2
BITMAP
80
FF
80
ENDCHAR

STARTCHAR 2191
ENCODING 8593
SWIDTH 960 0
DWIDTH 9 0
BBX 2 8 4 0
BITMAP
C0
80
80
80
80
80
80
80
ENDCHAR

STARTCHAR 2192
ENCODING 8594
SWIDTH 960 0
DWIDTH 9 0
BBX 8 3 1 2
BITMAP
02
FF
02
ENDCHAR

STARTCHAR 2193
ENCODING 8595
SWIDTH 960 0
DWIDTH 9 0
BBX 3 8 3 -1
BITMAP
40
40
40
40
40
40
E0
40
ENDCHAR

STARTCHAR 2194
ENCODING 8596
SWIDTH 426 0
DWIDTH 4 0
BBX 0 0 0 0
BITMAP
ENDCHAR

STARTCHAR 2195
ENCODING 8597
SWIDTH 426 0
DWIDTH 4 0
BBX 0 0 0 0
BITMAP
ENDCHAR

STARTCHAR 2196
ENCODING 8598
SWIDTH 426 0
DWIDTH 4 0
BBX 0 0 0 0
BITMAP
ENDCHAR

STARTCHAR 2197
ENCODING 8599
SWIDTH 426 0
DWIDTH 4 0
BBX 0 0 0 0
BITMAP
ENDCHAR

STARTCHAR 2198
ENCODING 8600
SWIDTH 426 0
DWIDTH 4 0
BBX 0 0 0 0
BITMAP
ENDCHAR

STARTCHAR 2199
ENCODING 8601
SWIDTH 426 0
DWIDTH 4 0
BBX 0 0 0 0
BITMAP
ENDCHAR

STARTCHAR 219A
ENCODING 8602
SWIDTH 426 0
DWIDTH 4 0
BBX 0 0 0 0
BITMAP
ENDCHAR

STARTCHAR 219B
ENCODING 8603
SWIDTH 426 0
DWIDTH 4 0
BBX 0 0 0 0
BITMAP
ENDCHAR

STARTCHAR 219C
ENCODING 8604
SWIDTH 426 0
DWIDTH 4 0
BBX 0 0 0 0
BITMAP
ENDCHAR

STARTCHAR 219D
ENCODING 8605
SWIDTH 426 0
DWIDTH 4 0
BBX 0 0 0 0
BITMAP
ENDCHAR

STARTCHAR 219E
ENCODING 8606
SWIDTH 426 0
DWIDTH 4 0
BBX 0 0 0 0
BITMAP
ENDCHAR

STARTCHAR 219F
ENCODING 8607
SWIDTH 426 0
DWIDTH 4 0
BBX 0 0 0 0
BITMAP
ENDCHAR

STARTCHAR 21A0
ENCODING 8608
SWIDTH 426 0
DWIDTH 4 0
BBX 0 0 0 0
BITMAP
ENDCHAR

STARTCHAR 21A1
ENCODING 8609
SWIDTH 426 0
DWIDTH 4 0
BBX 0 0 0 0
BITMAP
ENDCHAR

STARTCHAR 21A2
ENCODING 8610
SWIDTH 426 0
DWIDTH 4 0
BBX 0 0 0 0
BITMAP
ENDCHAR

STARTCHAR 21A3
ENCODING 8611
SWIDTH 426 0
DWIDTH 4 0
BBX 0 0 0 0
BITMAP
ENDCHAR

STARTCHAR 21A4
ENCODING 8612
SWIDTH 426 0
DWIDTH 4 0
BBX 0 0 0 0
BITMAP
ENDCHAR

STARTCHAR 21A5
ENCODING 8613
SWIDTH 426 0
DWIDTH 4 0
BBX 0 0 0 0
BITMAP
ENDCHAR

STARTCHAR 21A6
ENCODING 8614
SWIDTH 426 0
DWIDTH 4 0
BBX 0 0 0 0
BITMAP
ENDCHAR

STARTCHAR 21A7
ENCODING 8615
SWIDTH 426 0
DWIDTH 4 0
BBX 0 0 0 0
BITMAP
ENDCHAR

STARTCHAR 21A8
ENCODING 8616
SWIDTH 426 0
DWIDTH 4 0
BBX 0 0 0 0
BITMAP
ENDCHAR

STARTCHAR 21A9
ENCODING 8617
SWIDTH 426 0
DWIDTH 4 0
BBX 0 0 0 0
BITMAP
ENDCHAR

STARTCHAR 21AA
ENCODING 8618
SWIDTH 426 0
DWIDTH 4 0
BBX 0 0 0 0
BITMAP
ENDCHAR

STARTCHAR 21AB
ENCODING 8619
SWIDTH 426 0
DWIDTH 4 0
BBX 0 0 0 0
BITMAP
ENDCHAR

STARTCHAR 21AC
ENCODING 8620
SWIDTH 426 0
DWIDTH 4 0
BBX 0 0 0 0
BITMAP
ENDCHAR

STARTCHAR 21AD
ENCODING 8621
SWIDTH 426 0
DWIDTH 4 0
BBX 0 0 0 0
BITMAP
ENDCHAR

STARTCHAR 21AE
ENCODING 8622
SWIDTH 426 0
DWIDTH 4 0
BBX 0 0 0 0
BITMAP
ENDCHAR

STARTCHAR 21AF
ENCODING 8623
SWIDTH 426 0
DWIDTH 4 0
BBX 0 0 0 0
BITMAP
ENDCHAR

STARTCHAR 21B0
ENCODING 8624
SWIDTH 426 0
DWIDTH 4 0
BBX 0 0 0 0
BITMAP
ENDCHAR

STARTCHAR 21B1
ENCODING 8625
SWIDTH 426 0
DWIDTH 4 0
BBX 0 0 0 0
BITMAP
ENDCHAR

STARTCHAR 21B2
ENCODING 8626
SWIDTH 426 0
DWIDTH 4 0
BBX 0 0 0 0
BITMAP
ENDCHAR

STARTCHAR 21B3
ENCODING 8627
SWIDTH 426 0
DWIDTH 4 0
BBX 0 0 0 0
BITMAP
ENDCHAR

STARTCHAR 21B4
ENCODING 8628
SWIDTH 426 0
DWIDTH 4 0
BBX 0 0 0 0
BITMAP
ENDCHAR

STARTCHAR 21B5
ENCODING 8629
SWIDTH 426 0
DWIDTH 4 0
BBX 0 0 0 0
BITMAP
ENDCHAR

STARTCHAR 21B6
ENCODING 8630
SWIDTH 426 0
DWIDTH 4 0
BBX 0 0 0 0
BITMAP
ENDCHAR

STARTCHAR 21B7
ENCODING 8631
SWIDTH 426 0
DWIDTH 4 0
BBX 0 0 0 0
BITMAP
ENDCHAR

STARTCHAR 21B8
ENCODING 8632
SWIDTH 426 0
DWIDTH 4 0
BBX 0 0 0 0
BITMAP
ENDCHAR

STARTCHAR 21B9
ENCODING 8633
SWIDTH 426 0
DWIDTH 4 0
BBX 0 0 0 0
BITMAP
ENDCHAR

STARTCHAR 21BA
ENCODING 8634
SWIDTH 426 0
DWIDTH 4 0
BBX 0 0 0 0
BITMAP
ENDCHAR

STARTCHAR 21BB
ENCODING 8635
SWIDTH 426 0
DWIDTH 4 0
BBX 0 0 0 0
BITMAP
ENDCHAR

STARTCHAR 21BC
ENCODING 8636
SWIDTH 426 0
DWIDTH 4 0
BBX 0 0 0 0
BITMAP
ENDCHAR

STARTCHAR 21BD
ENCODING 8637
SWIDTH 426 0
DWIDTH 4 0
BBX 0 0 0 0
BITMAP
ENDCHAR

STARTCHAR 21BE
ENCODING 8638
SWIDTH 426 0
DWIDTH 4 0
BBX 0 0 0 0
BITMAP
ENDCHAR

STARTCHAR 21BF
ENCODING 8639
SWIDTH 426 0
DWIDTH 4 0
BBX 0 0 0 0
BITMAP
ENDCHAR

STARTCHAR 21C0
ENCODING 8640
SWIDTH 426 0
DWIDTH 4 0
BBX 0 0 0 0
BITMAP
ENDCHAR

STARTCHAR 21C1
ENCODING 8641
SWIDTH 426 0
DWIDTH 4 0
BBX 0 0 0 0
BITMAP
ENDCHAR

STARTCHAR 21C2
ENCODING 8642
SWIDTH 426 0
DWIDTH 4 0
BBX 0 0 0 0
BITMAP
ENDCHAR

STARTCHAR 21C3
ENCODING 8643
SWIDTH 426 0
DWIDTH 4 0
BBX 0 0 0 0
BITMAP
ENDCHAR

STARTCHAR 21C4
ENCODING 8644
SWIDTH 426 0
DWIDTH 4 0
BBX 0 0 0 0
BITMAP
ENDCHAR

STARTCHAR 21C5
ENCODING 8645
SWIDTH 426 0
DWIDTH 4 0
BBX 0 0 0 0
BITMAP
ENDCHAR

STARTCHAR 21C6
ENCODING 8646
SWIDTH 426 0
DWIDTH 4 0
BBX 0 0 0 0
BITMAP
ENDCHAR

STARTCHAR 21C7
ENCODING 8647
SWIDTH 426 0
DWIDTH 4 0
BBX 0 0 0 0
BITMAP
ENDCHAR

STARTCHAR 21C8
ENCODING 8648
SWIDTH 426 0
DWIDTH 4 0
BBX 0 0 0 0
BITMAP
ENDCHAR

STARTCHAR 21C9
ENCODING 8649
SWIDTH 426 0
DWIDTH 4 0
BBX 0 0 0 0
BITMAP
ENDCHAR

STARTCHAR 21CA
ENCODING 8650
SWIDTH 426 0
DWIDTH 4 0
BBX 0 0 0 0
BITMAP
ENDCHAR

STARTCHAR 21CB
ENCODING 8651
SWIDTH 426 0
DWIDTH 4 0
BBX 0 0 0 0
BITMAP
ENDCHAR

STARTCHAR 21CC
ENCODING 8652
SWIDTH 426 0
DWIDTH 4 0
BBX 0 0 0 0
BITMAP
ENDCHAR

STARTCHAR 21CD
ENCODING 8653
SWIDTH 426 0
DWIDTH 4 0
BBX 0 0 0 0
BITMAP
ENDCHAR

STARTCHAR 21CE
ENCODING 8654
SWIDTH 426 0
DWIDTH 4 0
BBX 0 0 0 0
BITMAP
ENDCHAR

STARTCHAR 21CF
ENCODING 8655
SWIDTH 426 0
DWIDTH 4 0
BBX 0 0 0 0
BITMAP
ENDCHAR

STARTCHAR 21D0
ENCODING 8656
SWIDTH 426 0
DWIDTH 4 0
BBX 0 0 0 0
BITMAP
ENDCHAR

STARTCHAR 21D1
ENCODING 8657
SWIDTH 426 0
DWIDTH 4 0
BBX 0 0 0 0
BITMAP
ENDCHAR

STARTCHAR 21D2
ENCODING 8658
SWIDTH 960 0
DWIDTH 9 0
BBX 9 3 0 2
BITMAP
0100
7E80
FF00
ENDCHAR

STARTCHAR 21D3
ENCODING 8659
SWIDTH 426 0
DWIDTH 4 0
BBX 0 0 0 0
BITMAP
ENDCHAR

STARTCHAR 21D4
ENCODING 8660
SWIDTH 960 0
DWIDTH 9 0
BBX 9 5 0 1
BITMAP
2000
4100
BE80
7F00
2000
ENDCHAR

STARTCHAR 21D5
ENCODING 8661
SWIDTH 426 0
DWIDTH 4 0
BBX 0 0 0 0
BITMAP
ENDCHAR

STARTCHAR 21D6
ENCODING 8662
SWIDTH 426 0
DWIDTH 4 0
BBX 0 0 0 0
BITMAP
ENDCHAR

STARTCHAR 21D7
ENCODING 8663
SWIDTH 426 0
DWIDTH 4 0
BBX 0 0 0 0
BITMAP
ENDCHAR

STARTCHAR 21D8
ENCODING 8664
SWIDTH 426 0
DWIDTH 4 0
BBX 0 0 0 0
BITMAP
ENDCHAR

STARTCHAR 21D9
ENCODING 8665
SWIDTH 426 0
DWIDTH 4 0
BBX 0 0 0 0
BITMAP
ENDCHAR

STARTCHAR 21DA
ENCODING 8666
SWIDTH 426 0
DWIDTH 4 0
BBX 0 0 0 0
BITMAP
ENDCHAR

STARTCHAR 21DB
ENCODING 8667
SWIDTH 426 0
DWIDTH 4 0
BBX 0 0 0 0
BITMAP
ENDCHAR

STARTCHAR 21DC
ENCODING 8668
SWIDTH 426 0
DWIDTH 4 0
BBX 0 0 0 0
BITMAP
ENDCHAR

STARTCHAR 21DD
ENCODING 8669
SWIDTH 426 0
DWIDTH 4 0
BBX 0 0 0 0
BITMAP
ENDCHAR

STARTCHAR 21DE
ENCODING 8670
SWIDTH 426 0
DWIDTH 4 0
BBX 0 0 0 0
BITMAP
ENDCHAR

STARTCHAR 21DF
ENCODING 8671
SWIDTH 426 0
DWIDTH 4 0
BBX 0 0 0 0
BITMAP
ENDCHAR

STARTCHAR 21E0
ENCODING 8672
SWIDTH 426 0
DWIDTH 4 0
BBX 0 0 0 0
BITMAP
ENDCHAR

STARTCHAR 21E1
ENCODING 8673
SWIDTH 426 0
DWIDTH 4 0
BBX 0 0 0 0
BITMAP
ENDCHAR

STARTCHAR 21E2
ENCODING 8674
SWIDTH 426 0
DWIDTH 4 0
BBX 0 0 0 0
BITMAP
ENDCHAR

STARTCHAR 21E3
ENCODING 8675
SWIDTH 426 0
DWIDTH 4 0
BBX 0 0 0 0
BITMAP
ENDCHAR

STARTCHAR 21E4
ENCODING 8676
SWIDTH 426 0
DWIDTH 4 0
BBX 0 0 0 0
BITMAP
ENDCHAR

STARTCHAR 21E5
ENCODING 8677
SWIDTH 426 0
DWIDTH 4 0
BBX 0 0 0 0
BITMAP
ENDCHAR

STARTCHAR 21E6
ENCODING 8678
SWIDTH 426 0
DWIDTH 4 0
BBX 0 0 0 0
BITMAP
ENDCHAR

STARTCHAR 21E7
ENCODING 8679
SWIDTH 426 0
DWIDTH 4 0
BBX 0 0 0 0
BITMAP
ENDCHAR

STARTCHAR 21E8
ENCODING 8680
SWIDTH 426 0
DWIDTH 4 0
BBX 0 0 0 0
BITMAP
ENDCHAR

STARTCHAR 21E9
ENCODING 8681
SWIDTH 426 0
DWIDTH 4 0
BBX 0 0 0 0
BITMAP
ENDCHAR

STARTCHAR 21EA
ENCODING 8682
SWIDTH 426 0
DWIDTH 4 0
BBX 0 0 0 0
BITMAP
ENDCHAR

STARTCHAR 2200
ENCODING 8704
SWIDTH 960 0
DWIDTH 9 0
BBX 7 7 1 0
BITMAP
82
FC
44
48
28
30
10
ENDCHAR

STARTCHAR 2201
ENCODING 8705
SWIDTH 426 0
DWIDTH 4 0
BBX 0 0 0 0
BITMAP
ENDCHAR

STARTCHAR 2202
ENCODING 8706
SWIDTH 960 0
DWIDTH 9 0
BBX 5 8 2 -1
BITMAP
70
08
08
78
88
90
90
60
ENDCHAR

STARTCHAR 2203
ENCODING 8707
SWIDTH 960 0
DWIDTH 9 0
BBX 6 7 2 0
BITMAP
FC
04
04
FC
04
04
7C
ENDCHAR

STARTCHAR 2204
ENCODING 8708
SWIDTH 426 0
DWIDTH 4 0
BBX 0 0 0 0
BITMAP
ENDCHAR

STARTCHAR 2205
ENCODING 8709
SWIDTH 426 0
DWIDTH 4 0
BBX 0 0 0 0
BITMAP
ENDCHAR

STARTCHAR 2206
ENCODING 8710
SWIDTH 426 0
DWIDTH 4 0
BBX 0 0 0 0
BITMAP
ENDCHAR

STARTCHAR 2207
ENCODING 8711
SWIDTH 960 0
DWIDTH 9 0
BBX 7 8 1 -1
BITMAP
FE
82
44
44
28
28
10
10
ENDCHAR

STARTCHAR 2208
ENCODING 8712
SWIDTH 960 0
DWIDTH 9 0
BBX 8 7 1 0
BITMAP
7F
80
80
FF
80
80
7E
ENDCHAR

STARTCHAR 2209
ENCODING 8713
SWIDTH 426 0
DWIDTH 4 0
BBX 0 0 0 0
BITMAP
ENDCHAR

STARTCHAR 220A
ENCODING 8714
SWIDTH 426 0
DWIDTH 4 0
BBX 0 0 0 0
BITMAP
ENDCHAR

STARTCHAR 220B
ENCODING 8715
SWIDTH 960 0
DWIDTH 9 0
BBX 8 7 1 0
BITMAP
FC
02
01
FF
01
02
7C
ENDCHAR

STARTCHAR 220C
ENCODING 8716
SWIDTH 426 0
DWIDTH 4 0
BBX 0 0 0 0
BITMAP
ENDCHAR

STARTCHAR 220D
ENCODING 8717
SWIDTH 426 0
DWIDTH 4 0
BBX 0 0 0 0
BITMAP
ENDCHAR

STARTCHAR 220E
ENCODING 8718
SWIDTH 426 0
DWIDTH 4 0
BBX 0 0 0 0
BITMAP
ENDCHAR

STARTCHAR 220F
ENCODING 8719
SWIDTH 426 0
DWIDTH 4 0
BBX 0 0 0 0
BITMAP
ENDCHAR

STARTCHAR 2210
ENCODING 8720
SWIDTH 426 0
DWIDTH 4 0
BBX 0 0 0 0
BITMAP
ENDCHAR

STARTCHAR 2211
ENCODING 8721
SWIDTH 960 0
DWIDTH 9 0
BBX 9 9 0 -1
BITMAP
0080
5680
5900
6B00
AF00
AB00
6900
4B00
0D00
ENDCHAR

STARTCHAR 2212
ENCODING 8722
SWIDTH 426 0
DWIDTH 4 0
BBX 0 0 0 0
BITMAP
ENDCHAR

STARTCHAR 2213
ENCODING 8723
SWIDTH 426 0
DWIDTH 4 0
BBX 0 0 0 0
BITMAP
ENDCHAR

STARTCHAR 2214
ENCODING 8724
SWIDTH 426 0
DWIDTH 4 0
BBX 0 0 0 0
BITMAP
ENDCHAR

STARTCHAR 2215
ENCODING 8725
SWIDTH 426 0
DWIDTH 4 0
BBX 0 0 0 0
BITMAP
ENDCHAR

STARTCHAR 2216
ENCODING 8726
SWIDTH 426 0
DWIDTH 4 0
BBX 0 0 0 0
BITMAP
ENDCHAR

STARTCHAR 2217
ENCODING 8727
SWIDTH 426 0
DWIDTH 4 0
BBX 0 0 0 0
BITMAP
ENDCHAR

STARTCHAR 2218
ENCODING 8728
SWIDTH 426 0
DWIDTH 4 0
BBX 0 0 0 0
BITMAP
ENDCHAR

STARTCHAR 2219
ENCODING 8729
SWIDTH 426 0
DWIDTH 4 0
BBX 0 0 0 0
BITMAP
ENDCHAR

STARTCHAR 221A
ENCODING 8730
SWIDTH 960 0
DWIDTH 9 0
BBX 8 9 1 -1
BITMAP
0F
10
20
20
20
C0
C0
40
80
ENDCHAR

STARTCHAR 221B
ENCODING 8731
SWIDTH 426 0
DWIDTH 4 0
BBX 0 0 0 0
BITMAP
ENDCHAR

STARTCHAR 221C
ENCODING 8732
SWIDTH 426 0
DWIDTH 4 0
BBX 0 0 0 0
BITMAP
ENDCHAR

STARTCHAR 221D
ENCODING 8733
SWIDTH 960 0
DWIDTH 9 0
BBX 8 3 1 2
BITMAP
E7
98
FE
ENDCHAR

STARTCHAR 221E
ENCODING 8734
SWIDTH 960 0
DWIDTH 9 0
BBX 8 3 1 2
BITMAP
EE
91
EF
ENDCHAR

STARTCHAR 221F
ENCODING 8735
SWIDTH 960 0
DWIDTH 9 0
BBX 9 9 0 -1
BITMAP
1A80
AE80
8580
AD80
9B80
4B00
E780
BD00
5580
ENDCHAR

STARTCHAR 2220
ENCODING 8736
SWIDTH 960 0
DWIDTH 9 0
BBX 7 7 1 0
BITMAP
02
04
08
10
20
40
FC
ENDCHAR

STARTCHAR 2221
ENCODING 8737
SWIDTH 426 0
DWIDTH 4 0
BBX 0 0 0 0
BITMAP
ENDCHAR

STARTCHAR 2222
ENCODING 8738
SWIDTH 426 0
DWIDTH 4 0
BBX 0 0 0 0
BITMAP
ENDCHAR

STARTCHAR 2223
ENCODING 8739
SWIDTH 426 0
DWIDTH 4 0
BBX 0 0 0 0
BITMAP
ENDCHAR

STARTCHAR 2224
ENCODING 8740
SWIDTH 426 0
DWIDTH 4 0
BBX 0 0 0 0
BITMAP
ENDCHAR

STARTCHAR 2225
ENCODING 8741
SWIDTH 960 0
DWIDTH 9 0
BBX 2 9 4 -1
BITMAP
40
C0
C0
C0
C0
C0
C0
C0
40
ENDCHAR

STARTCHAR 2226
ENCODING 8742
SWIDTH 426 0
DWIDTH 4 0
BBX 0 0 0 0
BITMAP
ENDCHAR

STARTCHAR 2227
ENCODING 8743
SWIDTH 960 0
DWIDTH 9 0
BBX 8 9 1 -1
BITMAP
10
30
28
48
44
84
82
82
01
ENDCHAR

STARTCHAR 2228
ENCODING 8744
SWIDTH 960 0
DWIDTH 9 0
BBX 7 7 1 0
BITMAP
82
84
44
48
28
30
10
ENDCHAR

STARTCHAR 2229
ENCODING 8745
SWIDTH 960 0
DWIDTH 9 0
BBX 7 8 1 -1
BITMAP
7C
82
82
82
82
82
82
82
ENDCHAR

STARTCHAR 222A
ENCODING 8746
SWIDTH 960 0
DWIDTH 9 0
BBX 7 8 1 -1
BITMAP
82
82
82
82
82
82
44
38
ENDCHAR

STARTCHAR 222B
ENCODING 8747
SWIDTH 960 0
DWIDTH 9 0
BBX 5 8 2 -1
BITMAP
38
20
20
20
20
20
C0
C0
ENDCHAR

STARTCHAR 222C
ENCODING 8748
SWIDTH 960 0
DWIDTH 9 0
BBX 8 8 1 -1
BITMAP
27
44
44
44
44
48
58
98
ENDCHAR

STARTCHAR 222D
ENCODING 8749
SWIDTH 426 0
DWIDTH 4 0
BBX 0 0 0 0
BITMAP
ENDCHAR

STARTCHAR 222E
ENCODING 8750
SWIDTH 960 0
DWIDTH 9 0
BBX 9 9 0 -1
BITMAP
1300
5200
6B00
5A00
3B00
8E00
8580
8000
8F80
ENDCHAR

STARTCHAR 222F
ENCODING 8751
SWIDTH 426 0
DWIDTH 4 0
BBX 0 0 0 0
BITMAP
ENDCHAR

STARTCHAR 2230
ENCODING 8752
SWIDTH 426 0
DWIDTH 4 0
BBX 0 0 0 0
BITMAP
ENDCHAR

STARTCHAR 2231
ENCODING 8753
SWIDTH 426 0
DWIDTH 4 0
BBX 0 0 0 0
BITMAP
ENDCHAR

STARTCHAR 2232
ENCODING 8754
SWIDTH 426 0
DWIDTH 4 0
BBX 0 0 0 0
BITMAP
ENDCHAR

STARTCHAR 2233
ENCODING 8755
SWIDTH 426 0
DWIDTH 4 0
BBX 0 0 0 0
BITMAP
ENDCHAR

STARTCHAR 2234
ENCODING 8756
SWIDTH 960 0
DWIDTH 9 0
BBX 7 6 1 1
BITMAP
10
10
00
00
46
C6
ENDCHAR

STARTCHAR 2235
ENCODING 8757
SWIDTH 960 0
DWIDTH 9 0
BBX 5 5 2 1
BITMAP
88
00
00
00
20
ENDCHAR

STARTCHAR 2236
ENCODING 8758
SWIDTH 426 0
DWIDTH 4 0
BBX 0 0 0 0
BITMAP
ENDCHAR

STARTCHAR 2237
ENCODING 8759
SWIDTH 426 0
DWIDTH 4 0
BBX 0 0 0 0
BITMAP
ENDCHAR

STARTCHAR 2238
ENCODING 8760
SWIDTH 426 0
DWIDTH 4 0
BBX 0 0 0 0
BITMAP
ENDCHAR

STARTCHAR 2239
ENCODING 8761
SWIDTH 426 0
DWIDTH 4 0
BBX 0 0 0 0
BITMAP
ENDCHAR

STARTCHAR 223A
ENCODING 8762
SWIDTH 426 0
DWIDTH 4 0
BBX 0 0 0 0
BITMAP
ENDCHAR

STARTCHAR 223B
ENCODING 8763
SWIDTH 426 0
DWIDTH 4 0
BBX 0 0 0 0
BITMAP
ENDCHAR

STARTCHAR 223C
ENCODING 8764
SWIDTH 426 0
DWIDTH 4 0
BBX 0 0 0 0
BITMAP
ENDCHAR

STARTCHAR 223D
ENCODING 8765
SWIDTH 960 0
DWIDTH 9 0
BBX 8 3 1 2
BITMAP
EE
91
E3
ENDCHAR

STARTCHAR 223E
ENCODING 8766
SWIDTH 426 0
DWIDTH 4 0
BBX 0 0 0 0
BITMAP
ENDCHAR

STARTCHAR 223F
ENCODING 8767
SWIDTH 426 0
DWIDTH 4 0
BBX 0 0 0 0
BITMAP
ENDCHAR

STARTCHAR 2240
ENCODING 8768
SWIDTH 426 0
DWIDTH 4 0
BBX 0 0 0 0
BITMAP
ENDCHAR

STARTCHAR 2241
ENCODING 8769
SWIDTH 426 0
DWIDTH 4 0
BBX 0 0 0 0
BITMAP
ENDCHAR

STARTCHAR 2242
ENCODING 8770
SWIDTH 426 0
DWIDTH 4 0
BBX 0 0 0 0
BITMAP
ENDCHAR

STARTCHAR 2243
ENCODING 8771
SWIDTH 426 0
DWIDTH 4 0
BBX 0 0 0 0
BITMAP
ENDCHAR

STARTCHAR 2244
ENCODING 8772
SWIDTH 426 0
DWIDTH 4 0
BBX 0 0 0 0
BITMAP
ENDCHAR

STARTCHAR 2245
ENCODING 8773
SWIDTH 426 0
DWIDTH 4 0
BBX 0 0 0 0
BITMAP
ENDCHAR

STARTCHAR 2246
ENCODING 8774
SWIDTH 426 0
DWIDTH 4 0
BBX 0 0 0 0
BITMAP
ENDCHAR

STARTCHAR 2247
ENCODING 8775
SWIDTH 426 0
DWIDTH 4 0
BBX 0 0 0 0
BITMAP
ENDCHAR

STARTCHAR 2248
ENCODING 8776
SWIDTH 426 0
DWIDTH 4 0
BBX 0 0 0 0
BITMAP
ENDCHAR

STARTCHAR 2249
ENCODING 8777
SWIDTH 426 0
DWIDTH 4 0
BBX 0 0 0 0
BITMAP
ENDCHAR

STARTCHAR 224A
ENCODING 8778
SWIDTH 426 0
DWIDTH 4 0
BBX 0 0 0 0
BITMAP
ENDCHAR

STARTCHAR 224B
ENCODING 8779
SWIDTH 426 0
DWIDTH 4 0
BBX 0 0 0 0
BITMAP
ENDCHAR

STARTCHAR 224C
ENCODING 8780
SWIDTH 426 0
DWIDTH 4 0
BBX 0 0 0 0
BITMAP
ENDCHAR

STARTCHAR 224D
ENCODING 8781
SWIDTH 426 0
DWIDTH 4 0
BBX 0 0 0 0
BITMAP
ENDCHAR

STARTCHAR 224E
ENCODING 8782
SWIDTH 426 0
DWIDTH 4 0
BBX 0 0 0 0
BITMAP
ENDCHAR

STARTCHAR 224F
ENCODING 8783
SWIDTH 426 0
DWIDTH 4 0
BBX 0 0 0 0
BITMAP
ENDCHAR

STARTCHAR 2250
ENCODING 8784
SWIDTH 426 0
DWIDTH 4 0
BBX 0 0 0 0
BITMAP
ENDCHAR

STARTCHAR 2251
ENCODING 8785
SWIDTH 426 0
DWIDTH 4 0
BBX 0 0 0 0
BITMAP
ENDCHAR

STARTCHAR 2252
ENCODING 8786
SWIDTH 960 0
DWIDTH 9 0
BBX 7 7 1 0
BITMAP
40
00
FE
00
FE
00
04
ENDCHAR

STARTCHAR 2253
ENCODING 8787
SWIDTH 426 0
DWIDTH 4 0
BBX 0 0 0 0
BITMAP
ENDCHAR

STARTCHAR 2254
ENCODING 8788
SWIDTH 426 0
DWIDTH 4 0
BBX 0 0 0 0
BITMAP
ENDCHAR

STARTCHAR 2255
ENCODING 8789
SWIDTH 426 0
DWIDTH 4 0
BBX 0 0 0 0
BITMAP
ENDCHAR

STARTCHAR 2256
ENCODING 8790
SWIDTH 426 0
DWIDTH 4 0
BBX 0 0 0 0
BITMAP
ENDCHAR

STARTCHAR 2257
ENCODING 8791
SWIDTH 426 0
DWIDTH 4 0
BBX 0 0 0 0
BITMAP
ENDCHAR

STARTCHAR 2258
ENCODING 8792
SWIDTH 426 0
DWIDTH 4 0
BBX 0 0 0 0
BITMAP
ENDCHAR

STARTCHAR 2259
ENCODING 8793
SWIDTH 426 0
DWIDTH 4 0
BBX 0 0 0 0
BITMAP
ENDCHAR

STARTCHAR 225A
ENCODING 8794
SWIDTH 426 0
DWIDTH 4 0
BBX 0 0 0 0
BITMAP
ENDCHAR

STARTCHAR 225B
ENCODING 8795
SWIDTH 426 0
DWIDTH 4 0
BBX 0 0 0 0
BITMAP
ENDCHAR

STARTCHAR 225C
ENCODING 8796
SWIDTH 426 0
DWIDTH 4 0
BBX 0 0 0 0
BITMAP
ENDCHAR

STARTCHAR 225D
ENCODING 8797
SWIDTH 426 0
DWIDTH 4 0
BBX 0 0 0 0
BITMAP
ENDCHAR

STARTCHAR 225E
ENCODING 8798
SWIDTH 426 0
DWIDTH 4 0
BBX 0 0 0 0
BITMAP
ENDCHAR

STARTCHAR 225F
ENCODING 8799
SWIDTH 426 0
DWIDTH 4 0
BBX 0 0 0 0
BITMAP
ENDCHAR

STARTCHAR 2260
ENCODING 8800
SWIDTH 960 0
DWIDTH 9 0
BBX 7 6 1 0
BITMAP
08
10
7C
FE
20
20
ENDCHAR

STARTCHAR 2261
ENCODING 8801
SWIDTH 960 0
DWIDTH 9 0
BBX 7 5 1 1
BITMAP
FE
00
FE
00
7C
ENDCHAR

STARTCHAR 2262
ENCODING 8802
SWIDTH 426 0
DWIDTH 4 0
BBX 0 0 0 0
BITMAP
ENDCHAR

STARTCHAR 2263
ENCODING 8803
SWIDTH 426 0
DWIDTH 4 0
BBX 0 0 0 0
BITMAP
ENDCHAR

STARTCHAR 2264
ENCODING 8804
SWIDTH 426 0
DWIDTH 4 0
BBX 0 0 0 0
BITMAP
ENDCHAR

STARTCHAR 2265
ENCODING 8805
SWIDTH 426 0
DWIDTH 4 0
BBX 0 0 0 0
BITMAP
ENDCHAR

STARTCHAR 2266
ENCODING 8806
SWIDTH 960 0
DWIDTH 9 0
BBX 7 7 1 0
BITMAP
0C
70
40
38
04
FE
7C
ENDCHAR

STARTCHAR 2267
ENCODING 8807
SWIDTH 960 0
DWIDTH 9 0
BBX 7 7 1 0
BITMAP
E0
1C
06
38
40
FE
7C
ENDCHAR

STARTCHAR 2268
ENCODING 8808
SWIDTH 426 0
DWIDTH 4 0
BBX 0 0 0 0
BITMAP
ENDCHAR

STARTCHAR 2269
ENCODING 8809
SWIDTH 426 0
DWIDTH 4 0
BBX 0 0 0 0
BITMAP
ENDCHAR

STARTCHAR 226A
ENCODING 8810
SWIDTH 960 0
DWIDTH 9 0
BBX 9 8 0 0
BITMAP
0500
1E00
2800
F000
5000
3C00
0A00
0780
ENDCHAR

STARTCHAR 226B
ENCODING 8811
SWIDTH 960 0
DWIDTH 9 0
BBX 8 8 1 0
BITMAP
A0
78
14
0F
0A
3C
50
E0
ENDCHAR

STARTCHAR 226C
ENCODING 8812
SWIDTH 426 0
DWIDTH 4 0
BBX 0 0 0 0
BITMAP
ENDCHAR

STARTCHAR 226D
ENCODING 8813
SWIDTH 426 0
DWIDTH 4 0
BBX 0 0 0 0
BITMAP
ENDCHAR

STARTCHAR 226E
ENCODING 8814
SWIDTH 426 0
DWIDTH 4 0
BBX 0 0 0 0
BITMAP
ENDCHAR

STARTCHAR 226F
ENCODING 8815
SWIDTH 426 0
DWIDTH 4 0
BBX 0 0 0 0
BITMAP
ENDCHAR

STARTCHAR 2270
ENCODING 8816
SWIDTH 426 0
DWIDTH 4 0
BBX 0 0 0 0
BITMAP
ENDCHAR

STARTCHAR 2271
ENCODING 8817
SWIDTH 426 0
DWIDTH 4 0
BBX 0 0 0 0
BITMAP
ENDCHAR

STARTCHAR 2272
ENCODING 8818
SWIDTH 426 0
DWIDTH 4 0
BBX 0 0 0 0
BITMAP
ENDCHAR

STARTCHAR 2273
ENCODING 8819
SWIDTH 426 0
DWIDTH 4 0
BBX 0 0 0 0
BITMAP
ENDCHAR

STARTCHAR 2274
ENCODING 8820
SWIDTH 426 0
DWIDTH 4 0
BBX 0 0 0 0
BITMAP
ENDCHAR

STARTCHAR 2275
ENCODING 8821
SWIDTH 426 0
DWIDTH 4 0
BBX 0 0 0 0
BITMAP
ENDCHAR

STARTCHAR 2276
ENCODING 8822
SWIDTH 426 0
DWIDTH 4 0
BBX 0 0 0 0
BITMAP
ENDCHAR

STARTCHAR 2277
ENCODING 8823
SWIDTH 426 0
DWIDTH 4 0
BBX 0 0 0 0
BITMAP
ENDCHAR

STARTCHAR 2278
ENCODING 8824
SWIDTH 426 0
DWIDTH 4 0
BBX 0 0 0 0
BITMAP
ENDCHAR

STARTCHAR 2279
ENCODING 8825
SWIDTH 426 0
DWIDTH 4 0
BBX 0 0 0 0
BITMAP
ENDCHAR

STARTCHAR 227A
ENCODING 8826
SWIDTH 426 0
DWIDTH 4 0
BBX 0 0 0 0
BITMAP
ENDCHAR

STARTCHAR 227B
ENCODING 8827
SWIDTH 426 0
DWIDTH 4 0
BBX 0 0 0 0
BITMAP
ENDCHAR

STARTCHAR 227C
ENCODING 8828
SWIDTH 426 0
DWIDTH 4 0
BBX 0 0 0 0
BITMAP
ENDCHAR

STARTCHAR 227D
ENCODING 8829
SWIDTH 426 0
DWIDTH 4 0
BBX 0 0 0 0
BITMAP
ENDCHAR

STARTCHAR 227E
ENCODING 8830
SWIDTH 426 0
DWIDTH 4 0
BBX 0 0 0 0
BITMAP
ENDCHAR

STARTCHAR 227F
ENCODING 8831
SWIDTH 426 0
DWIDTH 4 0
BBX 0 0 0 0
BITMAP
ENDCHAR

STARTCHAR 2280
ENCODING 8832
SWIDTH 426 0
DWIDTH 4 0
BBX 0 0 0 0
BITMAP
ENDCHAR

STARTCHAR 2281
ENCODING 8833
SWIDTH 426 0
DWIDTH 4 0
BBX 0 0 0 0
BITMAP
ENDCHAR

STARTCHAR 2282
ENCODING 8834
SWIDTH 960 0
DWIDTH 9 0
BBX 8 7 1 0
BITMAP
3F
C0
80
80
80
80
7F
ENDCHAR

STARTCHAR 2283
ENCODING 8835
SWIDTH 960 0
DWIDTH 9 0
BBX 8 7 1 0
BITMAP
F8
06
01
01
01
02
FC
ENDCHAR

STARTCHAR 2284
ENCODING 8836
SWIDTH 426 0
DWIDTH 4 0
BBX 0 0 0 0
BITMAP
ENDCHAR

STARTCHAR 2285
ENCODING 8837
SWIDTH 426 0
DWIDTH 4 0
BBX 0 0 0 0
BITMAP
ENDCHAR

STARTCHAR 2286
ENCODING 8838
SWIDTH 960 0
DWIDTH 9 0
BBX 7 7 1 0
BITMAP
7E
80
80
80
80
7E
7E
ENDCHAR

STARTCHAR 2287
ENCODING 8839
SWIDTH 960 0
DWIDTH 9 0
BBX 7 7 2 0
BITMAP
FC
04
02
02
04
F8
FC
ENDCHAR

STARTCHAR 2288
ENCODING 8840
SWIDTH 426 0
DWIDTH 4 0
BBX 0 0 0 0
BITMAP
ENDCHAR

STARTCHAR 2289
ENCODING 8841
SWIDTH 426 0
DWIDTH 4 0
BBX 0 0 0 0
BITMAP
ENDCHAR

STARTCHAR 228A
ENCODING 8842
SWIDTH 426 0
DWIDTH 4 0
BBX 0 0 0 0
BITMAP
ENDCHAR

STARTCHAR 228B
ENCODING 8843
SWIDTH 426 0
DWIDTH 4 0
BBX 0 0 0 0
BITMAP
ENDCHAR

STARTCHAR 228C
ENCODING 8844
SWIDTH 426 0
DWIDTH 4 0
BBX 0 0 0 0
BITMAP
ENDCHAR

STARTCHAR 228D
ENCODING 8845
SWIDTH 426 0
DWIDTH 4 0
BBX 0 0 0 0
BITMAP
ENDCHAR

STARTCHAR 228E
ENCODING 8846
SWIDTH 426 0
DWIDTH 4 0
BBX 0 0 0 0
BITMAP
ENDCHAR

STARTCHAR 228F
ENCODING 8847
SWIDTH 426 0
DWIDTH 4 0
BBX 0 0 0 0
BITMAP
ENDCHAR

STARTCHAR 2290
ENCODING 8848
SWIDTH 426 0
DWIDTH 4 0
BBX 0 0 0 0
BITMAP
ENDCHAR

STARTCHAR 2291
ENCODING 8849
SWIDTH 426 0
DWIDTH 4 0
BBX 0 0 0 0
BITMAP
ENDCHAR

STARTCHAR 2292
ENCODING 8850
SWIDTH 426 0
DWIDTH 4 0
BBX 0 0 0 0
BITMAP
ENDCHAR

STARTCHAR 2293
ENCODING 8851
SWIDTH 426 0
DWIDTH 4 0
BBX 0 0 0 0
BITMAP
ENDCHAR

STARTCHAR 2294
ENCODING 8852
SWIDTH 426 0
DWIDTH 4 0
BBX 0 0 0 0
BITMAP
ENDCHAR

STARTCHAR 2295
ENCODING 8853
SWIDTH 426 0
DWIDTH 4 0
BBX 0 0 0 0
BITMAP
ENDCHAR

STARTCHAR 2296
ENCODING 8854
SWIDTH 426 0
DWIDTH 4 0
BBX 0 0 0 0
BITMAP
ENDCHAR

STARTCHAR 2297
ENCODING 8855
SWIDTH 426 0
DWIDTH 4 0
BBX 0 0 0 0
BITMAP
ENDCHAR

STARTCHAR 2298
ENCODING 8856
SWIDTH 426 0
DWIDTH 4 0
BBX 0 0 0 0
BITMAP
ENDCHAR

STARTCHAR 2299
ENCODING 8857
SWIDTH 426 0
DWIDTH 4 0
BBX 0 0 0 0
BITMAP
ENDCHAR

STARTCHAR 229A
ENCODING 8858
SWIDTH 426 0
DWIDTH 4 0
BBX 0 0 0 0
BITMAP
ENDCHAR

STARTCHAR 229B
ENCODING 8859
SWIDTH 426 0
DWIDTH 4 0
BBX 0 0 0 0
BITMAP
ENDCHAR

STARTCHAR 229C
ENCODING 8860
SWIDTH 426 0
DWIDTH 4 0
BBX 0 0 0 0
BITMAP
ENDCHAR

STARTCHAR 229D
ENCODING 8861
SWIDTH 426 0
DWIDTH 4 0
BBX 0 0 0 0
BITMAP
ENDCHAR

STARTCHAR 229E
ENCODING 8862
SWIDTH 426 0
DWIDTH 4 0
BBX 0 0 0 0
BITMAP
ENDCHAR

STARTCHAR 229F
ENCODING 8863
SWIDTH 426 0
DWIDTH 4 0
BBX 0 0 0 0
BITMAP
ENDCHAR

STARTCHAR 22A0
ENCODING 8864
SWIDTH 426 0
DWIDTH 4 0
BBX 0 0 0 0
BITMAP
ENDCHAR

STARTCHAR 22A1
ENCODING 8865
SWIDTH 426 0
DWIDTH 4 0
BBX 0 0 0 0
BITMAP
ENDCHAR

STARTCHAR 22A2
ENCODING 8866
SWIDTH 426 0
DWIDTH 4 0
BBX 0 0 0 0
BITMAP
ENDCHAR

STARTCHAR 22A3
ENCODING 8867
SWIDTH 426 0
DWIDTH 4 0
BBX 0 0 0 0
BITMAP
ENDCHAR

STARTCHAR 22A4
ENCODING 8868
SWIDTH 426 0
DWIDTH 4 0
BBX 0 0 0 0
BITMAP
ENDCHAR

STARTCHAR 22A5
ENCODING 8869
SWIDTH 960 0
DWIDTH 9 0
BBX 5 7 2 0
BITMAP
20
20
20
20
20
20
F8
ENDCHAR

STARTCHAR 22A6
ENCODING 8870
SWIDTH 426 0
DWIDTH 4 0
BBX 0 0 0 0
BITMAP
ENDCHAR

STARTCHAR 22A7
ENCODING 8871
SWIDTH 426 0
DWIDTH 4 0
BBX 0 0 0 0
BITMAP
ENDCHAR

STARTCHAR 22A8
ENCODING 8872
SWIDTH 426 0
DWIDTH 4 0
BBX 0 0 0 0
BITMAP
ENDCHAR

STARTCHAR 22A9
ENCODING 8873
SWIDTH 426 0
DWIDTH 4 0
BBX 0 0 0 0
BITMAP
ENDCHAR

STARTCHAR 22AA
ENCODING 8874
SWIDTH 426 0
DWIDTH 4 0
BBX 0 0 0 0
BITMAP
ENDCHAR

STARTCHAR 22AB
ENCODING 8875
SWIDTH 426 0
DWIDTH 4 0
BBX 0 0 0 0
BITMAP
ENDCHAR

STARTCHAR 22AC
ENCODING 8876
SWIDTH 426 0
DWIDTH 4 0
BBX 0 0 0 0
BITMAP
ENDCHAR

STARTCHAR 22AD
ENCODING 8877
SWIDTH 426 0
DWIDTH 4 0
BBX 0 0 0 0
BITMAP
ENDCHAR

STARTCHAR 22AE
ENCODING 8878
SWIDTH 426 0
DWIDTH 4 0
BBX 0 0 0 0
BITMAP
ENDCHAR

STARTCHAR 22AF
ENCODING 8879
SWIDTH 426 0
DWIDTH 4 0
BBX 0 0 0 0
BITMAP
ENDCHAR

STARTCHAR 22B0
ENCODING 8880
SWIDTH 426 0
DWIDTH 4 0
BBX 0 0 0 0
BITMAP
ENDCHAR

STARTCHAR 22B1
ENCODING 8881
SWIDTH 426 0
DWIDTH 4 0
BBX 0 0 0 0
BITMAP
ENDCHAR

STARTCHAR 22B2
ENCODING 8882
SWIDTH 426 0
DWIDTH 4 0
BBX 0 0 0 0
BITMAP
ENDCHAR

STARTCHAR 22B3
ENCODING 8883
SWIDTH 426 0
DWIDTH 4 0
BBX 0 0 0 0
BITMAP
ENDCHAR

STARTCHAR 22B4
ENCODING 8884
SWIDTH 426 0
DWIDTH 4 0
BBX 0 0 0 0
BITMAP
ENDCHAR

STARTCHAR 22B5
ENCODING 8885
SWIDTH 426 0
DWIDTH 4 0
BBX 0 0 0 0
BITMAP
ENDCHAR

STARTCHAR 22B6
ENCODING 8886
SWIDTH 426 0
DWIDTH 4 0
BBX 0 0 0 0
BITMAP
ENDCHAR

STARTCHAR 22B7
ENCODING 8887
SWIDTH 426 0
DWIDTH 4 0
BBX 0 0 0 0
BITMAP
ENDCHAR

STARTCHAR 22B8
ENCODING 8888
SWIDTH 426 0
DWIDTH 4 0
BBX 0 0 0 0
BITMAP
ENDCHAR

STARTCHAR 22B9
ENCODING 8889
SWIDTH 426 0
DWIDTH 4 0
BBX 0 0 0 0
BITMAP
ENDCHAR

STARTCHAR 22BA
ENCODING 8890
SWIDTH 426 0
DWIDTH 4 0
BBX 0 0 0 0
BITMAP
ENDCHAR

STARTCHAR 22BB
ENCODING 8891
SWIDTH 426 0
DWIDTH 4 0
BBX 0 0 0 0
BITMAP
ENDCHAR

STARTCHAR 22BC
ENCODING 8892
SWIDTH 426 0
DWIDTH 4 0
BBX 0 0 0 0
BITMAP
ENDCHAR

STARTCHAR 22BD
ENCODING 8893
SWIDTH 426 0
DWIDTH 4 0
BBX 0 0 0 0
BITMAP
ENDCHAR

STARTCHAR 22BE
ENCODING 8894
SWIDTH 426 0
DWIDTH 4 0
BBX 0 0 0 0
BITMAP
ENDCHAR

STARTCHAR 22BF
ENCODING 8895
SWIDTH 960 0
DWIDTH 9 0
BBX 9 9 0 -1
BITMAP
D180
C380
6900
2200
4F80
2680
F080
FF80
2280
ENDCHAR

STARTCHAR 22C0
ENCODING 8896
SWIDTH 426 0
DWIDTH 4 0
BBX 0 0 0 0
BITMAP
ENDCHAR

STARTCHAR 22C1
ENCODING 8897
SWIDTH 426 0
DWIDTH 4 0
BBX 0 0 0 0
BITMAP
ENDCHAR

STARTCHAR 22C2
ENCODING 8898
SWIDTH 426 0
DWIDTH 4 0
BBX 0 0 0 0
BITMAP
ENDCHAR

STARTCHAR 22C3
ENCODING 8899
SWIDTH 426 0
DWIDTH 4 0
BBX 0 0 0 0
BITMAP
ENDCHAR

STARTCHAR 22C4
ENCODING 8900
SWIDTH 426 0
DWIDTH 4 0
BBX 0 0 0 0
BITMAP
ENDCHAR

STARTCHAR 22C5
ENCODING 8901
SWIDTH 426 0
DWIDTH 4 0
BBX 0 0 0 0
BITMAP
ENDCHAR

STARTCHAR 22C6
ENCODING 8902
SWIDTH 426 0
DWIDTH 4 0
BBX 0 0 0 0
BITMAP
ENDCHAR

STARTCHAR 22C7
ENCODING 8903
SWIDTH 426 0
DWIDTH 4 0
BBX 0 0 0 0
BITMAP
ENDCHAR

STARTCHAR 22C8
ENCODING 8904
SWIDTH 426 0
DWIDTH 4 0
BBX 0 0 0 0
BITMAP
ENDCHAR

STARTCHAR 22C9
ENCODING 8905
SWIDTH 426 0
DWIDTH 4 0
BBX 0 0 0 0
BITMAP
ENDCHAR

STARTCHAR 22CA
ENCODING 8906
SWIDTH 426 0
DWIDTH 4 0
BBX 0 0 0 0
BITMAP
ENDCHAR

STARTCHAR 22CB
ENCODING 8907
SWIDTH 426 0
DWIDTH 4 0
BBX 0 0 0 0
BITMAP
ENDCHAR

STARTCHAR 22CC
ENCODING 8908
SWIDTH 426 0
DWIDTH 4 0
BBX 0 0 0 0
BITMAP
ENDCHAR

STARTCHAR 22CD
ENCODING 8909
SWIDTH 426 0
DWIDTH 4 0
BBX 0 0 0 0
BITMAP
ENDCHAR

STARTCHAR 22CE
ENCODING 8910
SWIDTH 426 0
DWIDTH 4 0
BBX 0 0 0 0
BITMAP
ENDCHAR

STARTCHAR 22CF
ENCODING 8911
SWIDTH 426 0
DWIDTH 4 0
BBX 0 0 0 0
BITMAP
ENDCHAR

STARTCHAR 22D0
ENCODING 8912
SWIDTH 426 0
DWIDTH 4 0
BBX 0 0 0 0
BITMAP
ENDCHAR

STARTCHAR 22D1
ENCODING 8913
SWIDTH 426 0
DWIDTH 4 0
BBX 0 0 0 0
BITMAP
ENDCHAR

STARTCHAR 22D2
ENCODING 8914
SWIDTH 426 0
DWIDTH 4 0
BBX 0 0 0 0
BITMAP
ENDCHAR

STARTCHAR 22D3
ENCODING 8915
SWIDTH 426 0
DWIDTH 4 0
BBX 0 0 0 0
BITMAP
ENDCHAR

STARTCHAR 22D4
ENCODING 8916
SWIDTH 426 0
DWIDTH 4 0
BBX 0 0 0 0
BITMAP
ENDCHAR

STARTCHAR 22D5
ENCODING 8917
SWIDTH 426 0
DWIDTH 4 0
BBX 0 0 0 0
BITMAP
ENDCHAR

STARTCHAR 22D6
ENCODING 8918
SWIDTH 426 0
DWIDTH 4 0
BBX 0 0 0 0
BITMAP
ENDCHAR

STARTCHAR 22D7
ENCODING 8919
SWIDTH 426 0
DWIDTH 4 0
BBX 0 0 0 0
BITMAP
ENDCHAR

STARTCHAR 22D8
ENCODING 8920
SWIDTH 426 0
DWIDTH 4 0
BBX 0 0 0 0
BITMAP
ENDCHAR

STARTCHAR 22D9
ENCODING 8921
SWIDTH 426 0
DWIDTH 4 0
BBX 0 0 0 0
BITMAP
ENDCHAR

STARTCHAR 22DA
ENCODING 8922
SWIDTH 426 0
DWIDTH 4 0
BBX 0 0 0 0
BITMAP
ENDCHAR

STARTCHAR 22DB
ENCODING 8923
SWIDTH 426 0
DWIDTH 4 0
BBX 0 0 0 0
BITMAP
ENDCHAR

STARTCHAR 22DC
ENCODING 8924
SWIDTH 426 0
DWIDTH 4 0
BBX 0 0 0 0
BITMAP
ENDCHAR

STARTCHAR 22DD
ENCODING 8925
SWIDTH 426 0
DWIDTH 4 0
BBX 0 0 0 0
BITMAP
ENDCHAR

STARTCHAR 22DE
ENCODING 8926
SWIDTH 426 0
DWIDTH 4 0
BBX 0 0 0 0
BITMAP
ENDCHAR

STARTCHAR 22DF
ENCODING 8927
SWIDTH 426 0
DWIDTH 4 0
BBX 0 0 0 0
BITMAP
ENDCHAR

STARTCHAR 22E0
ENCODING 8928
SWIDTH 426 0
DWIDTH 4 0
BBX 0 0 0 0
BITMAP
ENDCHAR

STARTCHAR 22E1
ENCODING 8929
SWIDTH 426 0
DWIDTH 4 0
BBX 0 0 0 0
BITMAP
ENDCHAR

STARTCHAR 22E2
ENCODING 8930
SWIDTH 426 0
DWIDTH 4 0
BBX 0 0 0 0
BITMAP
ENDCHAR

STARTCHAR 22E3
ENCODING 8931
SWIDTH 426 0
DWIDTH 4 0
BBX 0 0 0 0
BITMAP
ENDCHAR

STARTCHAR 22E4
ENCODING 8932
SWIDTH 426 0
DWIDTH 4 0
BBX 0 0 0 0
BITMAP
ENDCHAR

STARTCHAR 22E5
ENCODING 8933
SWIDTH 426 0
DWIDTH 4 0
BBX 0 0 0 0
BITMAP
ENDCHAR

STARTCHAR 22E6
ENCODING 8934
SWIDTH 426 0
DWIDTH 4 0
BBX 0 0 0 0
BITMAP
ENDCHAR

STARTCHAR 22E7
ENCODING 8935
SWIDTH 426 0
DWIDTH 4 0
BBX 0 0 0 0
BITMAP
ENDCHAR

STARTCHAR 22E8
ENCODING 8936
SWIDTH 426 0
DWIDTH 4 0
BBX 0 0 0 0
BITMAP
ENDCHAR

STARTCHAR 22E9
ENCODING 8937
SWIDTH 426 0
DWIDTH 4 0
BBX 0 0 0 0
BITMAP
ENDCHAR

STARTCHAR 22EA
ENCODING 8938
SWIDTH 426 0
DWIDTH 4 0
BBX 0 0 0 0
BITMAP
ENDCHAR

STARTCHAR 22EB
ENCODING 8939
SWIDTH 426 0
DWIDTH 4 0
BBX 0 0 0 0
BITMAP
ENDCHAR

STARTCHAR 22EC
ENCODING 8940
SWIDTH 426 0
DWIDTH 4 0
BBX 0 0 0 0
BITMAP
ENDCHAR

STARTCHAR 22ED
ENCODING 8941
SWIDTH 426 0
DWIDTH 4 0
BBX 0 0 0 0
BITMAP
ENDCHAR

STARTCHAR 22EE
ENCODING 8942
SWIDTH 426 0
DWIDTH 4 0
BBX 0 0 0 0
BITMAP
ENDCHAR

STARTCHAR 22EF
ENCODING 8943
SWIDTH 426 0
DWIDTH 4 0
BBX 0 0 0 0
BITMAP
ENDCHAR

STARTCHAR 22F0
ENCODING 8944
SWIDTH 426 0
DWIDTH 4 0
BBX 0 0 0 0
BITMAP
ENDCHAR

STARTCHAR 22F1
ENCODING 8945
SWIDTH 426 0
DWIDTH 4 0
BBX 0 0 0 0
BITMAP
ENDCHAR

STARTCHAR 2302
ENCODING 8962
SWIDTH 426 0
DWIDTH 4 0
BBX 0 0 0 0
BITMAP
ENDCHAR

STARTCHAR 2310
ENCODING 8976
SWIDTH 426 0
DWIDTH 4 0
BBX 0 0 0 0
BITMAP
ENDCHAR

STARTCHAR 2312
ENCODING 8978
SWIDTH 960 0
DWIDTH 9 0
BBX 8 3 1 4
BITMAP
7C
82
81
ENDCHAR

STARTCHAR 2320
ENCODING 8992
SWIDTH 426 0
DWIDTH 4 0
BBX 0 0 0 0
BITMAP
ENDCHAR

STARTCHAR 2321
ENCODING 8993
SWIDTH 426 0
DWIDTH 4 0
BBX 0 0 0 0
BITMAP
ENDCHAR

STARTCHAR 2460
ENCODING 9312
SWIDTH 960 0
DWIDTH 9 0
BBX 9 9 0 -1
BITMAP
1C00
6300
8880
8880
8880
8880
8880
4100
3E00
ENDCHAR

STARTCHAR 2461
ENCODING 9313
SWIDTH 960 0
DWIDTH 9 0
BBX 9 9 0 -1
BITMAP
1C00
6300
9E80
8280
8480
9880
9080
4F00
3E00
ENDCHAR

STARTCHAR 2462
ENCODING 9314
SWIDTH 960 0
DWIDTH 9 0
BBX 9 9 0 -1
BITMAP
1C00
6300
9C80
8480
8480
8280
A480
5900
3E00
ENDCHAR

STARTCHAR 2463
ENCODING 9315
SWIDTH 960 0
DWIDTH 9 0
BBX 9 9 0 -1
BITMAP
1C00
6300
8880
9880
A880
C880
B880
4100
3E00
ENDCHAR

STARTCHAR 2464
ENCODING 9316
SWIDTH 960 0
DWIDTH 9 0
BBX 9 9 0 -1
BITMAP
1C00
6300
9880
9080
9C80
8280
9280
4D00
3E00
ENDCHAR

STARTCHAR 2465
ENCODING 9317
SWIDTH 960 0
DWIDTH 9 0
BBX 9 9 0 -1
BITMAP
1C00
6300
9C80
A080
9C80
A280
9480
4900
3E00
ENDCHAR

STARTCHAR 2466
ENCODING 9318
SWIDTH 960 0
DWIDTH 9 0
BBX 9 9 0 -1
BITMAP
1C00
6300
9C80
8480
8480
8880
8880
4100
3E00
ENDCHAR

STARTCHAR 2467
ENCODING 9319
SWIDTH 960 0
DWIDTH 9 0
BBX 9 9 0 -1
BITMAP
1C00
6300
9C80
9480
9C80
A280
A280
5D00
3E00
ENDCHAR

STARTCHAR 2468
ENCODING 9320
SWIDTH 960 0
DWIDTH 9 0
BBX 9 9 0 -1
BITMAP
1C00
6300
9C80
A280
9280
8E80
9480
4900
3E00
ENDCHAR

STARTCHAR 2469
ENCODING 9321
SWIDTH 960 0
DWIDTH 9 0
BBX 9 9 0 -1
BITMAP
1C00
6300
AE80
A980
A980
A980
AA80
4500
3E00
ENDCHAR

STARTCHAR 246A
ENCODING 9322
SWIDTH 960 0
DWIDTH 9 0
BBX 9 9 0 -1
BITMAP
1C00
6300
A280
A280
A280
A280
A280
4100
3E00
ENDCHAR

STARTCHAR 246B
ENCODING 9323
SWIDTH 960 0
DWIDTH 9 0
BBX 9 9 0 -1
BITMAP
1C00
6300
A680
A280
A280
A480
A980
4700
3E00
ENDCHAR

STARTCHAR 246C
ENCODING 9324
SWIDTH 960 0
DWIDTH 9 0
BBX 9 9 0 -1
BITMAP
1C00
6300
AE80
A280
A280
A180
A980
4700
3E00
ENDCHAR

STARTCHAR 246D
ENCODING 9325
SWIDTH 960 0
DWIDTH 9 0
BBX 9 9 0 -1
BITMAP
1C00
6300
A280
A680
AA80
B280
AE80
4100
3E00
ENDCHAR

STARTCHAR 246E
ENCODING 9326
SWIDTH 960 0
DWIDTH 9 0
BBX 9 9 0 -1
BITMAP
1C00
6300
A480
A880
AE80
A180
A980
4700
3E00
ENDCHAR

STARTCHAR 246F
ENCODING 9327
SWIDTH 960 0
DWIDTH 9 0
BBX 9 9 0 -1
BITMAP
1C00
6300
AE80
A880
AE80
A980
A980
4700
3E00
ENDCHAR

STARTCHAR 2470
ENCODING 9328
SWIDTH 960 0
DWIDTH 9 0
BBX 9 9 0 -1
BITMAP
1C00
6300
AE80
A280
A480
A480
A480
4100
3E00
ENDCHAR

STARTCHAR 2471
ENCODING 9329
SWIDTH 960 0
DWIDTH 9 0
BBX 9 9 0 -1
BITMAP
1C00
6300
AF80
AA80
A680
A980
A980
4700
3E00
ENDCHAR

STARTCHAR 2472
ENCODING 9330
SWIDTH 960 0
DWIDTH 9 0
BBX 9 9 0 -1
BITMAP
1C00
6300
AE80
A980
A980
A780
AA80
4500
3E00
ENDCHAR

STARTCHAR 2473
ENCODING 9331
SWIDTH 960 0
DWIDTH 9 0
BBX 9 9 0 -1
BITMAP
1C00
6300
B680
8D80
9980
A580
A580
5300
3C00
ENDCHAR

STARTCHAR 2474
ENCODING 9332
SWIDTH 960 0
DWIDTH 9 0
BBX 0 0 0 0
BITMAP
ENDCHAR

STARTCHAR 2475
ENCODING 9333
SWIDTH 960 0
DWIDTH 9 0
BBX 0 0 0 0
BITMAP
ENDCHAR

STARTCHAR 2476
ENCODING 9334
SWIDTH 960 0
DWIDTH 9 0
BBX 0 0 0 0
BITMAP
ENDCHAR

STARTCHAR 2477
ENCODING 9335
SWIDTH 960 0
DWIDTH 9 0
BBX 0 0 0 0
BITMAP
ENDCHAR

STARTCHAR 2478
ENCODING 9336
SWIDTH 960 0
DWIDTH 9 0
BBX 0 0 0 0
BITMAP
ENDCHAR

STARTCHAR 2479
ENCODING 9337
SWIDTH 960 0
DWIDTH 9 0
BBX 0 0 0 0
BITMAP
ENDCHAR

STARTCHAR 247A
ENCODING 9338
SWIDTH 960 0
DWIDTH 9 0
BBX 0 0 0 0
BITMAP
ENDCHAR

STARTCHAR 247B
ENCODING 9339
SWIDTH 960 0
DWIDTH 9 0
BBX 0 0 0 0
BITMAP
ENDCHAR

STARTCHAR 247C
ENCODING 9340
SWIDTH 960 0
DWIDTH 9 0
BBX 0 0 0 0
BITMAP
ENDCHAR

STARTCHAR 247D
ENCODING 9341
SWIDTH 960 0
DWIDTH 9 0
BBX 0 0 0 0
BITMAP
ENDCHAR

STARTCHAR 247E
ENCODING 9342
SWIDTH 960 0
DWIDTH 9 0
BBX 0 0 0 0
BITMAP
ENDCHAR

STARTCHAR 247F
ENCODING 9343
SWIDTH 960 0
DWIDTH 9 0
BBX 0 0 0 0
BITMAP
ENDCHAR

STARTCHAR 2480
ENCODING 9344
SWIDTH 960 0
DWIDTH 9 0
BBX 0 0 0 0
BITMAP
ENDCHAR

STARTCHAR 2481
ENCODING 9345
SWIDTH 960 0
DWIDTH 9 0
BBX 0 0 0 0
BITMAP
ENDCHAR

STARTCHAR 2482
ENCODING 9346
SWIDTH 960 0
DWIDTH 9 0
BBX 0 0 0 0
BITMAP
ENDCHAR

STARTCHAR 2483
ENCODING 9347
SWIDTH 960 0
DWIDTH 9 0
BBX 0 0 0 0
BITMAP
ENDCHAR

STARTCHAR 2484
ENCODING 9348
SWIDTH 960 0
DWIDTH 9 0
BBX 0 0 0 0
BITMAP
ENDCHAR

STARTCHAR 2485
ENCODING 9349
SWIDTH 960 0
DWIDTH 9 0
BBX 0 0 0 0
BITMAP
ENDCHAR

STARTCHAR 2486
ENCODING 9350
SWIDTH 960 0
DWIDTH 9 0
BBX 0 0 0 0
BITMAP
ENDCHAR

STARTCHAR 2487
ENCODING 9351
SWIDTH 960 0
DWIDTH 9 0
BBX 0 0 0 0
BITMAP
ENDCHAR

STARTCHAR 2488
ENCODING 9352
SWIDTH 960 0
DWIDTH 9 0
BBX 0 0 0 0
BITMAP
ENDCHAR

STARTCHAR 2489
ENCODING 9353
SWIDTH 960 0
DWIDTH 9 0
BBX 0 0 0 0
BITMAP
ENDCHAR

STARTCHAR 248A
ENCODING 9354
SWIDTH 960 0
DWIDTH 9 0
BBX 0 0 0 0
BITMAP
ENDCHAR

STARTCHAR 248B
ENCODING 9355
SWIDTH 960 0
DWIDTH 9 0
BBX 0 0 0 0
BITMAP
ENDCHAR

STARTCHAR 248C
ENCODING 9356
SWIDTH 960 0
DWIDTH 9 0
BBX 0 0 0 0
BITMAP
ENDCHAR

STARTCHAR 248D
ENCODING 9357
SWIDTH 960 0
DWIDTH 9 0
BBX 0 0 0 0
BITMAP
ENDCHAR

STARTCHAR 248E
ENCODING 9358
SWIDTH 960 0
DWIDTH 9 0
BBX 0 0 0 0
BITMAP
ENDCHAR

STARTCHAR 248F
ENCODING 9359
SWIDTH 960 0
DWIDTH 9 0
BBX 0 0 0 0
BITMAP
ENDCHAR

STARTCHAR 2490
ENCODING 9360
SWIDTH 960 0
DWIDTH 9 0
BBX 0 0 0 0
BITMAP
ENDCHAR

STARTCHAR 2491
ENCODING 9361
SWIDTH 960 0
DWIDTH 9 0
BBX 0 0 0 0
BITMAP
ENDCHAR

STARTCHAR 2492
ENCODING 9362
SWIDTH 960 0
DWIDTH 9 0
BBX 0 0 0 0
BITMAP
ENDCHAR

STARTCHAR 2493
ENCODING 9363
SWIDTH 960 0
DWIDTH 9 0
BBX 0 0 0 0
BITMAP
ENDCHAR

STARTCHAR 2494
ENCODING 9364
SWIDTH 960 0
DWIDTH 9 0
BBX 0 0 0 0
BITMAP
ENDCHAR

STARTCHAR 2495
ENCODING 9365
SWIDTH 960 0
DWIDTH 9 0
BBX 0 0 0 0
BITMAP
ENDCHAR

STARTCHAR 2496
ENCODING 9366
SWIDTH 960 0
DWIDTH 9 0
BBX 0 0 0 0
BITMAP
ENDCHAR

STARTCHAR 2497
ENCODING 9367
SWIDTH 960 0
DWIDTH 9 0
BBX 0 0 0 0
BITMAP
ENDCHAR

STARTCHAR 2498
ENCODING 9368
SWIDTH 960 0
DWIDTH 9 0
BBX 0 0 0 0
BITMAP
ENDCHAR

STARTCHAR 2499
ENCODING 9369
SWIDTH 960 0
DWIDTH 9 0
BBX 0 0 0 0
BITMAP
ENDCHAR

STARTCHAR 249A
ENCODING 9370
SWIDTH 960 0
DWIDTH 9 0
BBX 0 0 0 0
BITMAP
ENDCHAR

STARTCHAR 249B
ENCODING 9371
SWIDTH 960 0
DWIDTH 9 0
BBX 0 0 0 0
BITMAP
ENDCHAR

STARTCHAR 249C
ENCODING 9372
SWIDTH 960 0
DWIDTH 9 0
BBX 0 0 0 0
BITMAP
ENDCHAR

STARTCHAR 249D
ENCODING 9373
SWIDTH 960 0
DWIDTH 9 0
BBX 0 0 0 0
BITMAP
ENDCHAR

STARTCHAR 249E
ENCODING 9374
SWIDTH 960 0
DWIDTH 9 0
BBX 0 0 0 0
BITMAP
ENDCHAR

STARTCHAR 249F
ENCODING 9375
SWIDTH 960 0
DWIDTH 9 0
BBX 0 0 0 0
BITMAP
ENDCHAR

STARTCHAR 24A0
ENCODING 9376
SWIDTH 960 0
DWIDTH 9 0
BBX 0 0 0 0
BITMAP
ENDCHAR

STARTCHAR 24A1
ENCODING 9377
SWIDTH 960 0
DWIDTH 9 0
BBX 0 0 0 0
BITMAP
ENDCHAR

STARTCHAR 24A2
ENCODING 9378
SWIDTH 960 0
DWIDTH 9 0
BBX 0 0 0 0
BITMAP
ENDCHAR

STARTCHAR 24A3
ENCODING 9379
SWIDTH 960 0
DWIDTH 9 0
BBX 0 0 0 0
BITMAP
ENDCHAR

STARTCHAR 24A4
ENCODING 9380
SWIDTH 960 0
DWIDTH 9 0
BBX 0 0 0 0
BITMAP
ENDCHAR

STARTCHAR 24A5
ENCODING 9381
SWIDTH 960 0
DWIDTH 9 0
BBX 0 0 0 0
BITMAP
ENDCHAR

STARTCHAR 24A6
ENCODING 9382
SWIDTH 960 0
DWIDTH 9 0
BBX 0 0 0 0
BITMAP
ENDCHAR

STARTCHAR 24A7
ENCODING 9383
SWIDTH 960 0
DWIDTH 9 0
BBX 0 0 0 0
BITMAP
ENDCHAR

STARTCHAR 24A8
ENCODING 9384
SWIDTH 960 0
DWIDTH 9 0
BBX 0 0 0 0
BITMAP
ENDCHAR

STARTCHAR 24A9
ENCODING 9385
SWIDTH 960 0
DWIDTH 9 0
BBX 0 0 0 0
BITMAP
ENDCHAR

STARTCHAR 24AA
ENCODING 9386
SWIDTH 960 0
DWIDTH 9 0
BBX 0 0 0 0
BITMAP
ENDCHAR

STARTCHAR 24AB
ENCODING 9387
SWIDTH 960 0
DWIDTH 9 0
BBX 0 0 0 0
BITMAP
ENDCHAR

STARTCHAR 24AC
ENCODING 9388
SWIDTH 960 0
DWIDTH 9 0
BBX 0 0 0 0
BITMAP
ENDCHAR

STARTCHAR 24AD
ENCODING 9389
SWIDTH 960 0
DWIDTH 9 0
BBX 0 0 0 0
BITMAP
ENDCHAR

STARTCHAR 24AE
ENCODING 9390
SWIDTH 960 0
DWIDTH 9 0
BBX 0 0 0 0
BITMAP
ENDCHAR

STARTCHAR 24AF
ENCODING 9391
SWIDTH 960 0
DWIDTH 9 0
BBX 0 0 0 0
BITMAP
ENDCHAR

STARTCHAR 24B0
ENCODING 9392
SWIDTH 960 0
DWIDTH 9 0
BBX 0 0 0 0
BITMAP
ENDCHAR

STARTCHAR 24B1
ENCODING 9393
SWIDTH 960 0
DWIDTH 9 0
BBX 0 0 0 0
BITMAP
ENDCHAR

STARTCHAR 24B2
ENCODING 9394
SWIDTH 960 0
DWIDTH 9 0
BBX 0 0 0 0
BITMAP
ENDCHAR

STARTCHAR 24B3
ENCODING 9395
SWIDTH 960 0
DWIDTH 9 0
BBX 0 0 0 0
BITMAP
ENDCHAR

STARTCHAR 24B4
ENCODING 9396
SWIDTH 960 0
DWIDTH 9 0
BBX 0 0 0 0
BITMAP
ENDCHAR

STARTCHAR 24B5
ENCODING 9397
SWIDTH 960 0
DWIDTH 9 0
BBX 0 0 0 0
BITMAP
ENDCHAR

STARTCHAR 24B6
ENCODING 9398
SWIDTH 960 0
DWIDTH 9 0
BBX 0 0 0 0
BITMAP
ENDCHAR

STARTCHAR 24B7
ENCODING 9399
SWIDTH 960 0
DWIDTH 9 0
BBX 0 0 0 0
BITMAP
ENDCHAR

STARTCHAR 24B8
ENCODING 9400
SWIDTH 960 0
DWIDTH 9 0
BBX 0 0 0 0
BITMAP
ENDCHAR

STARTCHAR 24B9
ENCODING 9401
SWIDTH 960 0
DWIDTH 9 0
BBX 0 0 0 0
BITMAP
ENDCHAR

STARTCHAR 24BA
ENCODING 9402
SWIDTH 960 0
DWIDTH 9 0
BBX 0 0 0 0
BITMAP
ENDCHAR

STARTCHAR 24BB
ENCODING 9403
SWIDTH 960 0
DWIDTH 9 0
BBX 0 0 0 0
BITMAP
ENDCHAR

STARTCHAR 24BC
ENCODING 9404
SWIDTH 960 0
DWIDTH 9 0
BBX 0 0 0 0
BITMAP
ENDCHAR

STARTCHAR 24BD
ENCODING 9405
SWIDTH 960 0
DWIDTH 9 0
BBX 0 0 0 0
BITMAP
ENDCHAR

STARTCHAR 24BE
ENCODING 9406
SWIDTH 960 0
DWIDTH 9 0
BBX 0 0 0 0
BITMAP
ENDCHAR

STARTCHAR 24BF
ENCODING 9407
SWIDTH 960 0
DWIDTH 9 0
BBX 0 0 0 0
BITMAP
ENDCHAR

STARTCHAR 24C0
ENCODING 9408
SWIDTH 960 0
DWIDTH 9 0
BBX 0 0 0 0
BITMAP
ENDCHAR

STARTCHAR 24C1
ENCODING 9409
SWIDTH 960 0
DWIDTH 9 0
BBX 0 0 0 0
BITMAP
ENDCHAR

STARTCHAR 24C2
ENCODING 9410
SWIDTH 960 0
DWIDTH 9 0
BBX 0 0 0 0
BITMAP
ENDCHAR

STARTCHAR 24C3
ENCODING 9411
SWIDTH 960 0
DWIDTH 9 0
BBX 0 0 0 0
BITMAP
ENDCHAR

STARTCHAR 24C4
ENCODING 9412
SWIDTH 960 0
DWIDTH 9 0
BBX 0 0 0 0
BITMAP
ENDCHAR

STARTCHAR 24C5
ENCODING 9413
SWIDTH 960 0
DWIDTH 9 0
BBX 0 0 0 0
BITMAP
ENDCHAR

STARTCHAR 24C6
ENCODING 9414
SWIDTH 960 0
DWIDTH 9 0
BBX 0 0 0 0
BITMAP
ENDCHAR

STARTCHAR 24C7
ENCODING 9415
SWIDTH 960 0
DWIDTH 9 0
BBX 0 0 0 0
BITMAP
ENDCHAR

STARTCHAR 24C8
ENCODING 9416
SWIDTH 960 0
DWIDTH 9 0
BBX 0 0 0 0
BITMAP
ENDCHAR

STARTCHAR 24C9
ENCODING 9417
SWIDTH 960 0
DWIDTH 9 0
BBX 0 0 0 0
BITMAP
ENDCHAR

STARTCHAR 24CA
ENCODING 9418
SWIDTH 960 0
DWIDTH 9 0
BBX 0 0 0 0
BITMAP
ENDCHAR

STARTCHAR 24CB
ENCODING 9419
SWIDTH 960 0
DWIDTH 9 0
BBX 0 0 0 0
BITMAP
ENDCHAR

STARTCHAR 24CC
ENCODING 9420
SWIDTH 960 0
DWIDTH 9 0
BBX 0 0 0 0
BITMAP
ENDCHAR

STARTCHAR 24CD
ENCODING 9421
SWIDTH 960 0
DWIDTH 9 0
BBX 0 0 0 0
BITMAP
ENDCHAR

STARTCHAR 24CE
ENCODING 9422
SWIDTH 960 0
DWIDTH 9 0
BBX 0 0 0 0
BITMAP
ENDCHAR

STARTCHAR 24CF
ENCODING 9423
SWIDTH 960 0
DWIDTH 9 0
BBX 0 0 0 0
BITMAP
ENDCHAR

STARTCHAR 24D0
ENCODING 9424
SWIDTH 960 0
DWIDTH 9 0
BBX 0 0 0 0
BITMAP
ENDCHAR

STARTCHAR 24D1
ENCODING 9425
SWIDTH 960 0
DWIDTH 9 0
BBX 0 0 0 0
BITMAP
ENDCHAR

STARTCHAR 24D2
ENCODING 9426
SWIDTH 960 0
DWIDTH 9 0
BBX 0 0 0 0
BITMAP
ENDCHAR

STARTCHAR 24D3
ENCODING 9427
SWIDTH 960 0
DWIDTH 9 0
BBX 0 0 0 0
BITMAP
ENDCHAR

STARTCHAR 24D4
ENCODING 9428
SWIDTH 960 0
DWIDTH 9 0
BBX 0 0 0 0
BITMAP
ENDCHAR

STARTCHAR 24D5
ENCODING 9429
SWIDTH 960 0
DWIDTH 9 0
BBX 0 0 0 0
BITMAP
ENDCHAR

STARTCHAR 24D6
ENCODING 9430
SWIDTH 960 0
DWIDTH 9 0
BBX 0 0 0 0
BITMAP
ENDCHAR

STARTCHAR 24D7
ENCODING 9431
SWIDTH 960 0
DWIDTH 9 0
BBX 0 0 0 0
BITMAP
ENDCHAR

STARTCHAR 24D8
ENCODING 9432
SWIDTH 960 0
DWIDTH 9 0
BBX 0 0 0 0
BITMAP
ENDCHAR

STARTCHAR 24D9
ENCODING 9433
SWIDTH 960 0
DWIDTH 9 0
BBX 0 0 0 0
BITMAP
ENDCHAR

STARTCHAR 24DA
ENCODING 9434
SWIDTH 960 0
DWIDTH 9 0
BBX 0 0 0 0
BITMAP
ENDCHAR

STARTCHAR 24DB
ENCODING 9435
SWIDTH 960 0
DWIDTH 9 0
BBX 0 0 0 0
BITMAP
ENDCHAR

STARTCHAR 24DC
ENCODING 9436
SWIDTH 960 0
DWIDTH 9 0
BBX 0 0 0 0
BITMAP
ENDCHAR

STARTCHAR 24DD
ENCODING 9437
SWIDTH 960 0
DWIDTH 9 0
BBX 0 0 0 0
BITMAP
ENDCHAR

STARTCHAR 24DE
ENCODING 9438
SWIDTH 960 0
DWIDTH 9 0
BBX 0 0 0 0
BITMAP
ENDCHAR

STARTCHAR 24DF
ENCODING 9439
SWIDTH 960 0
DWIDTH 9 0
BBX 0 0 0 0
BITMAP
ENDCHAR

STARTCHAR 24E0
ENCODING 9440
SWIDTH 960 0
DWIDTH 9 0
BBX 0 0 0 0
BITMAP
ENDCHAR

STARTCHAR 24E1
ENCODING 9441
SWIDTH 960 0
DWIDTH 9 0
BBX 0 0 0 0
BITMAP
ENDCHAR

STARTCHAR 24E2
ENCODING 9442
SWIDTH 960 0
DWIDTH 9 0
BBX 0 0 0 0
BITMAP
ENDCHAR

STARTCHAR 24E3
ENCODING 9443
SWIDTH 960 0
DWIDTH 9 0
BBX 0 0 0 0
BITMAP
ENDCHAR

STARTCHAR 24E4
ENCODING 9444
SWIDTH 960 0
DWIDTH 9 0
BBX 0 0 0 0
BITMAP
ENDCHAR

STARTCHAR 24E5
ENCODING 9445
SWIDTH 960 0
DWIDTH 9 0
BBX 0 0 0 0
BITMAP
ENDCHAR

STARTCHAR 24E6
ENCODING 9446
SWIDTH 960 0
DWIDTH 9 0
BBX 0 0 0 0
BITMAP
ENDCHAR

STARTCHAR 24E7
ENCODING 9447
SWIDTH 960 0
DWIDTH 9 0
BBX 0 0 0 0
BITMAP
ENDCHAR

STARTCHAR 24E8
ENCODING 9448
SWIDTH 960 0
DWIDTH 9 0
BBX 0 0 0 0
BITMAP
ENDCHAR

STARTCHAR 24E9
ENCODING 9449
SWIDTH 960 0
DWIDTH 9 0
BBX 0 0 0 0
BITMAP
ENDCHAR

STARTCHAR 24EA
ENCODING 9450
SWIDTH 960 0
DWIDTH 9 0
BBX 0 0 0 0
BITMAP
ENDCHAR

STARTCHAR 2500
ENCODING 9472
SWIDTH 960 0
DWIDTH 9 0
BBX 9 1 0 3
BITMAP
FF80
ENDCHAR

STARTCHAR 2501
ENCODING 9473
SWIDTH 960 0
DWIDTH 9 0
BBX 9 1 0 3
BITMAP
FF80
ENDCHAR

STARTCHAR 2502
ENCODING 9474
SWIDTH 960 0
DWIDTH 9 0
BBX 1 7 4 0
BITMAP
80
80
80
80
80
80
80
ENDCHAR

STARTCHAR 2503
ENCODING 9475
SWIDTH 960 0
DWIDTH 9 0
BBX 1 9 4 -1
BITMAP
80
80
80
80
80
80
80
80
80
ENDCHAR

STARTCHAR 2504
ENCODING 9476
SWIDTH 426 0
DWIDTH 4 0
BBX 0 0 0 0
BITMAP
ENDCHAR

STARTCHAR 2505
ENCODING 9477
SWIDTH 426 0
DWIDTH 4 0
BBX 0 0 0 0
BITMAP
ENDCHAR

STARTCHAR 2506
ENCODING 9478
SWIDTH 426 0
DWIDTH 4 0
BBX 0 0 0 0
BITMAP
ENDCHAR

STARTCHAR 2507
ENCODING 9479
SWIDTH 426 0
DWIDTH 4 0
BBX 0 0 0 0
BITMAP
ENDCHAR

STARTCHAR 2508
ENCODING 9480
SWIDTH 426 0
DWIDTH 4 0
BBX 0 0 0 0
BITMAP
ENDCHAR

STARTCHAR 2509
ENCODING 9481
SWIDTH 426 0
DWIDTH 4 0
BBX 0 0 0 0
BITMAP
ENDCHAR

STARTCHAR 250A
ENCODING 9482
SWIDTH 426 0
DWIDTH 4 0
BBX 0 0 0 0
BITMAP
ENDCHAR

STARTCHAR 250B
ENCODING 9483
SWIDTH 426 0
DWIDTH 4 0
BBX 0 0 0 0
BITMAP
ENDCHAR

STARTCHAR 250C
ENCODING 9484
SWIDTH 960 0
DWIDTH 9 0
BBX 4 4 5 -1
BITMAP
F0
80
80
80
ENDCHAR

STARTCHAR 250D
ENCODING 9485
SWIDTH 426 0
DWIDTH 4 0
BBX 0 0 0 0
BITMAP
ENDCHAR

STARTCHAR 250E
ENCODING 9486
SWIDTH 426 0
DWIDTH 4 0
BBX 0 0 0 0
BITMAP
ENDCHAR

STARTCHAR 250F
ENCODING 9487
SWIDTH 960 0
DWIDTH 9 0
BBX 5 5 4 -1
BITMAP
F8
80
80
80
80
ENDCHAR

STARTCHAR 2510
ENCODING 9488
SWIDTH 960 0
DWIDTH 9 0
BBX 5 4 0 -1
BITMAP
F8
08
08
08
ENDCHAR

STARTCHAR 2511
ENCODING 9489
SWIDTH 426 0
DWIDTH 4 0
BBX 0 0 0 0
BITMAP
ENDCHAR

STARTCHAR 2512
ENCODING 9490
SWIDTH 426 0
DWIDTH 4 0
BBX 0 0 0 0
BITMAP
ENDCHAR

STARTCHAR 2513
ENCODING 9491
SWIDTH 960 0
DWIDTH 9 0
BBX 5 5 0 -1
BITMAP
F8
08
08
08
08
ENDCHAR

STARTCHAR 2514
ENCODING 9492
SWIDTH 960 0
DWIDTH 9 0
BBX 4 4 5 4
BITMAP
80
80
80
F0
ENDCHAR

STARTCHAR 2515
ENCODING 9493
SWIDTH 426 0
DWIDTH 4 0
BBX 0 0 0 0
BITMAP
ENDCHAR

STARTCHAR 2516
ENCODING 9494
SWIDTH 426 0
DWIDTH 4 0
BBX 0 0 0 0
BITMAP
ENDCHAR

STARTCHAR 2517
ENCODING 9495
SWIDTH 960 0
DWIDTH 9 0
BBX 5 5 4 3
BITMAP
80
80
80
80
F8
ENDCHAR

STARTCHAR 2518
ENCODING 9496
SWIDTH 960 0
DWIDTH 9 0
BBX 5 4 0 4
BITMAP
08
08
08
F8
ENDCHAR

STARTCHAR 2519
ENCODING 9497
SWIDTH 426 0
DWIDTH 4 0
BBX 0 0 0 0
BITMAP
ENDCHAR

STARTCHAR 251A
ENCODING 9498
SWIDTH 426 0
DWIDTH 4 0
BBX 0 0 0 0
BITMAP
ENDCHAR

STARTCHAR 251B
ENCODING 9499
SWIDTH 960 0
DWIDTH 9 0
BBX 5 5 0 3
BITMAP
08
08
08
08
F8
ENDCHAR

STARTCHAR 251C
ENCODING 9500
SWIDTH 960 0
DWIDTH 9 0
BBX 4 7 5 0
BITMAP
80
80
80
F0
80
80
80
ENDCHAR

STARTCHAR 251D
ENCODING 9501
SWIDTH 960 0
DWIDTH 9 0
BBX 4 7 5 0
BITMAP
80
80
80
F0
80
80
80
ENDCHAR

STARTCHAR 251E
ENCODING 9502
SWIDTH 426 0
DWIDTH 4 0
BBX 0 0 0 0
BITMAP
ENDCHAR

STARTCHAR 251F
ENCODING 9503
SWIDTH 426 0
DWIDTH 4 0
BBX 0 0 0 0
BITMAP
ENDCHAR

STARTCHAR 2520
ENCODING 9504
SWIDTH 960 0
DWIDTH 9 0
BBX 5 9 4 -1
BITMAP
80
80
80
80
F8
80
80
80
80
ENDCHAR

STARTCHAR 2521
ENCODING 9505
SWIDTH 426 0
DWIDTH 4 0
BBX 0 0 0 0
BITMAP
ENDCHAR

STARTCHAR 2522
ENCODING 9506
SWIDTH 426 0
DWIDTH 4 0
BBX 0 0 0 0
BITMAP
ENDCHAR

STARTCHAR 2523
ENCODING 9507
SWIDTH 960 0
DWIDTH 9 0
BBX 5 9 4 -1
BITMAP
80
80
80
80
F8
80
80
80
80
ENDCHAR

STARTCHAR 2524
ENCODING 9508
SWIDTH 960 0
DWIDTH 9 0
BBX 5 7 0 0
BITMAP
08
08
08
F8
08
08
08
ENDCHAR

STARTCHAR 2525
ENCODING 9509
SWIDTH 960 0
DWIDTH 9 0
BBX 5 7 0 0
BITMAP
08
08
08
F8
08
08
08
ENDCHAR

STARTCHAR 2526
ENCODING 9510
SWIDTH 426 0
DWIDTH 4 0
BBX 0 0 0 0
BITMAP
ENDCHAR

STARTCHAR 2527
ENCODING 9511
SWIDTH 426 0
DWIDTH 4 0
BBX 0 0 0 0
BITMAP
ENDCHAR

STARTCHAR 2528
ENCODING 9512
SWIDTH 960 0
DWIDTH 9 0
BBX 5 9 0 -1
BITMAP
08
08
08
08
F8
08
08
08
08
ENDCHAR

STARTCHAR 2529
ENCODING 9513
SWIDTH 426 0
DWIDTH 4 0
BBX 0 0 0 0
BITMAP
ENDCHAR

STARTCHAR 252A
ENCODING 9514
SWIDTH 426 0
DWIDTH 4 0
BBX 0 0 0 0
BITMAP
ENDCHAR

STARTCHAR 252B
ENCODING 9515
SWIDTH 960 0
DWIDTH 9 0
BBX 5 9 0 -1
BITMAP
08
08
08
08
F8
08
08
08
08
ENDCHAR

STARTCHAR 252C
ENCODING 9516
SWIDTH 960 0
DWIDTH 9 0
BBX 9 4 0 -1
BITMAP
FF80
0800
0800
0800
ENDCHAR

STARTCHAR 252D
ENCODING 9517
SWIDTH 426 0
DWIDTH 4 0
BBX 0 0 0 0
BITMAP
ENDCHAR

STARTCHAR 252E
ENCODING 9518
SWIDTH 426 0
DWIDTH 4 0
BBX 0 0 0 0
BITMAP
ENDCHAR

STARTCHAR 252F
ENCODING 9519
SWIDTH 960 0
DWIDTH 9 0
BBX 9 4 0 -1
BITMAP
FF80
0800
0800
0800
ENDCHAR

STARTCHAR 2530
ENCODING 9520
SWIDTH 960 0
DWIDTH 9 0
BBX 9 5 0 -1
BITMAP
FF80
0800
0800
0800
0800
ENDCHAR

STARTCHAR 2531
ENCODING 9521
SWIDTH 426 0
DWIDTH 4 0
BBX 0 0 0 0
BITMAP
ENDCHAR

STARTCHAR 2532
ENCODING 9522
SWIDTH 426 0
DWIDTH 4 0
BBX 0 0 0 0
BITMAP
ENDCHAR

STARTCHAR 2533
ENCODING 9523
SWIDTH 960 0
DWIDTH 9 0
BBX 9 5 0 -1
BITMAP
FF80
0800
0800
0800
0800
ENDCHAR

STARTCHAR 2534
ENCODING 9524
SWIDTH 960 0
DWIDTH 9 0
BBX 9 4 0 4
BITMAP
0800
0800
0800
FF80
ENDCHAR

STARTCHAR 2535
ENCODING 9525
SWIDTH 426 0
DWIDTH 4 0
BBX 0 0 0 0
BITMAP
ENDCHAR

STARTCHAR 2536
ENCODING 9526
SWIDTH 426 0
DWIDTH 4 0
BBX 0 0 0 0
BITMAP
ENDCHAR

STARTCHAR 2537
ENCODING 9527
SWIDTH 960 0
DWIDTH 9 0
BBX 9 4 0 4
BITMAP
0800
0800
0800
FF80
ENDCHAR

STARTCHAR 2538
ENCODING 9528
SWIDTH 960 0
DWIDTH 9 0
BBX 9 5 0 3
BITMAP
0800
0800
0800
0800
FF80
ENDCHAR

STARTCHAR 2539
ENCODING 9529
SWIDTH 426 0
DWIDTH 4 0
BBX 0 0 0 0
BITMAP
ENDCHAR

STARTCHAR 253A
ENCODING 9530
SWIDTH 426 0
DWIDTH 4 0
BBX 0 0 0 0
BITMAP
ENDCHAR

STARTCHAR 253B
ENCODING 9531
SWIDTH 960 0
DWIDTH 9 0
BBX 9 5 0 3
BITMAP
0800
0800
0800
0800
FF80
ENDCHAR

STARTCHAR 253C
ENCODING 9532
SWIDTH 960 0
DWIDTH 9 0
BBX 9 7 0 0
BITMAP
0800
0800
0800
FF80
0800
0800
0800
ENDCHAR

STARTCHAR 253D
ENCODING 9533
SWIDTH 426 0
DWIDTH 4 0
BBX 0 0 0 0
BITMAP
ENDCHAR

STARTCHAR 253E
ENCODING 9534
SWIDTH 426 0
DWIDTH 4 0
BBX 0 0 0 0
BITMAP
ENDCHAR

STARTCHAR 253F
ENCODING 9535
SWIDTH 960 0
DWIDTH 9 0
BBX 9 7 0 0
BITMAP
0800
0800
0800
FF80
0800
0800
0800
ENDCHAR

STARTCHAR 2540
ENCODING 9536
SWIDTH 426 0
DWIDTH 4 0
BBX 0 0 0 0
BITMAP
ENDCHAR

STARTCHAR 2541
ENCODING 9537
SWIDTH 426 0
DWIDTH 4 0
BBX 0 0 0 0
BITMAP
ENDCHAR

STARTCHAR 2542
ENCODING 9538
SWIDTH 960 0
DWIDTH 9 0
BBX 9 9 0 -1
BITMAP
0800
0800
0800
0800
FF80
0800
0800
0800
0800
ENDCHAR

STARTCHAR 2543
ENCODING 9539
SWIDTH 426 0
DWIDTH 4 0
BBX 0 0 0 0
BITMAP
ENDCHAR

STARTCHAR 2544
ENCODING 9540
SWIDTH 426 0
DWIDTH 4 0
BBX 0 0 0 0
BITMAP
ENDCHAR

STARTCHAR 2545
ENCODING 9541
SWIDTH 426 0
DWIDTH 4 0
BBX 0 0 0 0
BITMAP
ENDCHAR

STARTCHAR 2546
ENCODING 9542
SWIDTH 426 0
DWIDTH 4 0
BBX 0 0 0 0
BITMAP
ENDCHAR

STARTCHAR 2547
ENCODING 9543
SWIDTH 426 0
DWIDTH 4 0
BBX 0 0 0 0
BITMAP
ENDCHAR

STARTCHAR 2548
ENCODING 9544
SWIDTH 426 0
DWIDTH 4 0
BBX 0 0 0 0
BITMAP
ENDCHAR

STARTCHAR 2549
ENCODING 9545
SWIDTH 426 0
DWIDTH 4 0
BBX 0 0 0 0
BITMAP
ENDCHAR

STARTCHAR 254A
ENCODING 9546
SWIDTH 426 0
DWIDTH 4 0
BBX 0 0 0 0
BITMAP
ENDCHAR

STARTCHAR 254B
ENCODING 9547
SWIDTH 960 0
DWIDTH 9 0
BBX 9 9 0 -1
BITMAP
0800
0800
0800
0800
FF80
0800
0800
0800
0800
ENDCHAR

STARTCHAR 254C
ENCODING 9548
SWIDTH 426 0
DWIDTH 4 0
BBX 0 0 0 0
BITMAP
ENDCHAR

STARTCHAR 254D
ENCODING 9549
SWIDTH 426 0
DWIDTH 4 0
BBX 0 0 0 0
BITMAP
ENDCHAR

STARTCHAR 254E
ENCODING 9550
SWIDTH 426 0
DWIDTH 4 0
BBX 0 0 0 0
BITMAP
ENDCHAR

STARTCHAR 254F
ENCODING 9551
SWIDTH 426 0
DWIDTH 4 0
BBX 0 0 0 0
BITMAP
ENDCHAR

STARTCHAR 2550
ENCODING 9552
SWIDTH 426 0
DWIDTH 4 0
BBX 0 0 0 0
BITMAP
ENDCHAR

STARTCHAR 2551
ENCODING 9553
SWIDTH 426 0
DWIDTH 4 0
BBX 0 0 0 0
BITMAP
ENDCHAR

STARTCHAR 2552
ENCODING 9554
SWIDTH 426 0
DWIDTH 4 0
BBX 0 0 0 0
BITMAP
ENDCHAR

STARTCHAR 2553
ENCODING 9555
SWIDTH 426 0
DWIDTH 4 0
BBX 0 0 0 0
BITMAP
ENDCHAR

STARTCHAR 2554
ENCODING 9556
SWIDTH 426 0
DWIDTH 4 0
BBX 0 0 0 0
BITMAP
ENDCHAR

STARTCHAR 2555
ENCODING 9557
SWIDTH 426 0
DWIDTH 4 0
BBX 0 0 0 0
BITMAP
ENDCHAR

STARTCHAR 2556
ENCODING 9558
SWIDTH 426 0
DWIDTH 4 0
BBX 0 0 0 0
BITMAP
ENDCHAR

STARTCHAR 2557
ENCODING 9559
SWIDTH 426 0
DWIDTH 4 0
BBX 0 0 0 0
BITMAP
ENDCHAR

STARTCHAR 2558
ENCODING 9560
SWIDTH 426 0
DWIDTH 4 0
BBX 0 0 0 0
BITMAP
ENDCHAR

STARTCHAR 2559
ENCODING 9561
SWIDTH 426 0
DWIDTH 4 0
BBX 0 0 0 0
BITMAP
ENDCHAR

STARTCHAR 255A
ENCODING 9562
SWIDTH 426 0
DWIDTH 4 0
BBX 0 0 0 0
BITMAP
ENDCHAR

STARTCHAR 255B
ENCODING 9563
SWIDTH 426 0
DWIDTH 4 0
BBX 0 0 0 0
BITMAP
ENDCHAR

STARTCHAR 255C
ENCODING 9564
SWIDTH 426 0
DWIDTH 4 0
BBX 0 0 0 0
BITMAP
ENDCHAR

STARTCHAR 255D
ENCODING 9565
SWIDTH 426 0
DWIDTH 4 0
BBX 0 0 0 0
BITMAP
ENDCHAR

STARTCHAR 255E
ENCODING 9566
SWIDTH 426 0
DWIDTH 4 0
BBX 0 0 0 0
BITMAP
ENDCHAR

STARTCHAR 255F
ENCODING 9567
SWIDTH 426 0
DWIDTH 4 0
BBX 0 0 0 0
BITMAP
ENDCHAR

STARTCHAR 2560
ENCODING 9568
SWIDTH 426 0
DWIDTH 4 0
BBX 0 0 0 0
BITMAP
ENDCHAR

STARTCHAR 2561
ENCODING 9569
SWIDTH 426 0
DWIDTH 4 0
BBX 0 0 0 0
BITMAP
ENDCHAR

STARTCHAR 2562
ENCODING 9570
SWIDTH 426 0
DWIDTH 4 0
BBX 0 0 0 0
BITMAP
ENDCHAR

STARTCHAR 2563
ENCODING 9571
SWIDTH 426 0
DWIDTH 4 0
BBX 0 0 0 0
BITMAP
ENDCHAR

STARTCHAR 2564
ENCODING 9572
SWIDTH 426 0
DWIDTH 4 0
BBX 0 0 0 0
BITMAP
ENDCHAR

STARTCHAR 2565
ENCODING 9573
SWIDTH 426 0
DWIDTH 4 0
BBX 0 0 0 0
BITMAP
ENDCHAR

STARTCHAR 2566
ENCODING 9574
SWIDTH 426 0
DWIDTH 4 0
BBX 0 0 0 0
BITMAP
ENDCHAR

STARTCHAR 2567
ENCODING 9575
SWIDTH 426 0
DWIDTH 4 0
BBX 0 0 0 0
BITMAP
ENDCHAR

STARTCHAR 2568
ENCODING 9576
SWIDTH 426 0
DWIDTH 4 0
BBX 0 0 0 0
BITMAP
ENDCHAR

STARTCHAR 2569
ENCODING 9577
SWIDTH 426 0
DWIDTH 4 0
BBX 0 0 0 0
BITMAP
ENDCHAR

STARTCHAR 256A
ENCODING 9578
SWIDTH 426 0
DWIDTH 4 0
BBX 0 0 0 0
BITMAP
ENDCHAR

STARTCHAR 256B
ENCODING 9579
SWIDTH 426 0
DWIDTH 4 0
BBX 0 0 0 0
BITMAP
ENDCHAR

STARTCHAR 256C
ENCODING 9580
SWIDTH 426 0
DWIDTH 4 0
BBX 0 0 0 0
BITMAP
ENDCHAR

STARTCHAR 256D
ENCODING 9581
SWIDTH 426 0
DWIDTH 4 0
BBX 0 0 0 0
BITMAP
ENDCHAR

STARTCHAR 256E
ENCODING 9582
SWIDTH 426 0
DWIDTH 4 0
BBX 0 0 0 0
BITMAP
ENDCHAR

STARTCHAR 256F
ENCODING 9583
SWIDTH 426 0
DWIDTH 4 0
BBX 0 0 0 0
BITMAP
ENDCHAR

STARTCHAR 2570
ENCODING 9584
SWIDTH 426 0
DWIDTH 4 0
BBX 0 0 0 0
BITMAP
ENDCHAR

STARTCHAR 2571
ENCODING 9585
SWIDTH 426 0
DWIDTH 4 0
BBX 0 0 0 0
BITMAP
ENDCHAR

STARTCHAR 2572
ENCODING 9586
SWIDTH 426 0
DWIDTH 4 0
BBX 0 0 0 0
BITMAP
ENDCHAR

STARTCHAR 2573
ENCODING 9587
SWIDTH 426 0
DWIDTH 4 0
BBX 0 0 0 0
BITMAP
ENDCHAR

STARTCHAR 2574
ENCODING 9588
SWIDTH 426 0
DWIDTH 4 0
BBX 0 0 0 0
BITMAP
ENDCHAR

STARTCHAR 2575
ENCODING 9589
SWIDTH 426 0
DWIDTH 4 0
BBX 0 0 0 0
BITMAP
ENDCHAR

STARTCHAR 2576
ENCODING 9590
SWIDTH 426 0
DWIDTH 4 0
BBX 0 0 0 0
BITMAP
ENDCHAR

STARTCHAR 2577
ENCODING 9591
SWIDTH 426 0
DWIDTH 4 0
BBX 0 0 0 0
BITMAP
ENDCHAR

STARTCHAR 2578
ENCODING 9592
SWIDTH 426 0
DWIDTH 4 0
BBX 0 0 0 0
BITMAP
ENDCHAR

STARTCHAR 2579
ENCODING 9593
SWIDTH 426 0
DWIDTH 4 0
BBX 0 0 0 0
BITMAP
ENDCHAR

STARTCHAR 257A
ENCODING 9594
SWIDTH 426 0
DWIDTH 4 0
BBX 0 0 0 0
BITMAP
ENDCHAR

STARTCHAR 257B
ENCODING 9595
SWIDTH 426 0
DWIDTH 4 0
BBX 0 0 0 0
BITMAP
ENDCHAR

STARTCHAR 257C
ENCODING 9596
SWIDTH 426 0
DWIDTH 4 0
BBX 0 0 0 0
BITMAP
ENDCHAR

STARTCHAR 257D
ENCODING 9597
SWIDTH 426 0
DWIDTH 4 0
BBX 0 0 0 0
BITMAP
ENDCHAR

STARTCHAR 257E
ENCODING 9598
SWIDTH 426 0
DWIDTH 4 0
BBX 0 0 0 0
BITMAP
ENDCHAR

STARTCHAR 257F
ENCODING 9599
SWIDTH 426 0
DWIDTH 4 0
BBX 0 0 0 0
BITMAP
ENDCHAR

STARTCHAR 2580
ENCODING 9600
SWIDTH 426 0
DWIDTH 4 0
BBX 0 0 0 0
BITMAP
ENDCHAR

STARTCHAR 2581
ENCODING 9601
SWIDTH 426 0
DWIDTH 4 0
BBX 0 0 0 0
BITMAP
ENDCHAR

STARTCHAR 2582
ENCODING 9602
SWIDTH 426 0
DWIDTH 4 0
BBX 0 0 0 0
BITMAP
ENDCHAR

STARTCHAR 2583
ENCODING 9603
SWIDTH 426 0
DWIDTH 4 0
BBX 0 0 0 0
BITMAP
ENDCHAR

STARTCHAR 2584
ENCODING 9604
SWIDTH 426 0
DWIDTH 4 0
BBX 0 0 0 0
BITMAP
ENDCHAR

STARTCHAR 2585
ENCODING 9605
SWIDTH 426 0
DWIDTH 4 0
BBX 0 0 0 0
BITMAP
ENDCHAR

STARTCHAR 2586
ENCODING 9606
SWIDTH 426 0
DWIDTH 4 0
BBX 0 0 0 0
BITMAP
ENDCHAR

STARTCHAR 2587
ENCODING 9607
SWIDTH 426 0
DWIDTH 4 0
BBX 0 0 0 0
BITMAP
ENDCHAR

STARTCHAR 2588
ENCODING 9608
SWIDTH 426 0
DWIDTH 4 0
BBX 0 0 0 0
BITMAP
ENDCHAR

STARTCHAR 2589
ENCODING 9609
SWIDTH 426 0
DWIDTH 4 0
BBX 0 0 0 0
BITMAP
ENDCHAR

STARTCHAR 258A
ENCODING 9610
SWIDTH 426 0
DWIDTH 4 0
BBX 0 0 0 0
BITMAP
ENDCHAR

STARTCHAR 258B
ENCODING 9611
SWIDTH 426 0
DWIDTH 4 0
BBX 0 0 0 0
BITMAP
ENDCHAR

STARTCHAR 258C
ENCODING 9612
SWIDTH 426 0
DWIDTH 4 0
BBX 0 0 0 0
BITMAP
ENDCHAR

STARTCHAR 258D
ENCODING 9613
SWIDTH 426 0
DWIDTH 4 0
BBX 0 0 0 0
BITMAP
ENDCHAR

STARTCHAR 258E
ENCODING 9614
SWIDTH 426 0
DWIDTH 4 0
BBX 0 0 0 0
BITMAP
ENDCHAR

STARTCHAR 258F
ENCODING 9615
SWIDTH 426 0
DWIDTH 4 0
BBX 0 0 0 0
BITMAP
ENDCHAR

STARTCHAR 2590
ENCODING 9616
SWIDTH 426 0
DWIDTH 4 0
BBX 0 0 0 0
BITMAP
ENDCHAR

STARTCHAR 2591
ENCODING 9617
SWIDTH 426 0
DWIDTH 4 0
BBX 0 0 0 0
BITMAP
ENDCHAR

STARTCHAR 2592
ENCODING 9618
SWIDTH 426 0
DWIDTH 4 0
BBX 0 0 0 0
BITMAP
ENDCHAR

STARTCHAR 2593
ENCODING 9619
SWIDTH 426 0
DWIDTH 4 0
BBX 0 0 0 0
BITMAP
ENDCHAR

STARTCHAR 2594
ENCODING 9620
SWIDTH 426 0
DWIDTH 4 0
BBX 0 0 0 0
BITMAP
ENDCHAR

STARTCHAR 2595
ENCODING 9621
SWIDTH 426 0
DWIDTH 4 0
BBX 0 0 0 0
BITMAP
ENDCHAR

STARTCHAR 25A0
ENCODING 9632
SWIDTH 960 0
DWIDTH 9 0
BBX 7 7 1 0
BITMAP
7E
FE
FE
FE
FE
FE
FE
ENDCHAR

STARTCHAR 25A1
ENCODING 9633
SWIDTH 960 0
DWIDTH 9 0
BBX 7 7 1 0
BITMAP
FE
82
82
82
82
82
FE
ENDCHAR

STARTCHAR 25A2
ENCODING 9634
SWIDTH 426 0
DWIDTH 4 0
BBX 0 0 0 0
BITMAP
ENDCHAR

STARTCHAR 25A3
ENCODING 9635
SWIDTH 426 0
DWIDTH 4 0
BBX 0 0 0 0
BITMAP
ENDCHAR

STARTCHAR 25A4
ENCODING 9636
SWIDTH 426 0
DWIDTH 4 0
BBX 0 0 0 0
BITMAP
ENDCHAR

STARTCHAR 25A5
ENCODING 9637
SWIDTH 426 0
DWIDTH 4 0
BBX 0 0 0 0
BITMAP
ENDCHAR

STARTCHAR 25A6
ENCODING 9638
SWIDTH 426 0
DWIDTH 4 0
BBX 0 0 0 0
BITMAP
ENDCHAR

STARTCHAR 25A7
ENCODING 9639
SWIDTH 426 0
DWIDTH 4 0
BBX 0 0 0 0
BITMAP
ENDCHAR

STARTCHAR 25A8
ENCODING 9640
SWIDTH 426 0
DWIDTH 4 0
BBX 0 0 0 0
BITMAP
ENDCHAR

STARTCHAR 25A9
ENCODING 9641
SWIDTH 426 0
DWIDTH 4 0
BBX 0 0 0 0
BITMAP
ENDCHAR

STARTCHAR 25AA
ENCODING 9642
SWIDTH 426 0
DWIDTH 4 0
BBX 0 0 0 0
BITMAP
ENDCHAR

STARTCHAR 25AB
ENCODING 9643
SWIDTH 426 0
DWIDTH 4 0
BBX 0 0 0 0
BITMAP
ENDCHAR

STARTCHAR 25AC
ENCODING 9644
SWIDTH 426 0
DWIDTH 4 0
BBX 0 0 0 0
BITMAP
ENDCHAR

STARTCHAR 25AD
ENCODING 9645
SWIDTH 426 0
DWIDTH 4 0
BBX 0 0 0 0
BITMAP
ENDCHAR

STARTCHAR 25AE
ENCODING 9646
SWIDTH 426 0
DWIDTH 4 0
BBX 0 0 0 0
BITMAP
ENDCHAR

STARTCHAR 25AF
ENCODING 9647
SWIDTH 426 0
DWIDTH 4 0
BBX 0 0 0 0
BITMAP
ENDCHAR

STARTCHAR 25B0
ENCODING 9648
SWIDTH 426 0
DWIDTH 4 0
BBX 0 0 0 0
BITMAP
ENDCHAR

STARTCHAR 25B1
ENCODING 9649
SWIDTH 426 0
DWIDTH 4 0
BBX 0 0 0 0
BITMAP
ENDCHAR

STARTCHAR 25B2
ENCODING 9650
SWIDTH 960 0
DWIDTH 9 0
BBX 7 7 1 1
BITMAP
10
18
38
7C
7C
FE
FE
ENDCHAR

STARTCHAR 25B3
ENCODING 9651
SWIDTH 960 0
DWIDTH 9 0
BBX 7 7 1 1
BITMAP
10
28
48
44
84
82
FE
ENDCHAR

STARTCHAR 25B4
ENCODING 9652
SWIDTH 426 0
DWIDTH 4 0
BBX 0 0 0 0
BITMAP
ENDCHAR

STARTCHAR 25B5
ENCODING 9653
SWIDTH 426 0
DWIDTH 4 0
BBX 0 0 0 0
BITMAP
ENDCHAR

STARTCHAR 25B6
ENCODING 9654
SWIDTH 426 0
DWIDTH 4 0
BBX 0 0 0 0
BITMAP
ENDCHAR

STARTCHAR 25B7
ENCODING 9655
SWIDTH 426 0
DWIDTH 4 0
BBX 0 0 0 0
BITMAP
ENDCHAR

STARTCHAR 25B8
ENCODING 9656
SWIDTH 426 0
DWIDTH 4 0
BBX 0 0 0 0
BITMAP
ENDCHAR

STARTCHAR 25B9
ENCODING 9657
SWIDTH 426 0
DWIDTH 4 0
BBX 0 0 0 0
BITMAP
ENDCHAR

STARTCHAR 25BA
ENCODING 9658
SWIDTH 426 0
DWIDTH 4 0
BBX 0 0 0 0
BITMAP
ENDCHAR

STARTCHAR 25BB
ENCODING 9659
SWIDTH 426 0
DWIDTH 4 0
BBX 0 0 0 0
BITMAP
ENDCHAR

STARTCHAR 25BC
ENCODING 9660
SWIDTH 960 0
DWIDTH 9 0
BBX 7 7 1 -1
BITMAP
FE
FE
7C
7C
38
18
10
ENDCHAR

STARTCHAR 25BD
ENCODING 9661
SWIDTH 960 0
DWIDTH 9 0
BBX 7 7 1 -1
BITMAP
FE
82
84
44
48
28
10
ENDCHAR

STARTCHAR 25BE
ENCODING 9662
SWIDTH 426 0
DWIDTH 4 0
BBX 0 0 0 0
BITMAP
ENDCHAR

STARTCHAR 25BF
ENCODING 9663
SWIDTH 426 0
DWIDTH 4 0
BBX 0 0 0 0
BITMAP
ENDCHAR

STARTCHAR 25C0
ENCODING 9664
SWIDTH 426 0
DWIDTH 4 0
BBX 0 0 0 0
BITMAP
ENDCHAR

STARTCHAR 25C1
ENCODING 9665
SWIDTH 426 0
DWIDTH 4 0
BBX 0 0 0 0
BITMAP
ENDCHAR

STARTCHAR 25C2
ENCODING 9666
SWIDTH 426 0
DWIDTH 4 0
BBX 0 0 0 0
BITMAP
ENDCHAR

STARTCHAR 25C3
ENCODING 9667
SWIDTH 426 0
DWIDTH 4 0
BBX 0 0 0 0
BITMAP
ENDCHAR

STARTCHAR 25C4
ENCODING 9668
SWIDTH 426 0
DWIDTH 4 0
BBX 0 0 0 0
BITMAP
ENDCHAR

STARTCHAR 25C5
ENCODING 9669
SWIDTH 426 0
DWIDTH 4 0
BBX 0 0 0 0
BITMAP
ENDCHAR

STARTCHAR 25C6
ENCODING 9670
SWIDTH 960 0
DWIDTH 9 0
BBX 8 8 1 0
BITMAP
18
3C
7E
FF
FE
7C
38
10
ENDCHAR

STARTCHAR 25C7
ENCODING 9671
SWIDTH 960 0
DWIDTH 9 0
BBX 9 8 0 0
BITMAP
1C00
2200
4100
8080
4100
2200
1400
0800
ENDCHAR

STARTCHAR 25C8
ENCODING 9672
SWIDTH 426 0
DWIDTH 4 0
BBX 0 0 0 0
BITMAP
ENDCHAR

STARTCHAR 25C9
ENCODING 9673
SWIDTH 426 0
DWIDTH 4 0
BBX 0 0 0 0
BITMAP
ENDCHAR

STARTCHAR 25CA
ENCODING 9674
SWIDTH 426 0
DWIDTH 4 0
BBX 0 0 0 0
BITMAP
ENDCHAR

STARTCHAR 25CB
ENCODING 9675
SWIDTH 960 0
DWIDTH 9 0
BBX 7 7 1 0
BITMAP
3C
C2
82
82
82
82
7C
ENDCHAR

STARTCHAR 25CC
ENCODING 9676
SWIDTH 426 0
DWIDTH 4 0
BBX 0 0 0 0
BITMAP
ENDCHAR

STARTCHAR 25CD
ENCODING 9677
SWIDTH 426 0
DWIDTH 4 0
BBX 0 0 0 0
BITMAP
ENDCHAR

STARTCHAR 25CE
ENCODING 9678
SWIDTH 960 0
DWIDTH 9 0
BBX 7 7 1 0
BITMAP
3C
D2
EE
C6
C6
AA
7C
ENDCHAR

STARTCHAR 25CF
ENCODING 9679
SWIDTH 960 0
DWIDTH 9 0
BBX 7 7 1 0
BITMAP
3C
7E
FE
FE
FE
FE
7C
ENDCHAR

STARTCHAR 25D0
ENCODING 9680
SWIDTH 426 0
DWIDTH 4 0
BBX 0 0 0 0
BITMAP
ENDCHAR

STARTCHAR 25D1
ENCODING 9681
SWIDTH 426 0
DWIDTH 4 0
BBX 0 0 0 0
BITMAP
ENDCHAR

STARTCHAR 25D2
ENCODING 9682
SWIDTH 426 0
DWIDTH 4 0
BBX 0 0 0 0
BITMAP
ENDCHAR

STARTCHAR 25D3
ENCODING 9683
SWIDTH 426 0
DWIDTH 4 0
BBX 0 0 0 0
BITMAP
ENDCHAR

STARTCHAR 25D4
ENCODING 9684
SWIDTH 426 0
DWIDTH 4 0
BBX 0 0 0 0
BITMAP
ENDCHAR

STARTCHAR 25D5
ENCODING 9685
SWIDTH 426 0
DWIDTH 4 0
BBX 0 0 0 0
BITMAP
ENDCHAR

STARTCHAR 25D6
ENCODING 9686
SWIDTH 426 0
DWIDTH 4 0
BBX 0 0 0 0
BITMAP
ENDCHAR

STARTCHAR 25D7
ENCODING 9687
SWIDTH 426 0
DWIDTH 4 0
BBX 0 0 0 0
BITMAP
ENDCHAR

STARTCHAR 25D8
ENCODING 9688
SWIDTH 426 0
DWIDTH 4 0
BBX 0 0 0 0
BITMAP
ENDCHAR

STARTCHAR 25D9
ENCODING 9689
SWIDTH 426 0
DWIDTH 4 0
BBX 0 0 0 0
BITMAP
ENDCHAR

STARTCHAR 25DA
ENCODING 9690
SWIDTH 426 0
DWIDTH 4 0
BBX 0 0 0 0
BITMAP
ENDCHAR

STARTCHAR 25DB
ENCODING 9691
SWIDTH 426 0
DWIDTH 4 0
BBX 0 0 0 0
BITMAP
ENDCHAR

STARTCHAR 25DC
ENCODING 9692
SWIDTH 426 0
DWIDTH 4 0
BBX 0 0 0 0
BITMAP
ENDCHAR

STARTCHAR 25DD
ENCODING 9693
SWIDTH 426 0
DWIDTH 4 0
BBX 0 0 0 0
BITMAP
ENDCHAR

STARTCHAR 25DE
ENCODING 9694
SWIDTH 426 0
DWIDTH 4 0
BBX 0 0 0 0
BITMAP
ENDCHAR

STARTCHAR 25DF
ENCODING 9695
SWIDTH 426 0
DWIDTH 4 0
BBX 0 0 0 0
BITMAP
ENDCHAR

STARTCHAR 25E0
ENCODING 9696
SWIDTH 426 0
DWIDTH 4 0
BBX 0 0 0 0
BITMAP
ENDCHAR

STARTCHAR 25E1
ENCODING 9697
SWIDTH 426 0
DWIDTH 4 0
BBX 0 0 0 0
BITMAP
ENDCHAR

STARTCHAR 25E2
ENCODING 9698
SWIDTH 426 0
DWIDTH 4 0
BBX 0 0 0 0
BITMAP
ENDCHAR

STARTCHAR 25E3
ENCODING 9699
SWIDTH 426 0
DWIDTH 4 0
BBX 0 0 0 0
BITMAP
ENDCHAR

STARTCHAR 25E4
ENCODING 9700
SWIDTH 426 0
DWIDTH 4 0
BBX 0 0 0 0
BITMAP
ENDCHAR

STARTCHAR 25E5
ENCODING 9701
SWIDTH 426 0
DWIDTH 4 0
BBX 0 0 0 0
BITMAP
ENDCHAR

STARTCHAR 25E6
ENCODING 9702
SWIDTH 426 0
DWIDTH 4 0
BBX 0 0 0 0
BITMAP
ENDCHAR

STARTCHAR 25E7
ENCODING 9703
SWIDTH 426 0
DWIDTH 4 0
BBX 0 0 0 0
BITMAP
ENDCHAR

STARTCHAR 25E8
ENCODING 9704
SWIDTH 426 0
DWIDTH 4 0
BBX 0 0 0 0
BITMAP
ENDCHAR

STARTCHAR 25E9
ENCODING 9705
SWIDTH 426 0
DWIDTH 4 0
BBX 0 0 0 0
BITMAP
ENDCHAR

STARTCHAR 25EA
ENCODING 9706
SWIDTH 426 0
DWIDTH 4 0
BBX 0 0 0 0
BITMAP
ENDCHAR

STARTCHAR 25EB
ENCODING 9707
SWIDTH 426 0
DWIDTH 4 0
BBX 0 0 0 0
BITMAP
ENDCHAR

STARTCHAR 25EC
ENCODING 9708
SWIDTH 426 0
DWIDTH 4 0
BBX 0 0 0 0
BITMAP
ENDCHAR

STARTCHAR 25ED
ENCODING 9709
SWIDTH 426 0
DWIDTH 4 0
BBX 0 0 0 0
BITMAP
ENDCHAR

STARTCHAR 25EE
ENCODING 9710
SWIDTH 426 0
DWIDTH 4 0
BBX 0 0 0 0
BITMAP
ENDCHAR

STARTCHAR 25EF
ENCODING 9711
SWIDTH 960 0
DWIDTH 9 0
BBX 9 9 0 -1
BITMAP
1C00
6300
8100
8080
8080
8080
8080
4100
3E00
ENDCHAR

STARTCHAR 2600
ENCODING 9728
SWIDTH 960 0
DWIDTH 9 0
BBX 0 0 0 0
BITMAP
ENDCHAR

STARTCHAR 2601
ENCODING 9729
SWIDTH 960 0
DWIDTH 9 0
BBX 0 0 0 0
BITMAP
ENDCHAR

STARTCHAR 2602
ENCODING 9730
SWIDTH 960 0
DWIDTH 9 0
BBX 0 0 0 0
BITMAP
ENDCHAR

STARTCHAR 2603
ENCODING 9731
SWIDTH 960 0
DWIDTH 9 0
BBX 0 0 0 0
BITMAP
ENDCHAR

STARTCHAR 2604
ENCODING 9732
SWIDTH 960 0
DWIDTH 9 0
BBX 0 0 0 0
BITMAP
ENDCHAR

STARTCHAR 2605
ENCODING 9733
SWIDTH 960 0
DWIDTH 9 0
BBX 8 8 1 0
BITMAP
10
18
38
FF
3C
3C
6C
40
ENDCHAR

STARTCHAR 2606
ENCODING 9734
SWIDTH 960 0
DWIDTH 9 0
BBX 8 8 1 0
BITMAP
10
28
28
C7
44
44
7C
40
ENDCHAR

STARTCHAR 2607
ENCODING 9735
SWIDTH 960 0
DWIDTH 9 0
BBX 0 0 0 0
BITMAP
ENDCHAR

STARTCHAR 2608
ENCODING 9736
SWIDTH 960 0
DWIDTH 9 0
BBX 0 0 0 0
BITMAP
ENDCHAR

STARTCHAR 2609
ENCODING 9737
SWIDTH 960 0
DWIDTH 9 0
BBX 0 0 0 0
BITMAP
ENDCHAR

STARTCHAR 260A
ENCODING 9738
SWIDTH 960 0
DWIDTH 9 0
BBX 0 0 0 0
BITMAP
ENDCHAR

STARTCHAR 260B
ENCODING 9739
SWIDTH 960 0
DWIDTH 9 0
BBX 0 0 0 0
BITMAP
ENDCHAR

STARTCHAR 260C
ENCODING 9740
SWIDTH 960 0
DWIDTH 9 0
BBX 0 0 0 0
BITMAP
ENDCHAR

STARTCHAR 260D
ENCODING 9741
SWIDTH 960 0
DWIDTH 9 0
BBX 0 0 0 0
BITMAP
ENDCHAR

STARTCHAR 260E
ENCODING 9742
SWIDTH 960 0
DWIDTH 9 0
BBX 0 0 0 0
BITMAP
ENDCHAR

STARTCHAR 260F
ENCODING 9743
SWIDTH 960 0
DWIDTH 9 0
BBX 0 0 0 0
BITMAP
ENDCHAR

STARTCHAR 2610
ENCODING 9744
SWIDTH 960 0
DWIDTH 9 0
BBX 0 0 0 0
BITMAP
ENDCHAR

STARTCHAR 2611
ENCODING 9745
SWIDTH 960 0
DWIDTH 9 0
BBX 0 0 0 0
BITMAP
ENDCHAR

STARTCHAR 2612
ENCODING 9746
SWIDTH 960 0
DWIDTH 9 0
BBX 0 0 0 0
BITMAP
ENDCHAR

STARTCHAR 2613
ENCODING 9747
SWIDTH 960 0
DWIDTH 9 0
BBX 0 0 0 0
BITMAP
ENDCHAR

STARTCHAR 261A
ENCODING 9754
SWIDTH 960 0
DWIDTH 9 0
BBX 0 0 0 0
BITMAP
ENDCHAR

STARTCHAR 261B
ENCODING 9755
SWIDTH 960 0
DWIDTH 9 0
BBX 0 0 0 0
BITMAP
ENDCHAR

STARTCHAR 261C
ENCODING 9756
SWIDTH 960 0
DWIDTH 9 0
BBX 0 0 0 0
BITMAP
ENDCHAR

STARTCHAR 261D
ENCODING 9757
SWIDTH 960 0
DWIDTH 9 0
BBX 0 0 0 0
BITMAP
ENDCHAR

STARTCHAR 261E
ENCODING 9758
SWIDTH 960 0
DWIDTH 9 0
BBX 0 0 0 0
BITMAP
ENDCHAR

STARTCHAR 261F
ENCODING 9759
SWIDTH 960 0
DWIDTH 9 0
BBX 0 0 0 0
BITMAP
ENDCHAR

STARTCHAR 2620
ENCODING 9760
SWIDTH 960 0
DWIDTH 9 0
BBX 0 0 0 0
BITMAP
ENDCHAR

STARTCHAR 2621
ENCODING 9761
SWIDTH 960 0
DWIDTH 9 0
BBX 0 0 0 0
BITMAP
ENDCHAR

STARTCHAR 2622
ENCODING 9762
SWIDTH 960 0
DWIDTH 9 0
BBX 0 0 0 0
BITMAP
ENDCHAR

STARTCHAR 2623
ENCODING 9763
SWIDTH 960 0
DWIDTH 9 0
BBX 0 0 0 0
BITMAP
ENDCHAR

STARTCHAR 2624
ENCODING 9764
SWIDTH 960 0
DWIDTH 9 0
BBX 0 0 0 0
BITMAP
ENDCHAR

STARTCHAR 2625
ENCODING 9765
SWIDTH 960 0
DWIDTH 9 0
BBX 0 0 0 0
BITMAP
ENDCHAR

STARTCHAR 2626
ENCODING 9766
SWIDTH 960 0
DWIDTH 9 0
BBX 0 0 0 0
BITMAP
ENDCHAR

STARTCHAR 2627
ENCODING 9767
SWIDTH 960 0
DWIDTH 9 0
BBX 0 0 0 0
BITMAP
ENDCHAR

STARTCHAR 2628
ENCODING 9768
SWIDTH 960 0
DWIDTH 9 0
BBX 0 0 0 0
BITMAP
ENDCHAR

STARTCHAR 2629
ENCODING 9769
SWIDTH 960 0
DWIDTH 9 0
BBX 0 0 0 0
BITMAP
ENDCHAR

STARTCHAR 262A
ENCODING 9770
SWIDTH 960 0
DWIDTH 9 0
BBX 0 0 0 0
BITMAP
ENDCHAR

STARTCHAR 262B
ENCODING 9771
SWIDTH 960 0
DWIDTH 9 0
BBX 0 0 0 0
BITMAP
ENDCHAR

STARTCHAR 262C
ENCODING 9772
SWIDTH 960 0
DWIDTH 9 0
BBX 0 0 0 0
BITMAP
ENDCHAR

STARTCHAR 262D
ENCODING 9773
SWIDTH 960 0
DWIDTH 9 0
BBX 0 0 0 0
BITMAP
ENDCHAR

STARTCHAR 262E
ENCODING 9774
SWIDTH 960 0
DWIDTH 9 0
BBX 0 0 0 0
BITMAP
ENDCHAR

STARTCHAR 262F
ENCODING 9775
SWIDTH 960 0
DWIDTH 9 0
BBX 0 0 0 0
BITMAP
ENDCHAR

STARTCHAR 2630
ENCODING 9776
SWIDTH 960 0
DWIDTH 9 0
BBX 0 0 0 0
BITMAP
ENDCHAR

STARTCHAR 2631
ENCODING 9777
SWIDTH 960 0
DWIDTH 9 0
BBX 0 0 0 0
BITMAP
ENDCHAR

STARTCHAR 2632
ENCODING 9778
SWIDTH 960 0
DWIDTH 9 0
BBX 0 0 0 0
BITMAP
ENDCHAR

STARTCHAR 2633
ENCODING 9779
SWIDTH 960 0
DWIDTH 9 0
BBX 0 0 0 0
BITMAP
ENDCHAR

STARTCHAR 2634
ENCODING 9780
SWIDTH 960 0
DWIDTH 9 0
BBX 0 0 0 0
BITMAP
ENDCHAR

STARTCHAR 2635
ENCODING 9781
SWIDTH 960 0
DWIDTH 9 0
BBX 0 0 0 0
BITMAP
ENDCHAR

STARTCHAR 2636
ENCODING 9782
SWIDTH 960 0
DWIDTH 9 0
BBX 0 0 0 0
BITMAP
ENDCHAR

STARTCHAR 2637
ENCODING 9783
SWIDTH 960 0
DWIDTH 9 0
BBX 0 0 0 0
BITMAP
ENDCHAR

STARTCHAR 2638
ENCODING 9784
SWIDTH 960 0
DWIDTH 9 0
BBX 0 0 0 0
BITMAP
ENDCHAR

STARTCHAR 2639
ENCODING 9785
SWIDTH 426 0
DWIDTH 4 0
BBX 0 0 0 0
BITMAP
ENDCHAR

STARTCHAR 263A
ENCODING 9786
SWIDTH 426 0
DWIDTH 4 0
BBX 0 0 0 0
BITMAP
ENDCHAR

STARTCHAR 263B
ENCODING 9787
SWIDTH 426 0
DWIDTH 4 0
BBX 0 0 0 0
BITMAP
ENDCHAR

STARTCHAR 263C
ENCODING 9788
SWIDTH 426 0
DWIDTH 4 0
BBX 0 0 0 0
BITMAP
ENDCHAR

STARTCHAR 263D
ENCODING 9789
SWIDTH 960 0
DWIDTH 9 0
BBX 0 0 0 0
BITMAP
ENDCHAR

STARTCHAR 263E
ENCODING 9790
SWIDTH 960 0
DWIDTH 9 0
BBX 0 0 0 0
BITMAP
ENDCHAR

STARTCHAR 263F
ENCODING 9791
SWIDTH 960 0
DWIDTH 9 0
BBX 0 0 0 0
BITMAP
ENDCHAR

STARTCHAR 2640
ENCODING 9792
SWIDTH 960 0
DWIDTH 9 0
BBX 5 8 2 -1
BITMAP
70
88
90
60
20
78
20
20
ENDCHAR

STARTCHAR 2641
ENCODING 9793
SWIDTH 960 0
DWIDTH 9 0
BBX 0 0 0 0
BITMAP
ENDCHAR

STARTCHAR 2642
ENCODING 9794
SWIDTH 960 0
DWIDTH 9 0
BBX 8 8 1 -1
BITMAP
0F
02
06
08
F0
90
90
60
ENDCHAR

STARTCHAR 2643
ENCODING 9795
SWIDTH 960 0
DWIDTH 9 0
BBX 0 0 0 0
BITMAP
ENDCHAR

STARTCHAR 2644
ENCODING 9796
SWIDTH 960 0
DWIDTH 9 0
BBX 0 0 0 0
BITMAP
ENDCHAR

STARTCHAR 2645
ENCODING 9797
SWIDTH 960 0
DWIDTH 9 0
BBX 0 0 0 0
BITMAP
ENDCHAR

STARTCHAR 2646
ENCODING 9798
SWIDTH 960 0
DWIDTH 9 0
BBX 0 0 0 0
BITMAP
ENDCHAR

STARTCHAR 2647
ENCODING 9799
SWIDTH 960 0
DWIDTH 9 0
BBX 0 0 0 0
BITMAP
ENDCHAR

STARTCHAR 2648
ENCODING 9800
SWIDTH 960 0
DWIDTH 9 0
BBX 0 0 0 0
BITMAP
ENDCHAR

STARTCHAR 2649
ENCODING 9801
SWIDTH 960 0
DWIDTH 9 0
BBX 0 0 0 0
BITMAP
ENDCHAR

STARTCHAR 264A
ENCODING 9802
SWIDTH 960 0
DWIDTH 9 0
BBX 0 0 0 0
BITMAP
ENDCHAR

STARTCHAR 264B
ENCODING 9803
SWIDTH 960 0
DWIDTH 9 0
BBX 0 0 0 0
BITMAP
ENDCHAR

STARTCHAR 264C
ENCODING 9804
SWIDTH 960 0
DWIDTH 9 0
BBX 0 0 0 0
BITMAP
ENDCHAR

STARTCHAR 264D
ENCODING 9805
SWIDTH 960 0
DWIDTH 9 0
BBX 0 0 0 0
BITMAP
ENDCHAR

STARTCHAR 264E
ENCODING 9806
SWIDTH 960 0
DWIDTH 9 0
BBX 0 0 0 0
BITMAP
ENDCHAR

STARTCHAR 264F
ENCODING 9807
SWIDTH 960 0
DWIDTH 9 0
BBX 0 0 0 0
BITMAP
ENDCHAR

STARTCHAR 2650
ENCODING 9808
SWIDTH 960 0
DWIDTH 9 0
BBX 0 0 0 0
BITMAP
ENDCHAR

STARTCHAR 2651
ENCODING 9809
SWIDTH 960 0
DWIDTH 9 0
BBX 0 0 0 0
BITMAP
ENDCHAR

STARTCHAR 2652
ENCODING 9810
SWIDTH 960 0
DWIDTH 9 0
BBX 0 0 0 0
BITMAP
ENDCHAR

STARTCHAR 2653
ENCODING 9811
SWIDTH 960 0
DWIDTH 9 0
BBX 0 0 0 0
BITMAP
ENDCHAR

STARTCHAR 2654
ENCODING 9812
SWIDTH 960 0
DWIDTH 9 0
BBX 0 0 0 0
BITMAP
ENDCHAR

STARTCHAR 2655
ENCODING 9813
SWIDTH 960 0
DWIDTH 9 0
BBX 0 0 0 0
BITMAP
ENDCHAR

STARTCHAR 2656
ENCODING 9814
SWIDTH 960 0
DWIDTH 9 0
BBX 0 0 0 0
BITMAP
ENDCHAR

STARTCHAR 2657
ENCODING 9815
SWIDTH 960 0
DWIDTH 9 0
BBX 0 0 0 0
BITMAP
ENDCHAR

STARTCHAR 2658
ENCODING 9816
SWIDTH 960 0
DWIDTH 9 0
BBX 0 0 0 0
BITMAP
ENDCHAR

STARTCHAR 2659
ENCODING 9817
SWIDTH 960 0
DWIDTH 9 0
BBX 0 0 0 0
BITMAP
ENDCHAR

STARTCHAR 265A
ENCODING 9818
SWIDTH 960 0
DWIDTH 9 0
BBX 0 0 0 0
BITMAP
ENDCHAR

STARTCHAR 265B
ENCODING 9819
SWIDTH 960 0
DWIDTH 9 0
BBX 0 0 0 0
BITMAP
ENDCHAR

STARTCHAR 265C
ENCODING 9820
SWIDTH 960 0
DWIDTH 9 0
BBX 0 0 0 0
BITMAP
ENDCHAR

STARTCHAR 265D
ENCODING 9821
SWIDTH 960 0
DWIDTH 9 0
BBX 0 0 0 0
BITMAP
ENDCHAR

STARTCHAR 265E
ENCODING 9822
SWIDTH 960 0
DWIDTH 9 0
BBX 0 0 0 0
BITMAP
ENDCHAR

STARTCHAR 265F
ENCODING 9823
SWIDTH 960 0
DWIDTH 9 0
BBX 0 0 0 0
BITMAP
ENDCHAR

STARTCHAR 2660
ENCODING 9824
SWIDTH 426 0
DWIDTH 4 0
BBX 0 0 0 0
BITMAP
ENDCHAR

STARTCHAR 2661
ENCODING 9825
SWIDTH 426 0
DWIDTH 4 0
BBX 0 0 0 0
BITMAP
ENDCHAR

STARTCHAR 2662
ENCODING 9826
SWIDTH 426 0
DWIDTH 4 0
BBX 0 0 0 0
BITMAP
ENDCHAR

STARTCHAR 2663
ENCODING 9827
SWIDTH 426 0
DWIDTH 4 0
BBX 0 0 0 0
BITMAP
ENDCHAR

STARTCHAR 2664
ENCODING 9828
SWIDTH 426 0
DWIDTH 4 0
BBX 0 0 0 0
BITMAP
ENDCHAR

STARTCHAR 2665
ENCODING 9829
SWIDTH 426 0
DWIDTH 4 0
BBX 0 0 0 0
BITMAP
ENDCHAR

STARTCHAR 2666
ENCODING 9830
SWIDTH 426 0
DWIDTH 4 0
BBX 0 0 0 0
BITMAP
ENDCHAR

STARTCHAR 2667
ENCODING 9831
SWIDTH 426 0
DWIDTH 4 0
BBX 0 0 0 0
BITMAP
ENDCHAR

STARTCHAR 2668
ENCODING 9832
SWIDTH 960 0
DWIDTH 9 0
BBX 0 0 0 0
BITMAP
ENDCHAR

STARTCHAR 2669
ENCODING 9833
SWIDTH 426 0
DWIDTH 4 0
BBX 0 0 0 0
BITMAP
ENDCHAR

STARTCHAR 266A
ENCODING 9834
SWIDTH 960 0
DWIDTH 9 0
BBX 5 7 2 0
BITMAP
20
38
28
28
28
20
E0
ENDCHAR

STARTCHAR 266B
ENCODING 9835
SWIDTH 426 0
DWIDTH 4 0
BBX 0 0 0 0
BITMAP
ENDCHAR

STARTCHAR 266C
ENCODING 9836
SWIDTH 426 0
DWIDTH 4 0
BBX 0 0 0 0
BITMAP
ENDCHAR

STARTCHAR 266D
ENCODING 9837
SWIDTH 960 0
DWIDTH 9 0
BBX 4 6 3 0
BITMAP
80
80
E0
90
A0
C0
ENDCHAR

STARTCHAR 266E
ENCODING 9838
SWIDTH 426 0
DWIDTH 4 0
BBX 0 0 0 0
BITMAP
ENDCHAR

STARTCHAR 266F
ENCODING 9839
SWIDTH 960 0
DWIDTH 9 0
BBX 5 8 2 0
BITMAP
50
58
F0
50
58
F0
40
40
ENDCHAR

STARTCHAR 2701
ENCODING 9985
SWIDTH 960 0
DWIDTH 9 0
BBX 0 0 0 0
BITMAP
ENDCHAR

STARTCHAR 2702
ENCODING 9986
SWIDTH 960 0
DWIDTH 9 0
BBX 0 0 0 0
BITMAP
ENDCHAR

STARTCHAR 2703
ENCODING 9987
SWIDTH 960 0
DWIDTH 9 0
BBX 0 0 0 0
BITMAP
ENDCHAR

STARTCHAR 2704
ENCODING 9988
SWIDTH 960 0
DWIDTH 9 0
BBX 0 0 0 0
BITMAP
ENDCHAR

STARTCHAR 2706
ENCODING 9990
SWIDTH 960 0
DWIDTH 9 0
BBX 0 0 0 0
BITMAP
ENDCHAR

STARTCHAR 2707
ENCODING 9991
SWIDTH 960 0
DWIDTH 9 0
BBX 0 0 0 0
BITMAP
ENDCHAR

STARTCHAR 2708
ENCODING 9992
SWIDTH 960 0
DWIDTH 9 0
BBX 0 0 0 0
BITMAP
ENDCHAR

STARTCHAR 2709
ENCODING 9993
SWIDTH 960 0
DWIDTH 9 0
BBX 0 0 0 0
BITMAP
ENDCHAR

STARTCHAR 270C
ENCODING 9996
SWIDTH 960 0
DWIDTH 9 0
BBX 0 0 0 0
BITMAP
ENDCHAR

STARTCHAR 270D
ENCODING 9997
SWIDTH 960 0
DWIDTH 9 0
BBX 0 0 0 0
BITMAP
ENDCHAR

STARTCHAR 270E
ENCODING 9998
SWIDTH 960 0
DWIDTH 9 0
BBX 0 0 0 0
BITMAP
ENDCHAR

STARTCHAR 270F
ENCODING 9999
SWIDTH 960 0
DWIDTH 9 0
BBX 0 0 0 0
BITMAP
ENDCHAR

STARTCHAR 2710
ENCODING 10000
SWIDTH 960 0
DWIDTH 9 0
BBX 0 0 0 0
BITMAP
ENDCHAR

STARTCHAR 2711
ENCODING 10001
SWIDTH 960 0
DWIDTH 9 0
BBX 0 0 0 0
BITMAP
ENDCHAR

STARTCHAR 2712
ENCODING 10002
SWIDTH 960 0
DWIDTH 9 0
BBX 0 0 0 0
BITMAP
ENDCHAR

STARTCHAR 2713
ENCODING 10003
SWIDTH 960 0
DWIDTH 9 0
BBX 0 0 0 0
BITMAP
ENDCHAR

STARTCHAR 2714
ENCODING 10004
SWIDTH 960 0
DWIDTH 9 0
BBX 0 0 0 0
BITMAP
ENDCHAR

STARTCHAR 2715
ENCODING 10005
SWIDTH 960 0
DWIDTH 9 0
BBX 0 0 0 0
BITMAP
ENDCHAR

STARTCHAR 2716
ENCODING 10006
SWIDTH 960 0
DWIDTH 9 0
BBX 0 0 0 0
BITMAP
ENDCHAR

STARTCHAR 2717
ENCODING 10007
SWIDTH 960 0
DWIDTH 9 0
BBX 0 0 0 0
BITMAP
ENDCHAR

STARTCHAR 2718
ENCODING 10008
SWIDTH 960 0
DWIDTH 9 0
BBX 0 0 0 0
BITMAP
ENDCHAR

STARTCHAR 2719
ENCODING 10009
SWIDTH 960 0
DWIDTH 9 0
BBX 0 0 0 0
BITMAP
ENDCHAR

STARTCHAR 271A
ENCODING 10010
SWIDTH 960 0
DWIDTH 9 0
BBX 0 0 0 0
BITMAP
ENDCHAR

STARTCHAR 271B
ENCODING 10011
SWIDTH 960 0
DWIDTH 9 0
BBX 0 0 0 0
BITMAP
ENDCHAR

STARTCHAR 271C
ENCODING 10012
SWIDTH 960 0
DWIDTH 9 0
BBX 0 0 0 0
BITMAP
ENDCHAR

STARTCHAR 271D
ENCODING 10013
SWIDTH 960 0
DWIDTH 9 0
BBX 0 0 0 0
BITMAP
ENDCHAR

STARTCHAR 271E
ENCODING 10014
SWIDTH 960 0
DWIDTH 9 0
BBX 0 0 0 0
BITMAP
ENDCHAR

STARTCHAR 271F
ENCODING 10015
SWIDTH 960 0
DWIDTH 9 0
BBX 0 0 0 0
BITMAP
ENDCHAR

STARTCHAR 2720
ENCODING 10016
SWIDTH 960 0
DWIDTH 9 0
BBX 0 0 0 0
BITMAP
ENDCHAR

STARTCHAR 2721
ENCODING 10017
SWIDTH 960 0
DWIDTH 9 0
BBX 0 0 0 0
BITMAP
ENDCHAR

STARTCHAR 2722
ENCODING 10018
SWIDTH 960 0
DWIDTH 9 0
BBX 0 0 0 0
BITMAP
ENDCHAR

STARTCHAR 2723
ENCODING 10019
SWIDTH 960 0
DWIDTH 9 0
BBX 0 0 0 0
BITMAP
ENDCHAR

STARTCHAR 2724
ENCODING 10020
SWIDTH 960 0
DWIDTH 9 0
BBX 0 0 0 0
BITMAP
ENDCHAR

STARTCHAR 2725
ENCODING 10021
SWIDTH 960 0
DWIDTH 9 0
BBX 0 0 0 0
BITMAP
ENDCHAR

STARTCHAR 2726
ENCODING 10022
SWIDTH 960 0
DWIDTH 9 0
BBX 0 0 0 0
BITMAP
ENDCHAR

STARTCHAR 2727
ENCODING 10023
SWIDTH 960 0
DWIDTH 9 0
BBX 0 0 0 0
BITMAP
ENDCHAR

STARTCHAR 2729
ENCODING 10025
SWIDTH 960 0
DWIDTH 9 0
BBX 0 0 0 0
BITMAP
ENDCHAR

STARTCHAR 272A
ENCODING 10026
SWIDTH 960 0
DWIDTH 9 0
BBX 0 0 0 0
BITMAP
ENDCHAR

STARTCHAR 272B
ENCODING 10027
SWIDTH 960 0
DWIDTH 9 0
BBX 0 0 0 0
BITMAP
ENDCHAR

STARTCHAR 272C
ENCODING 10028
SWIDTH 960 0
DWIDTH 9 0
BBX 0 0 0 0
BITMAP
ENDCHAR

STARTCHAR 272D
ENCODING 10029
SWIDTH 960 0
DWIDTH 9 0
BBX 0 0 0 0
BITMAP
ENDCHAR

STARTCHAR 272E
ENCODING 10030
SWIDTH 960 0
DWIDTH 9 0
BBX 0 0 0 0
BITMAP
ENDCHAR

STARTCHAR 272F
ENCODING 10031
SWIDTH 960 0
DWIDTH 9 0
BBX 0 0 0 0
BITMAP
ENDCHAR

STARTCHAR 2730
ENCODING 10032
SWIDTH 960 0
DWIDTH 9 0
BBX 0 0 0 0
BITMAP
ENDCHAR

STARTCHAR 2731
ENCODING 10033
SWIDTH 960 0
DWIDTH 9 0
BBX 0 0 0 0
BITMAP
ENDCHAR

STARTCHAR 2732
ENCODING 10034
SWIDTH 960 0
DWIDTH 9 0
BBX 0 0 0 0
BITMAP
ENDCHAR

STARTCHAR 2733
ENCODING 10035
SWIDTH 960 0
DWIDTH 9 0
BBX 0 0 0 0
BITMAP
ENDCHAR

STARTCHAR 2734
ENCODING 10036
SWIDTH 960 0
DWIDTH 9 0
BBX 0 0 0 0
BITMAP
ENDCHAR

STARTCHAR 2735
ENCODING 10037
SWIDTH 960 0
DWIDTH 9 0
BBX 0 0 0 0
BITMAP
ENDCHAR

STARTCHAR 2736
ENCODING 10038
SWIDTH 960 0
DWIDTH 9 0
BBX 0 0 0 0
BITMAP
ENDCHAR

STARTCHAR 2737
ENCODING 10039
SWIDTH 960 0
DWIDTH 9 0
BBX 0 0 0 0
BITMAP
ENDCHAR

STARTCHAR 2738
ENCODING 10040
SWIDTH 960 0
DWIDTH 9 0
BBX 0 0 0 0
BITMAP
ENDCHAR

STARTCHAR 2739
ENCODING 10041
SWIDTH 960 0
DWIDTH 9 0
BBX 0 0 0 0
BITMAP
ENDCHAR

STARTCHAR 273A
ENCODING 10042
SWIDTH 960 0
DWIDTH 9 0
BBX 0 0 0 0
BITMAP
ENDCHAR

STARTCHAR 273B
ENCODING 10043
SWIDTH 960 0
DWIDTH 9 0
BBX 0 0 0 0
BITMAP
ENDCHAR

STARTCHAR 273C
ENCODING 10044
SWIDTH 960 0
DWIDTH 9 0
BBX 0 0 0 0
BITMAP
ENDCHAR

STARTCHAR 273D
ENCODING 10045
SWIDTH 960 0
DWIDTH 9 0
BBX 0 0 0 0
BITMAP
ENDCHAR

STARTCHAR 273E
ENCODING 10046
SWIDTH 960 0
DWIDTH 9 0
BBX 0 0 0 0
BITMAP
ENDCHAR

STARTCHAR 273F
ENCODING 10047
SWIDTH 960 0
DWIDTH 9 0
BBX 0 0 0 0
BITMAP
ENDCHAR

STARTCHAR 2740
ENCODING 10048
SWIDTH 960 0
DWIDTH 9 0
BBX 0 0 0 0
BITMAP
ENDCHAR

STARTCHAR 2741
ENCODING 10049
SWIDTH 960 0
DWIDTH 9 0
BBX 0 0 0 0
BITMAP
ENDCHAR

STARTCHAR 2742
ENCODING 10050
SWIDTH 960 0
DWIDTH 9 0
BBX 0 0 0 0
BITMAP
ENDCHAR

STARTCHAR 2743
ENCODING 10051
SWIDTH 960 0
DWIDTH 9 0
BBX 0 0 0 0
BITMAP
ENDCHAR

STARTCHAR 2744
ENCODING 10052
SWIDTH 960 0
DWIDTH 9 0
BBX 0 0 0 0
BITMAP
ENDCHAR

STARTCHAR 2745
ENCODING 10053
SWIDTH 960 0
DWIDTH 9 0
BBX 0 0 0 0
BITMAP
ENDCHAR

STARTCHAR 2746
ENCODING 10054
SWIDTH 960 0
DWIDTH 9 0
BBX 0 0 0 0
BITMAP
ENDCHAR

STARTCHAR 2747
ENCODING 10055
SWIDTH 960 0
DWIDTH 9 0
BBX 0 0 0 0
BITMAP
ENDCHAR

STARTCHAR 2748
ENCODING 10056
SWIDTH 960 0
DWIDTH 9 0
BBX 0 0 0 0
BITMAP
ENDCHAR

STARTCHAR 2749
ENCODING 10057
SWIDTH 960 0
DWIDTH 9 0
BBX 0 0 0 0
BITMAP
ENDCHAR

STARTCHAR 274A
ENCODING 10058
SWIDTH 960 0
DWIDTH 9 0
BBX 0 0 0 0
BITMAP
ENDCHAR

STARTCHAR 274B
ENCODING 10059
SWIDTH 960 0
DWIDTH 9 0
BBX 0 0 0 0
BITMAP
ENDCHAR

STARTCHAR 274D
ENCODING 10061
SWIDTH 960 0
DWIDTH 9 0
BBX 0 0 0 0
BITMAP
ENDCHAR

STARTCHAR 274F
ENCODING 10063
SWIDTH 960 0
DWIDTH 9 0
BBX 0 0 0 0
BITMAP
ENDCHAR

STARTCHAR 2750
ENCODING 10064
SWIDTH 960 0
DWIDTH 9 0
BBX 0 0 0 0
BITMAP
ENDCHAR

STARTCHAR 2751
ENCODING 10065
SWIDTH 960 0
DWIDTH 9 0
BBX 0 0 0 0
BITMAP
ENDCHAR

STARTCHAR 2752
ENCODING 10066
SWIDTH 960 0
DWIDTH 9 0
BBX 0 0 0 0
BITMAP
ENDCHAR

STARTCHAR 2756
ENCODING 10070
SWIDTH 960 0
DWIDTH 9 0
BBX 0 0 0 0
BITMAP
ENDCHAR

STARTCHAR 2758
ENCODING 10072
SWIDTH 960 0
DWIDTH 9 0
BBX 0 0 0 0
BITMAP
ENDCHAR

STARTCHAR 2759
ENCODING 10073
SWIDTH 960 0
DWIDTH 9 0
BBX 0 0 0 0
BITMAP
ENDCHAR

STARTCHAR 275A
ENCODING 10074
SWIDTH 960 0
DWIDTH 9 0
BBX 0 0 0 0
BITMAP
ENDCHAR

STARTCHAR 275B
ENCODING 10075
SWIDTH 960 0
DWIDTH 9 0
BBX 0 0 0 0
BITMAP
ENDCHAR

STARTCHAR 275C
ENCODING 10076
SWIDTH 960 0
DWIDTH 9 0
BBX 0 0 0 0
BITMAP
ENDCHAR

STARTCHAR 275D
ENCODING 10077
SWIDTH 960 0
DWIDTH 9 0
BBX 0 0 0 0
BITMAP
ENDCHAR

STARTCHAR 275E
ENCODING 10078
SWIDTH 960 0
DWIDTH 9 0
BBX 0 0 0 0
BITMAP
ENDCHAR

STARTCHAR 2761
ENCODING 10081
SWIDTH 960 0
DWIDTH 9 0
BBX 0 0 0 0
BITMAP
ENDCHAR

STARTCHAR 2762
ENCODING 10082
SWIDTH 960 0
DWIDTH 9 0
BBX 0 0 0 0
BITMAP
ENDCHAR

STARTCHAR 2763
ENCODING 10083
SWIDTH 960 0
DWIDTH 9 0
BBX 0 0 0 0
BITMAP
ENDCHAR

STARTCHAR 2764
ENCODING 10084
SWIDTH 960 0
DWIDTH 9 0
BBX 0 0 0 0
BITMAP
ENDCHAR

STARTCHAR 2765
ENCODING 10085
SWIDTH 960 0
DWIDTH 9 0
BBX 0 0 0 0
BITMAP
ENDCHAR

STARTCHAR 2766
ENCODING 10086
SWIDTH 960 0
DWIDTH 9 0
BBX 0 0 0 0
BITMAP
ENDCHAR

STARTCHAR 2767
ENCODING 10087
SWIDTH 960 0
DWIDTH 9 0
BBX 0 0 0 0
BITMAP
ENDCHAR

STARTCHAR 2776
ENCODING 10102
SWIDTH 960 0
DWIDTH 9 0
BBX 0 0 0 0
BITMAP
ENDCHAR

STARTCHAR 2777
ENCODING 10103
SWIDTH 960 0
DWIDTH 9 0
BBX 0 0 0 0
BITMAP
ENDCHAR

STARTCHAR 2778
ENCODING 10104
SWIDTH 960 0
DWIDTH 9 0
BBX 0 0 0 0
BITMAP
ENDCHAR

STARTCHAR 2779
ENCODING 10105
SWIDTH 960 0
DWIDTH 9 0
BBX 0 0 0 0
BITMAP
ENDCHAR

STARTCHAR 277A
ENCODING 10106
SWIDTH 960 0
DWIDTH 9 0
BBX 0 0 0 0
BITMAP
ENDCHAR

STARTCHAR 277B
ENCODING 10107
SWIDTH 960 0
DWIDTH 9 0
BBX 0 0 0 0
BITMAP
ENDCHAR

STARTCHAR 277C
ENCODING 10108
SWIDTH 960 0
DWIDTH 9 0
BBX 0 0 0 0
BITMAP
ENDCHAR

STARTCHAR 277D
ENCODING 10109
SWIDTH 960 0
DWIDTH 9 0
BBX 0 0 0 0
BITMAP
ENDCHAR

STARTCHAR 277E
ENCODING 10110
SWIDTH 960 0
DWIDTH 9 0
BBX 0 0 0 0
BITMAP
ENDCHAR

STARTCHAR 277F
ENCODING 10111
SWIDTH 960 0
DWIDTH 9 0
BBX 0 0 0 0
BITMAP
ENDCHAR

STARTCHAR 2780
ENCODING 10112
SWIDTH 960 0
DWIDTH 9 0
BBX 0 0 0 0
BITMAP
ENDCHAR

STARTCHAR 2781
ENCODING 10113
SWIDTH 960 0
DWIDTH 9 0
BBX 0 0 0 0
BITMAP
ENDCHAR

STARTCHAR 2782
ENCODING 10114
SWIDTH 960 0
DWIDTH 9 0
BBX 0 0 0 0
BITMAP
ENDCHAR

STARTCHAR 2783
ENCODING 10115
SWIDTH 960 0
DWIDTH 9 0
BBX 0 0 0 0
BITMAP
ENDCHAR

STARTCHAR 2784
ENCODING 10116
SWIDTH 960 0
DWIDTH 9 0
BBX 0 0 0 0
BITMAP
ENDCHAR

STARTCHAR 2785
ENCODING 10117
SWIDTH 960 0
DWIDTH 9 0
BBX 0 0 0 0
BITMAP
ENDCHAR

STARTCHAR 2786
ENCODING 10118
SWIDTH 960 0
DWIDTH 9 0
BBX 0 0 0 0
BITMAP
ENDCHAR

STARTCHAR 2787
ENCODING 10119
SWIDTH 960 0
DWIDTH 9 0
BBX 0 0 0 0
BITMAP
ENDCHAR

STARTCHAR 2788
ENCODING 10120
SWIDTH 960 0
DWIDTH 9 0
BBX 0 0 0 0
BITMAP
ENDCHAR

STARTCHAR 2789
ENCODING 10121
SWIDTH 960 0
DWIDTH 9 0
BBX 0 0 0 0
BITMAP
ENDCHAR

STARTCHAR 278A
ENCODING 10122
SWIDTH 960 0
DWIDTH 9 0
BBX 0 0 0 0
BITMAP
ENDCHAR

STARTCHAR 278B
ENCODING 10123
SWIDTH 960 0
DWIDTH 9 0
BBX 0 0 0 0
BITMAP
ENDCHAR

STARTCHAR 278C
ENCODING 10124
SWIDTH 960 0
DWIDTH 9 0
BBX 0 0 0 0
BITMAP
ENDCHAR

STARTCHAR 278D
ENCODING 10125
SWIDTH 960 0
DWIDTH 9 0
BBX 0 0 0 0
BITMAP
ENDCHAR

STARTCHAR 278E
ENCODING 10126
SWIDTH 960 0
DWIDTH 9 0
BBX 0 0 0 0
BITMAP
ENDCHAR

STARTCHAR 278F
ENCODING 10127
SWIDTH 960 0
DWIDTH 9 0
BBX 0 0 0 0
BITMAP
ENDCHAR

STARTCHAR 2790
ENCODING 10128
SWIDTH 960 0
DWIDTH 9 0
BBX 0 0 0 0
BITMAP
ENDCHAR

STARTCHAR 2791
ENCODING 10129
SWIDTH 960 0
DWIDTH 9 0
BBX 0 0 0 0
BITMAP
ENDCHAR

STARTCHAR 2792
ENCODING 10130
SWIDTH 960 0
DWIDTH 9 0
BBX 0 0 0 0
BITMAP
ENDCHAR

STARTCHAR 2793
ENCODING 10131
SWIDTH 960 0
DWIDTH 9 0
BBX 0 0 0 0
BITMAP
ENDCHAR

STARTCHAR 2794
ENCODING 10132
SWIDTH 960 0
DWIDTH 9 0
BBX 0 0 0 0
BITMAP
ENDCHAR

STARTCHAR 2798
ENCODING 10136
SWIDTH 960 0
DWIDTH 9 0
BBX 0 0 0 0
BITMAP
ENDCHAR

STARTCHAR 2799
ENCODING 10137
SWIDTH 960 0
DWIDTH 9 0
BBX 0 0 0 0
BITMAP
ENDCHAR

STARTCHAR 279A
ENCODING 10138
SWIDTH 960 0
DWIDTH 9 0
BBX 0 0 0 0
BITMAP
ENDCHAR

STARTCHAR 279B
ENCODING 10139
SWIDTH 960 0
DWIDTH 9 0
BBX 0 0 0 0
BITMAP
ENDCHAR

STARTCHAR 279C
ENCODING 10140
SWIDTH 960 0
DWIDTH 9 0
BBX 0 0 0 0
BITMAP
ENDCHAR

STARTCHAR 279D
ENCODING 10141
SWIDTH 960 0
DWIDTH 9 0
BBX 0 0 0 0
BITMAP
ENDCHAR

STARTCHAR 279E
ENCODING 10142
SWIDTH 960 0
DWIDTH 9 0
BBX 0 0 0 0
BITMAP
ENDCHAR

STARTCHAR 279F
ENCODING 10143
SWIDTH 960 0
DWIDTH 9 0
BBX 0 0 0 0
BITMAP
ENDCHAR

STARTCHAR 27A0
ENCODING 10144
SWIDTH 960 0
DWIDTH 9 0
BBX 0 0 0 0
BITMAP
ENDCHAR

STARTCHAR 27A1
ENCODING 10145
SWIDTH 960 0
DWIDTH 9 0
BBX 0 0 0 0
BITMAP
ENDCHAR

STARTCHAR 27A2
ENCODING 10146
SWIDTH 960 0
DWIDTH 9 0
BBX 0 0 0 0
BITMAP
ENDCHAR

STARTCHAR 27A3
ENCODING 10147
SWIDTH 960 0
DWIDTH 9 0
BBX 0 0 0 0
BITMAP
ENDCHAR

STARTCHAR 27A4
ENCODING 10148
SWIDTH 960 0
DWIDTH 9 0
BBX 0 0 0 0
BITMAP
ENDCHAR

STARTCHAR 27A5
ENCODING 10149
SWIDTH 960 0
DWIDTH 9 0
BBX 0 0 0 0
BITMAP
ENDCHAR

STARTCHAR 27A6
ENCODING 10150
SWIDTH 960 0
DWIDTH 9 0
BBX 0 0 0 0
BITMAP
ENDCHAR

STARTCHAR 27A7
ENCODING 10151
SWIDTH 960 0
DWIDTH 9 0
BBX 0 0 0 0
BITMAP
ENDCHAR

STARTCHAR 27A8
ENCODING 10152
SWIDTH 960 0
DWIDTH 9 0
BBX 0 0 0 0
BITMAP
ENDCHAR

STARTCHAR 27A9
ENCODING 10153
SWIDTH 960 0
DWIDTH 9 0
BBX 0 0 0 0
BITMAP
ENDCHAR

STARTCHAR 27AA
ENCODING 10154
SWIDTH 960 0
DWIDTH 9 0
BBX 0 0 0 0
BITMAP
ENDCHAR

STARTCHAR 27AB
ENCODING 10155
SWIDTH 960 0
DWIDTH 9 0
BBX 0 0 0 0
BITMAP
ENDCHAR

STARTCHAR 27AC
ENCODING 10156
SWIDTH 960 0
DWIDTH 9 0
BBX 0 0 0 0
BITMAP
ENDCHAR

STARTCHAR 27AD
ENCODING 10157
SWIDTH 960 0
DWIDTH 9 0
BBX 0 0 0 0
BITMAP
ENDCHAR

STARTCHAR 27AE
ENCODING 10158
SWIDTH 960 0
DWIDTH 9 0
BBX 0 0 0 0
BITMAP
ENDCHAR

STARTCHAR 27AF
ENCODING 10159
SWIDTH 960 0
DWIDTH 9 0
BBX 0 0 0 0
BITMAP
ENDCHAR

STARTCHAR 27B1
ENCODING 10161
SWIDTH 960 0
DWIDTH 9 0
BBX 0 0 0 0
BITMAP
ENDCHAR

STARTCHAR 27B2
ENCODING 10162
SWIDTH 960 0
DWIDTH 9 0
BBX 0 0 0 0
BITMAP
ENDCHAR

STARTCHAR 27B3
ENCODING 10163
SWIDTH 960 0
DWIDTH 9 0
BBX 0 0 0 0
BITMAP
ENDCHAR

STARTCHAR 27B4
ENCODING 10164
SWIDTH 960 0
DWIDTH 9 0
BBX 0 0 0 0
BITMAP
ENDCHAR

STARTCHAR 27B5
ENCODING 10165
SWIDTH 960 0
DWIDTH 9 0
BBX 0 0 0 0
BITMAP
ENDCHAR

STARTCHAR 27B6
ENCODING 10166
SWIDTH 960 0
DWIDTH 9 0
BBX 0 0 0 0
BITMAP
ENDCHAR

STARTCHAR 27B7
ENCODING 10167
SWIDTH 960 0
DWIDTH 9 0
BBX 0 0 0 0
BITMAP
ENDCHAR

STARTCHAR 27B8
ENCODING 10168
SWIDTH 960 0
DWIDTH 9 0
BBX 0 0 0 0
BITMAP
ENDCHAR

STARTCHAR 27B9
ENCODING 10169
SWIDTH 960 0
DWIDTH 9 0
BBX 0 0 0 0
BITMAP
ENDCHAR

STARTCHAR 27BA
ENCODING 10170
SWIDTH 960 0
DWIDTH 9 0
BBX 0 0 0 0
BITMAP
ENDCHAR

STARTCHAR 27BB
ENCODING 10171
SWIDTH 960 0
DWIDTH 9 0
BBX 0 0 0 0
BITMAP
ENDCHAR

STARTCHAR 27BC
ENCODING 10172
SWIDTH 960 0
DWIDTH 9 0
BBX 0 0 0 0
BITMAP
ENDCHAR

STARTCHAR 27BD
ENCODING 10173
SWIDTH 960 0
DWIDTH 9 0
BBX 0 0 0 0
BITMAP
ENDCHAR

STARTCHAR 27BE
ENCODING 10174
SWIDTH 960 0
DWIDTH 9 0
BBX 0 0 0 0
BITMAP
ENDCHAR

STARTCHAR 3000
ENCODING 12288
SWIDTH 960 0
DWIDTH 9 0
BBX 0 0 0 0
BITMAP
ENDCHAR

STARTCHAR 3001
ENCODING 12289
SWIDTH 960 0
DWIDTH 9 0
BBX 2 1 0 -1
BITMAP
C0
ENDCHAR

STARTCHAR 3002
ENCODING 12290
SWIDTH 960 0
DWIDTH 9 0
BBX 2 2 1 -1
BITMAP
C0
80
ENDCHAR

STARTCHAR 3003
ENCODING 12291
SWIDTH 960 0
DWIDTH 9 0
BBX 3 3 3 2
BITMAP
A0
A0
80
ENDCHAR

STARTCHAR 3004
ENCODING 12292
SWIDTH 960 0
DWIDTH 9 0
BBX 0 0 0 0
BITMAP
ENDCHAR

STARTCHAR 3005
ENCODING 12293
SWIDTH 960 0
DWIDTH 9 0
BBX 5 6 2 0
BITMAP
20
58
90
10
20
10
ENDCHAR

STARTCHAR 3006
ENCODING 12294
SWIDTH 960 0
DWIDTH 9 0
BBX 5 5 2 1
BITMAP
08
D0
A0
D0
80
ENDCHAR

STARTCHAR 3007
ENCODING 12295
SWIDTH 960 0
DWIDTH 9 0
BBX 9 8 0 0
BITMAP
7E00
8100
8080
8080
8080
8100
4100
3E00
ENDCHAR

STARTCHAR 3008
ENCODING 12296
SWIDTH 960 0
DWIDTH 9 0
BBX 4 9 5 -1
BITMAP
10
20
40
80
80
80
40
20
10
ENDCHAR

STARTCHAR 3009
ENCODING 12297
SWIDTH 960 0
DWIDTH 9 0
BBX 5 9 0 -1
BITMAP
80
40
20
10
08
10
20
40
80
ENDCHAR

STARTCHAR 300A
ENCODING 12298
SWIDTH 960 0
DWIDTH 9 0
BBX 6 9 3 -1
BITMAP
04
18
30
60
C0
A0
50
28
14
ENDCHAR

STARTCHAR 300B
ENCODING 12299
SWIDTH 960 0
DWIDTH 9 0
BBX 5 8 1 0
BITMAP
C0
60
30
18
28
50
A0
C0
ENDCHAR

STARTCHAR 300C
ENCODING 12300
SWIDTH 960 0
DWIDTH 9 0
BBX 2 6 7 1
BITMAP
C0
80
80
80
80
80
ENDCHAR

STARTCHAR 300D
ENCODING 12301
SWIDTH 960 0
DWIDTH 9 0
BBX 1 6 2 -1
BITMAP
80
80
80
80
80
80
ENDCHAR

STARTCHAR 300E
ENCODING 12302
SWIDTH 960 0
DWIDTH 9 0
BBX 4 7 5 1
BITMAP
F0
F0
C0
C0
C0
C0
C0
ENDCHAR

STARTCHAR 300F
ENCODING 12303
SWIDTH 960 0
DWIDTH 9 0
BBX 3 7 1 -1
BITMAP
20
60
60
60
60
60
E0
ENDCHAR

STARTCHAR 3010
ENCODING 12304
SWIDTH 960 0
DWIDTH 9 0
BBX 2 9 7 -1
BITMAP
C0
80
00
00
00
00
00
80
80
ENDCHAR

STARTCHAR 3011
ENCODING 12305
SWIDTH 960 0
DWIDTH 9 0
BBX 2 9 1 -1
BITMAP
C0
C0
40
40
40
40
40
40
C0
ENDCHAR

STARTCHAR 3012
ENCODING 12306
SWIDTH 960 0
DWIDTH 9 0
BBX 7 7 1 0
BITMAP
FE
00
FE
10
10
10
10
ENDCHAR

STARTCHAR 3013
ENCODING 12307
SWIDTH 960 0
DWIDTH 9 0
BBX 7 3 1 2
BITMAP
FE
00
FE
ENDCHAR

STARTCHAR 3014
ENCODING 12308
SWIDTH 960 0
DWIDTH 9 0
BBX 3 9 6 -1
BITMAP
20
C0
80
80
80
80
80
80
60
ENDCHAR

STARTCHAR 3015
ENCODING 12309
SWIDTH 960 0
DWIDTH 9 0
BBX 2 8 1 0
BITMAP
C0
40
40
40
40
40
40
80
ENDCHAR

STARTCHAR 3016
ENCODING 12310
SWIDTH 960 0
DWIDTH 9 0
BBX 0 0 0 0
BITMAP
ENDCHAR

STARTCHAR 3017
ENCODING 12311
SWIDTH 960 0
DWIDTH 9 0
BBX 0 0 0 0
BITMAP
ENDCHAR

STARTCHAR 3018
ENCODING 12312
SWIDTH 960 0
DWIDTH 9 0
BBX 0 0 0 0
BITMAP
ENDCHAR

STARTCHAR 3019
ENCODING 12313
SWIDTH 960 0
DWIDTH 9 0
BBX 0 0 0 0
BITMAP
ENDCHAR

STARTCHAR 301A
ENCODING 12314
SWIDTH 960 0
DWIDTH 9 0
BBX 0 0 0 0
BITMAP
ENDCHAR

STARTCHAR 301B
ENCODING 12315
SWIDTH 960 0
DWIDTH 9 0
BBX 0 0 0 0
BITMAP
ENDCHAR

STARTCHAR 301C
ENCODING 12316
SWIDTH 960 0
DWIDTH 9 0
BBX 7 2 1 3
BITMAP
F2
0C
ENDCHAR

STARTCHAR 301D
ENCODING 12317
SWIDTH 960 0
DWIDTH 9 0
BBX 8 9 1 -1
BITMAP
04
0A
02
04
0B
10
EF
58
76
ENDCHAR

STARTCHAR 301E
ENCODING 12318
SWIDTH 960 0
DWIDTH 9 0
BBX 0 0 0 0
BITMAP
ENDCHAR

STARTCHAR 301F
ENCODING 12319
SWIDTH 960 0
DWIDTH 9 0
BBX 9 8 0 -1
BITMAP
2000
3F00
5A00
6A80
4B00
4A00
4B00
8480
ENDCHAR

STARTCHAR 3020
ENCODING 12320
SWIDTH 960 0
DWIDTH 9 0
BBX 0 0 0 0
BITMAP
ENDCHAR

STARTCHAR 3030
ENCODING 12336
SWIDTH 960 0
DWIDTH 9 0
BBX 0 0 0 0
BITMAP
ENDCHAR

STARTCHAR 3031
ENCODING 12337
SWIDTH 960 0
DWIDTH 9 0
BBX 0 0 0 0
BITMAP
ENDCHAR

STARTCHAR 3032
ENCODING 12338
SWIDTH 960 0
DWIDTH 9 0
BBX 0 0 0 0
BITMAP
ENDCHAR

STARTCHAR 3033
ENCODING 12339
SWIDTH 960 0
DWIDTH 9 0
BBX 0 0 0 0
BITMAP
ENDCHAR

STARTCHAR 3034
ENCODING 12340
SWIDTH 960 0
DWIDTH 9 0
BBX 0 0 0 0
BITMAP
ENDCHAR

STARTCHAR 3035
ENCODING 12341
SWIDTH 960 0
DWIDTH 9 0
BBX 0 0 0 0
BITMAP
ENDCHAR

STARTCHAR 3036
ENCODING 12342
SWIDTH 960 0
DWIDTH 9 0
BBX 0 0 0 0
BITMAP
ENDCHAR

STARTCHAR 3037
ENCODING 12343
SWIDTH 960 0
DWIDTH 9 0
BBX 0 0 0 0
BITMAP
ENDCHAR

STARTCHAR 3041
ENCODING 12353
SWIDTH 960 0
DWIDTH 9 0
BBX 5 5 2 0
BITMAP
50
60
78
E8
C8
ENDCHAR

STARTCHAR 3042
ENCODING 12354
SWIDTH 960 0
DWIDTH 9 0
BBX 7 7 1 0
BITMAP
20
F8
48
7E
B2
A2
C4
ENDCHAR

STARTCHAR 3043
ENCODING 12355
SWIDTH 960 0
DWIDTH 9 0
BBX 6 4 2 0
BITMAP
80
88
8C
80
ENDCHAR

STARTCHAR 3044
ENCODING 12356
SWIDTH 960 0
DWIDTH 9 0
BBX 8 5 1 1
BITMAP
84
82
A2
C1
40
ENDCHAR

STARTCHAR 3045
ENCODING 12357
SWIDTH 960 0
DWIDTH 9 0
BBX 3 5 3 0
BITMAP
60
E0
20
20
20
ENDCHAR

STARTCHAR 3046
ENCODING 12358
SWIDTH 960 0
DWIDTH 9 0
BBX 5 9 2 -1
BITMAP
80
70
00
F8
08
08
10
10
20
ENDCHAR

STARTCHAR 3047
ENCODING 12359
SWIDTH 960 0
DWIDTH 9 0
BBX 5 6 2 -1
BITMAP
60
B0
60
20
E0
18
ENDCHAR

STARTCHAR 3048
ENCODING 12360
SWIDTH 960 0
DWIDTH 9 0
BBX 7 7 1 1
BITMAP
38
00
78
10
30
50
8E
ENDCHAR

STARTCHAR 3049
ENCODING 12361
SWIDTH 960 0
DWIDTH 9 0
BBX 6 6 2 -1
BITMAP
48
64
40
78
C0
48
ENDCHAR

STARTCHAR 304A
ENCODING 12362
SWIDTH 960 0
DWIDTH 9 0
BBX 8 7 1 -1
BITMAP
20
2A
71
20
3E
E2
64
ENDCHAR

STARTCHAR 304B
ENCODING 12363
SWIDTH 960 0
DWIDTH 9 0
BBX 8 7 1 0
BITMAP
20
20
D2
51
91
90
90
ENDCHAR

STARTCHAR 304C
ENCODING 12364
SWIDTH 960 0
DWIDTH 9 0
BBX 8 7 1 0
BITMAP
25
26
D2
51
91
90
90
ENDCHAR

STARTCHAR 304D
ENCODING 12365
SWIDTH 960 0
DWIDTH 9 0
BBX 6 7 2 0
BITMAP
60
F0
2C
D0
68
90
F0
ENDCHAR

STARTCHAR 304E
ENCODING 12366
SWIDTH 960 0
DWIDTH 9 0
BBX 7 7 2 1
BITMAP
66
F0
2C
D0
68
90
F0
ENDCHAR

STARTCHAR 304F
ENCODING 12367
SWIDTH 960 0
DWIDTH 9 0
BBX 3 7 3 -1
BITMAP
20
40
80
80
80
40
20
ENDCHAR

STARTCHAR 3050
ENCODING 12368
SWIDTH 960 0
DWIDTH 9 0
BBX 5 7 3 -1
BITMAP
20
48
90
80
80
40
20
ENDCHAR

STARTCHAR 3051
ENCODING 12369
SWIDTH 960 0
DWIDTH 9 0
BBX 7 7 1 -1
BITMAP
04
84
9E
84
84
84
08
ENDCHAR

STARTCHAR 3052
ENCODING 12370
SWIDTH 960 0
DWIDTH 9 0
BBX 8 8 1 -1
BITMAP
01
06
84
9E
84
84
84
08
ENDCHAR

STARTCHAR 3053
ENCODING 12371
SWIDTH 960 0
DWIDTH 9 0
BBX 5 6 2 1
BITMAP
38
00
00
00
80
78
ENDCHAR

STARTCHAR 3054
ENCODING 12372
SWIDTH 960 0
DWIDTH 9 0
BBX 7 8 2 0
BITMAP
04
02
38
00
00
00
80
78
ENDCHAR

STARTCHAR 3055
ENCODING 12373
SWIDTH 960 0
DWIDTH 9 0
BBX 5 7 2 0
BITMAP
20
28
50
08
F8
80
70
ENDCHAR

STARTCHAR 3056
ENCODING 12374
SWIDTH 960 0
DWIDTH 9 0
BBX 7 7 2 1
BITMAP
26
28
50
08
F8
80
70
ENDCHAR

STARTCHAR 3057
ENCODING 12375
SWIDTH 960 0
DWIDTH 9 0
BBX 5 7 2 0
BITMAP
80
80
80
80
80
80
F8
ENDCHAR

STARTCHAR 3058
ENCODING 12376
SWIDTH 960 0
DWIDTH 9 0
BBX 5 7 2 0
BITMAP
88
90
80
80
80
80
F8
ENDCHAR

STARTCHAR 3059
ENCODING 12377
SWIDTH 960 0
DWIDTH 9 0
BBX 7 8 1 -1
BITMAP
10
08
76
90
28
28
10
10
ENDCHAR

STARTCHAR 305A
ENCODING 12378
SWIDTH 960 0
DWIDTH 9 0
BBX 8 8 1 -1
BITMAP
10
0B
74
90
28
28
10
10
ENDCHAR

STARTCHAR 305B
ENCODING 12379
SWIDTH 960 0
DWIDTH 9 0
BBX 8 7 1 0
BITMAP
0C
48
5F
E8
48
40
3E
ENDCHAR

STARTCHAR 305C
ENCODING 12380
SWIDTH 960 0
DWIDTH 9 0
BBX 8 7 1 1
BITMAP
0F
48
5F
E8
48
40
3E
ENDCHAR

STARTCHAR 305D
ENCODING 12381
SWIDTH 960 0
DWIDTH 9 0
BBX 6 7 2 0
BITMAP
78
30
44
B8
20
40
38
ENDCHAR

STARTCHAR 305E
ENCODING 12382
SWIDTH 960 0
DWIDTH 9 0
BBX 7 7 2 1
BITMAP
7E
30
44
B8
20
40
38
ENDCHAR

STARTCHAR 305F
ENCODING 12383
SWIDTH 960 0
DWIDTH 9 0
BBX 7 7 1 0
BITMAP
20
30
46
48
40
80
9E
ENDCHAR

STARTCHAR 3060
ENCODING 12384
SWIDTH 960 0
DWIDTH 9 0
BBX 8 7 1 0
BITMAP
23
32
46
48
40
80
9E
ENDCHAR

STARTCHAR 3061
ENCODING 12385
SWIDTH 960 0
DWIDTH 9 0
BBX 7 7 1 0
BITMAP
20
A8
50
40
3E
02
1C
ENDCHAR

STARTCHAR 3062
ENCODING 12386
SWIDTH 960 0
DWIDTH 9 0
BBX 8 7 1 0
BITMAP
23
A8
50
40
3E
02
1C
ENDCHAR

STARTCHAR 3063
ENCODING 12387
SWIDTH 960 0
DWIDTH 9 0
BBX 5 3 2 0
BITMAP
F8
08
30
ENDCHAR

STARTCHAR 3064
ENCODING 12388
SWIDTH 960 0
DWIDTH 9 0
BBX 7 5 1 1
BITMAP
08
F6
02
02
1C
ENDCHAR

STARTCHAR 3065
ENCODING 12389
SWIDTH 960 0
DWIDTH 9 0
BBX 8 6 1 1
BITMAP
05
08
F6
02
02
1C
ENDCHAR

STARTCHAR 3066
ENCODING 12390
SWIDTH 960 0
DWIDTH 9 0
BBX 7 7 1 0
BITMAP
06
F8
10
20
20
10
0C
ENDCHAR

STARTCHAR 3067
ENCODING 12391
SWIDTH 960 0
DWIDTH 9 0
BBX 7 7 1 0
BITMAP
06
F8
12
20
20
10
0C
ENDCHAR

STARTCHAR 3068
ENCODING 12392
SWIDTH 960 0
DWIDTH 9 0
BBX 5 7 2 0
BITMAP
40
40
48
30
C0
80
F8
ENDCHAR

STARTCHAR 3069
ENCODING 12393
SWIDTH 960 0
DWIDTH 9 0
BBX 7 7 2 0
BITMAP
46
44
48
30
C0
80
F8
ENDCHAR

STARTCHAR 306A
ENCODING 12394
SWIDTH 960 0
DWIDTH 9 0
BBX 7 7 1 1
BITMAP
20
34
42
4C
88
B8
3E
ENDCHAR

STARTCHAR 306B
ENCODING 12395
SWIDTH 960 0
DWIDTH 9 0
BBX 7 7 1 0
BITMAP
80
9E
80
80
80
90
8E
ENDCHAR

STARTCHAR 306C
ENCODING 12396
SWIDTH 960 0
DWIDTH 9 0
BBX 8 7 1 0
BITMAP
10
9C
F2
52
E2
AE
4D
ENDCHAR

STARTCHAR 306D
ENCODING 12397
SWIDTH 960 0
DWIDTH 9 0
BBX 8 7 1 -1
BITMAP
20
40
FE
42
42
DE
4D
ENDCHAR

STARTCHAR 306E
ENCODING 12398
SWIDTH 960 0
DWIDTH 9 0
BBX 7 6 1 0
BITMAP
3C
D2
92
A2
C2
04
ENDCHAR

STARTCHAR 306F
ENCODING 12399
SWIDTH 960 0
DWIDTH 9 0
BBX 8 7 1 0
BITMAP
84
84
8E
84
C4
8C
BF
ENDCHAR

STARTCHAR 3070
ENCODING 12400
SWIDTH 960 0
DWIDTH 9 0
BBX 8 7 1 1
BITMAP
87
84
8E
84
C4
8C
BF
ENDCHAR

STARTCHAR 3071
ENCODING 12401
SWIDTH 960 0
DWIDTH 9 0
BBX 8 7 1 1
BITMAP
87
84
8E
84
C4
8C
BF
ENDCHAR

STARTCHAR 3072
ENCODING 12402
SWIDTH 960 0
DWIDTH 9 0
BBX 7 7 1 0
BITMAP
08
E4
4C
86
84
88
78
ENDCHAR

STARTCHAR 3073
ENCODING 12403
SWIDTH 960 0
DWIDTH 9 0
BBX 7 7 1 1
BITMAP
0A
E4
4C
86
84
88
78
ENDCHAR

STARTCHAR 3074
ENCODING 12404
SWIDTH 960 0
DWIDTH 9 0
BBX 8 7 1 1
BITMAP
0B
E4
4C
86
84
88
78
ENDCHAR

STARTCHAR 3075
ENCODING 12405
SWIDTH 960 0
DWIDTH 9 0
BBX 7 7 2 0
BITMAP
40
30
40
20
3C
D6
30
ENDCHAR

STARTCHAR 3076
ENCODING 12406
SWIDTH 960 0
DWIDTH 9 0
BBX 7 7 2 0
BITMAP
48
30
40
20
3C
D6
30
ENDCHAR

STARTCHAR 3077
ENCODING 12407
SWIDTH 960 0
DWIDTH 9 0
BBX 7 7 2 0
BITMAP
4C
30
40
20
3C
D6
30
ENDCHAR

STARTCHAR 3078
ENCODING 12408
SWIDTH 960 0
DWIDTH 9 0
BBX 8 4 1 2
BITMAP
70
48
86
01
ENDCHAR

STARTCHAR 3079
ENCODING 12409
SWIDTH 960 0
DWIDTH 9 0
BBX 8 6 1 1
BITMAP
02
04
70
48
86
01
ENDCHAR

STARTCHAR 307A
ENCODING 12410
SWIDTH 960 0
DWIDTH 9 0
BBX 8 6 1 1
BITMAP
02
06
70
48
86
01
ENDCHAR

STARTCHAR 307B
ENCODING 12411
SWIDTH 960 0
DWIDTH 9 0
BBX 8 7 1 0
BITMAP
86
9C
86
8C
C4
8C
BF
ENDCHAR

STARTCHAR 307C
ENCODING 12412
SWIDTH 960 0
DWIDTH 9 0
BBX 8 7 1 0
BITMAP
86
9C
86
8C
C4
8C
BF
ENDCHAR

STARTCHAR 307D
ENCODING 12413
SWIDTH 960 0
DWIDTH 9 0
BBX 8 8 1 0
BITMAP
01
87
8C
86
8C
C4
8C
BF
ENDCHAR

STARTCHAR 307E
ENCODING 12414
SWIDTH 960 0
DWIDTH 9 0
BBX 6 7 1 0
BITMAP
10
1C
70
7C
10
30
FC
ENDCHAR

STARTCHAR 307F
ENCODING 12415
SWIDTH 960 0
DWIDTH 9 0
BBX 7 6 1 0
BITMAP
30
50
22
24
DE
C8
ENDCHAR

STARTCHAR 3080
ENCODING 12416
SWIDTH 960 0
DWIDTH 9 0
BBX 8 7 1 0
BITMAP
60
30
46
C9
C4
44
7E
ENDCHAR

STARTCHAR 3081
ENCODING 12417
SWIDTH 960 0
DWIDTH 9 0
BBX 7 7 1 0
BITMAP
08
08
76
D2
E2
E2
04
ENDCHAR

STARTCHAR 3082
ENCODING 12418
SWIDTH 960 0
DWIDTH 9 0
BBX 6 8 2 0
BITMAP
40
40
C0
C0
40
B4
88
78
ENDCHAR

STARTCHAR 3083
ENCODING 12419
SWIDTH 960 0
DWIDTH 9 0
BBX 6 5 2 -1
BITMAP
20
78
C4
28
20
ENDCHAR

STARTCHAR 3084
ENCODING 12420
SWIDTH 960 0
DWIDTH 9 0
BBX 7 7 1 -1
BITMAP
08
78
76
E0
26
10
10
ENDCHAR

STARTCHAR 3085
ENCODING 12421
SWIDTH 960 0
DWIDTH 9 0
BBX 5 5 2 -1
BITMAP
20
B8
E8
E8
B0
ENDCHAR

STARTCHAR 3086
ENCODING 12422
SWIDTH 960 0
DWIDTH 9 0
BBX 7 8 1 -1
BITMAP
18
88
BE
CA
AA
9C
10
20
ENDCHAR

STARTCHAR 3087
ENCODING 12423
SWIDTH 960 0
DWIDTH 9 0
BBX 4 6 2 -1
BITMAP
20
20
30
20
B0
40
ENDCHAR

STARTCHAR 3088
ENCODING 12424
SWIDTH 960 0
DWIDTH 9 0
BBX 6 7 2 0
BITMAP
20
20
38
20
20
A0
FC
ENDCHAR

STARTCHAR 3089
ENCODING 12425
SWIDTH 960 0
DWIDTH 9 0
BBX 6 7 2 1
BITMAP
60
C0
80
80
FC
84
38
ENDCHAR

STARTCHAR 308A
ENCODING 12426
SWIDTH 960 0
DWIDTH 9 0
BBX 5 7 2 -1
BITMAP
90
E8
C8
C8
48
10
10
ENDCHAR

STARTCHAR 308B
ENCODING 12427
SWIDTH 960 0
DWIDTH 9 0
BBX 7 7 1 0
BITMAP
58
30
20
7C
42
82
7C
ENDCHAR

STARTCHAR 308C
ENCODING 12428
SWIDTH 960 0
DWIDTH 9 0
BBX 8 7 1 -1
BITMAP
40
4C
74
44
C4
C5
42
ENDCHAR

STARTCHAR 308D
ENCODING 12429
SWIDTH 960 0
DWIDTH 9 0
BBX 7 7 1 0
BITMAP
58
30
20
7C
42
82
1C
ENDCHAR

STARTCHAR 308E
ENCODING 12430
SWIDTH 960 0
DWIDTH 9 0
BBX 7 6 1 0
BITMAP
20
6C
32
62
A4
20
ENDCHAR

STARTCHAR 308F
ENCODING 12431
SWIDTH 960 0
DWIDTH 9 0
BBX 7 7 1 -1
BITMAP
20
40
FE
22
42
C2
4C
ENDCHAR

STARTCHAR 3090
ENCODING 12432
SWIDTH 960 0
DWIDTH 9 0
BBX 7 7 1 0
BITMAP
10
30
1C
62
A2
CA
1C
ENDCHAR

STARTCHAR 3091
ENCODING 12433
SWIDTH 960 0
DWIDTH 9 0
BBX 8 7 1 -1
BITMAP
38
30
3C
54
38
44
BB
ENDCHAR

STARTCHAR 3092
ENCODING 12434
SWIDTH 960 0
DWIDTH 9 0
BBX 6 7 2 0
BITMAP
40
E0
84
E8
30
C0
78
ENDCHAR

STARTCHAR 3093
ENCODING 12435
SWIDTH 960 0
DWIDTH 9 0
BBX 8 7 1 0
BITMAP
10
20
20
40
71
8A
8C
ENDCHAR

STARTCHAR 3094
ENCODING 12436
SWIDTH 960 0
DWIDTH 9 0
BBX 0 0 0 0
BITMAP
ENDCHAR

STARTCHAR 309B
ENCODING 12443
SWIDTH 960 0
DWIDTH 9 0
BBX 3 2 0 5
BITMAP
A0
40
ENDCHAR

STARTCHAR 309C
ENCODING 12444
SWIDTH 960 0
DWIDTH 9 0
BBX 2 1 0 6
BITMAP
C0
ENDCHAR

STARTCHAR 309D
ENCODING 12445
SWIDTH 960 0
DWIDTH 9 0
BBX 3 3 3 2
BITMAP
C0
20
20
ENDCHAR

STARTCHAR 309E
ENCODING 12446
SWIDTH 960 0
DWIDTH 9 0
BBX 5 4 3 3
BITMAP
08
C0
20
60
ENDCHAR

STARTCHAR 30A1
ENCODING 12449
SWIDTH 960 0
DWIDTH 9 0
BBX 4 5 3 -1
BITMAP
10
F0
60
40
80
ENDCHAR

STARTCHAR 30A2
ENCODING 12450
SWIDTH 960 0
DWIDTH 9 0
BBX 6 7 2 -1
BITMAP
04
FC
28
30
20
40
40
ENDCHAR

STARTCHAR 30A3
ENCODING 12451
SWIDTH 960 0
DWIDTH 9 0
BBX 4 6 2 -1
BITMAP
10
20
60
A0
20
20
ENDCHAR

STARTCHAR 30A4
ENCODING 12452
SWIDTH 960 0
DWIDTH 9 0
BBX 7 7 1 -1
BITMAP
06
08
10
28
D0
10
10
ENDCHAR

STARTCHAR 30A5
ENCODING 12453
SWIDTH 960 0
DWIDTH 9 0
BBX 5 5 2 -1
BITMAP
20
F8
88
10
20
ENDCHAR

STARTCHAR 30A6
ENCODING 12454
SWIDTH 960 0
DWIDTH 9 0
BBX 6 7 2 -1
BITMAP
20
24
DC
88
88
10
20
ENDCHAR

STARTCHAR 30A7
ENCODING 12455
SWIDTH 960 0
DWIDTH 9 0
BBX 6 4 2 0
BITMAP
98
60
24
D8
ENDCHAR

STARTCHAR 30A8
ENCODING 12456
SWIDTH 960 0
DWIDTH 9 0
BBX 8 5 1 1
BITMAP
3E
50
10
10
EF
ENDCHAR

STARTCHAR 30A9
ENCODING 12457
SWIDTH 960 0
DWIDTH 9 0
BBX 5 6 2 -1
BITMAP
10
78
B0
50
B0
10
ENDCHAR

STARTCHAR 30AA
ENCODING 12458
SWIDTH 960 0
DWIDTH 9 0
BBX 7 7 1 -1
BITMAP
08
0A
FC
28
28
48
08
ENDCHAR

STARTCHAR 30AB
ENCODING 12459
SWIDTH 960 0
DWIDTH 9 0
BBX 7 7 1 -1
BITMAP
10
10
FE
14
24
24
4C
ENDCHAR

STARTCHAR 30AC
ENCODING 12460
SWIDTH 960 0
DWIDTH 9 0
BBX 8 7 1 -1
BITMAP
11
12
FE
24
24
24
4C
ENDCHAR

STARTCHAR 30AD
ENCODING 12461
SWIDTH 960 0
DWIDTH 9 0
BBX 7 7 1 -1
BITMAP
20
2C
50
12
BC
50
08
ENDCHAR

STARTCHAR 30AE
ENCODING 12462
SWIDTH 960 0
DWIDTH 9 0
BBX 8 7 1 -1
BITMAP
21
2C
50
12
BC
50
08
ENDCHAR

STARTCHAR 30AF
ENCODING 12463
SWIDTH 960 0
DWIDTH 9 0
BBX 6 7 1 0
BITMAP
30
24
3C
48
88
10
20
ENDCHAR

STARTCHAR 30B0
ENCODING 12464
SWIDTH 960 0
DWIDTH 9 0
BBX 8 7 1 0
BITMAP
31
26
3C
48
88
10
20
ENDCHAR

STARTCHAR 30B1
ENCODING 12465
SWIDTH 960 0
DWIDTH 9 0
BBX 6 7 2 0
BITMAP
40
44
B8
90
10
20
40
ENDCHAR

STARTCHAR 30B2
ENCODING 12466
SWIDTH 960 0
DWIDTH 9 0
BBX 7 7 2 0
BITMAP
42
44
B8
90
10
20
40
ENDCHAR

STARTCHAR 30B3
ENCODING 12467
SWIDTH 960 0
DWIDTH 9 0
BBX 6 5 2 1
BITMAP
0C
F8
08
08
F0
ENDCHAR

STARTCHAR 30B4
ENCODING 12468
SWIDTH 960 0
DWIDTH 9 0
BBX 6 6 2 2
BITMAP
04
0C
F8
08
08
F0
ENDCHAR

STARTCHAR 30B5
ENCODING 12469
SWIDTH 960 0
DWIDTH 9 0
BBX 8 6 1 0
BITMAP
48
48
5F
E8
48
10
ENDCHAR

STARTCHAR 30B6
ENCODING 12470
SWIDTH 960 0
DWIDTH 9 0
BBX 8 6 1 1
BITMAP
49
48
5F
E8
48
10
ENDCHAR

STARTCHAR 30B7
ENCODING 12471
SWIDTH 960 0
DWIDTH 9 0
BBX 6 7 2 0
BITMAP
80
60
00
8C
10
20
C0
ENDCHAR

STARTCHAR 30B8
ENCODING 12472
SWIDTH 960 0
DWIDTH 9 0
BBX 7 7 2 0
BITMAP
8E
64
00
8C
10
20
C0
ENDCHAR

STARTCHAR 30B9
ENCODING 12473
SWIDTH 960 0
DWIDTH 9 0
BBX 7 6 1 0
BITMAP
9C
68
08
14
22
C0
ENDCHAR

STARTCHAR 30BA
ENCODING 12474
SWIDTH 960 0
DWIDTH 9 0
BBX 8 7 1 0
BITMAP
03
9C
68
08
14
22
C0
ENDCHAR

STARTCHAR 30BB
ENCODING 12475
SWIDTH 960 0
DWIDTH 9 0
BBX 7 7 1 0
BITMAP
20
22
3C
E8
20
20
1C
ENDCHAR

STARTCHAR 30BC
ENCODING 12476
SWIDTH 960 0
DWIDTH 9 0
BBX 8 7 1 1
BITMAP
23
22
3C
E8
20
20
1C
ENDCHAR

STARTCHAR 30BD
ENCODING 12477
SWIDTH 960 0
DWIDTH 9 0
BBX 6 7 2 0
BITMAP
08
04
88
08
10
20
40
ENDCHAR

STARTCHAR 30BE
ENCODING 12478
SWIDTH 960 0
DWIDTH 9 0
BBX 7 7 2 1
BITMAP
06
0C
88
08
10
20
40
ENDCHAR

STARTCHAR 30BF
ENCODING 12479
SWIDTH 960 0
DWIDTH 9 0
BBX 6 7 1 0
BITMAP
10
2C
34
58
88
10
20
ENDCHAR

STARTCHAR 30C0
ENCODING 12480
SWIDTH 960 0
DWIDTH 9 0
BBX 8 7 1 1
BITMAP
13
2C
34
58
88
10
20
ENDCHAR

STARTCHAR 30C1
ENCODING 12481
SWIDTH 960 0
DWIDTH 9 0
BBX 7 7 1 0
BITMAP
0C
30
10
FE
10
10
20
ENDCHAR

STARTCHAR 30C2
ENCODING 12482
SWIDTH 960 0
DWIDTH 9 0
BBX 8 7 1 1
BITMAP
0C
33
10
FE
10
10
20
ENDCHAR

STARTCHAR 30C3
ENCODING 12483
SWIDTH 960 0
DWIDTH 9 0
BBX 5 5 2 -1
BITMAP
C8
B0
10
20
40
ENDCHAR

STARTCHAR 30C4
ENCODING 12484
SWIDTH 960 0
DWIDTH 9 0
BBX 7 6 1 1
BITMAP
22
94
44
08
10
20
ENDCHAR

STARTCHAR 30C5
ENCODING 12485
SWIDTH 960 0
DWIDTH 9 0
BBX 8 7 1 1
BITMAP
03
22
94
44
08
10
20
ENDCHAR

STARTCHAR 30C6
ENCODING 12486
SWIDTH 960 0
DWIDTH 9 0
BBX 7 7 1 0
BITMAP
08
70
06
F8
10
20
20
ENDCHAR

STARTCHAR 30C7
ENCODING 12487
SWIDTH 960 0
DWIDTH 9 0
BBX 8 7 1 1
BITMAP
0B
70
06
F8
10
20
20
ENDCHAR

STARTCHAR 30C8
ENCODING 12488
SWIDTH 960 0
DWIDTH 9 0
BBX 4 7 3 -1
BITMAP
80
80
80
E0
90
80
80
ENDCHAR

STARTCHAR 30C9
ENCODING 12489
SWIDTH 960 0
DWIDTH 9 0
BBX 5 7 3 -1
BITMAP
A8
98
80
E0
90
80
80
ENDCHAR

STARTCHAR 30CA
ENCODING 12490
SWIDTH 960 0
DWIDTH 9 0
BBX 7 7 1 0
BITMAP
10
10
1E
F0
10
10
20
ENDCHAR

STARTCHAR 30CB
ENCODING 12491
SWIDTH 960 0
DWIDTH 9 0
BBX 7 5 1 1
BITMAP
04
38
00
00
FE
ENDCHAR

STARTCHAR 30CC
ENCODING 12492
SWIDTH 960 0
DWIDTH 9 0
BBX 6 6 2 0
BITMAP
BC
48
30
10
28
C0
ENDCHAR

STARTCHAR 30CD
ENCODING 12493
SWIDTH 960 0
DWIDTH 9 0
BBX 6 7 2 -1
BITMAP
20
08
70
20
6C
A0
20
ENDCHAR

STARTCHAR 30CE
ENCODING 12494
SWIDTH 960 0
DWIDTH 9 0
BBX 5 6 2 1
BITMAP
08
10
10
20
40
80
ENDCHAR

STARTCHAR 30CF
ENCODING 12495
SWIDTH 960 0
DWIDTH 9 0
BBX 8 4 1 2
BITMAP
24
42
42
81
ENDCHAR

STARTCHAR 30D0
ENCODING 12496
SWIDTH 960 0
DWIDTH 9 0
BBX 8 6 1 1
BITMAP
03
02
24
42
42
81
ENDCHAR

STARTCHAR 30D1
ENCODING 12497
SWIDTH 960 0
DWIDTH 9 0
BBX 8 6 1 1
BITMAP
06
02
24
42
42
81
ENDCHAR

STARTCHAR 30D2
ENCODING 12498
SWIDTH 960 0
DWIDTH 9 0
BBX 5 6 2 1
BITMAP
80
88
F0
80
80
78
ENDCHAR

STARTCHAR 30D3
ENCODING 12499
SWIDTH 960 0
DWIDTH 9 0
BBX 7 7 2 0
BITMAP
02
84
88
F0
80
80
78
ENDCHAR

STARTCHAR 30D4
ENCODING 12500
SWIDTH 960 0
DWIDTH 9 0
BBX 6 7 2 0
BITMAP
0C
84
88
F0
80
80
78
ENDCHAR

STARTCHAR 30D5
ENCODING 12501
SWIDTH 960 0
DWIDTH 9 0
BBX 7 6 1 0
BITMAP
9E
64
04
08
10
20
ENDCHAR

STARTCHAR 30D6
ENCODING 12502
SWIDTH 960 0
DWIDTH 9 0
BBX 8 7 1 1
BITMAP
03
9E
64
04
08
10
20
ENDCHAR

STARTCHAR 30D7
ENCODING 12503
SWIDTH 960 0
DWIDTH 9 0
BBX 8 8 1 0
BITMAP
01
03
9E
64
04
08
10
20
ENDCHAR

STARTCHAR 30D8
ENCODING 12504
SWIDTH 960 0
DWIDTH 9 0
BBX 8 4 1 2
BITMAP
70
8C
02
01
ENDCHAR

STARTCHAR 30D9
ENCODING 12505
SWIDTH 960 0
DWIDTH 9 0
BBX 8 6 1 1
BITMAP
02
04
70
8C
02
01
ENDCHAR

STARTCHAR 30DA
ENCODING 12506
SWIDTH 960 0
DWIDTH 9 0
BBX 8 6 1 1
BITMAP
06
06
70
8C
02
01
ENDCHAR

STARTCHAR 30DB
ENCODING 12507
SWIDTH 960 0
DWIDTH 9 0
BBX 8 7 1 0
BITMAP
10
12
FC
14
52
91
90
ENDCHAR

STARTCHAR 30DC
ENCODING 12508
SWIDTH 960 0
DWIDTH 9 0
BBX 8 7 1 0
BITMAP
13
12
FC
14
52
91
90
ENDCHAR

STARTCHAR 30DD
ENCODING 12509
SWIDTH 960 0
DWIDTH 9 0
BBX 8 7 1 0
BITMAP
13
12
FC
14
52
91
90
ENDCHAR

STARTCHAR 30DE
ENCODING 12510
SWIDTH 960 0
DWIDTH 9 0
BBX 7 5 1 1
BITMAP
06
FA
0C
10
08
ENDCHAR

STARTCHAR 30DF
ENCODING 12511
SWIDTH 960 0
DWIDTH 9 0
BBX 4 7 3 0
BITMAP
40
20
00
E0
00
C0
30
ENDCHAR

STARTCHAR 30E0
ENCODING 12512
SWIDTH 960 0
DWIDTH 9 0
BBX 7 7 1 0
BITMAP
10
10
20
24
42
5E
A0
ENDCHAR

STARTCHAR 30E1
ENCODING 12513
SWIDTH 960 0
DWIDTH 9 0
BBX 5 6 2 1
BITMAP
08
10
70
28
40
80
ENDCHAR

STARTCHAR 30E2
ENCODING 12514
SWIDTH 960 0
DWIDTH 9 0
BBX 6 6 2 0
BITMAP
F8
20
3C
E0
20
18
ENDCHAR

STARTCHAR 30E3
ENCODING 12515
SWIDTH 960 0
DWIDTH 9 0
BBX 6 5 2 -1
BITMAP
40
5C
E0
20
20
ENDCHAR

STARTCHAR 30E4
ENCODING 12516
SWIDTH 960 0
DWIDTH 9 0
BBX 7 7 1 -1
BITMAP
20
22
3C
E0
10
10
10
ENDCHAR

STARTCHAR 30E5
ENCODING 12517
SWIDTH 960 0
DWIDTH 9 0
BBX 5 4 2 0
BITMAP
B0
50
10
E8
ENDCHAR

STARTCHAR 30E6
ENCODING 12518
SWIDTH 960 0
DWIDTH 9 0
BBX 7 4 1 2
BITMAP
7C
04
08
F6
ENDCHAR

STARTCHAR 30E7
ENCODING 12519
SWIDTH 960 0
DWIDTH 9 0
BBX 4 5 3 -1
BITMAP
F0
10
F0
10
E0
ENDCHAR

STARTCHAR 30E8
ENCODING 12520
SWIDTH 960 0
DWIDTH 9 0
BBX 6 6 2 0
BITMAP
FC
08
B8
48
08
F8
ENDCHAR

STARTCHAR 30E9
ENCODING 12521
SWIDTH 960 0
DWIDTH 9 0
BBX 7 7 1 0
BITMAP
8C
70
9E
64
04
08
30
ENDCHAR

STARTCHAR 30EA
ENCODING 12522
SWIDTH 960 0
DWIDTH 9 0
BBX 5 7 2 -1
BITMAP
88
88
88
88
10
10
20
ENDCHAR

STARTCHAR 30EB
ENCODING 12523
SWIDTH 960 0
DWIDTH 9 0
BBX 7 7 1 0
BITMAP
10
28
30
50
52
94
88
ENDCHAR

STARTCHAR 30EC
ENCODING 12524
SWIDTH 960 0
DWIDTH 9 0
BBX 6 7 2 0
BITMAP
80
40
80
84
88
B0
40
ENDCHAR

STARTCHAR 30ED
ENCODING 12525
SWIDTH 960 0
DWIDTH 9 0
BBX 7 5 1 1
BITMAP
06
FC
84
44
7E
ENDCHAR

STARTCHAR 30EE
ENCODING 12526
SWIDTH 960 0
DWIDTH 9 0
BBX 5 5 2 -1
BITMAP
88
F8
10
10
20
ENDCHAR

STARTCHAR 30EF
ENCODING 12527
SWIDTH 960 0
DWIDTH 9 0
BBX 6 6 2 0
BITMAP
FC
88
88
08
10
20
ENDCHAR

STARTCHAR 30F0
ENCODING 12528
SWIDTH 960 0
DWIDTH 9 0
BBX 7 7 1 -1
BITMAP
08
08
74
50
5E
A8
08
ENDCHAR

STARTCHAR 30F1
ENCODING 12529
SWIDTH 960 0
DWIDTH 9 0
BBX 8 5 1 1
BITMAP
8E
74
10
10
FF
ENDCHAR

STARTCHAR 30F2
ENCODING 12530
SWIDTH 960 0
DWIDTH 9 0
BBX 6 6 2 1
BITMAP
FC
08
78
08
10
60
ENDCHAR

STARTCHAR 30F3
ENCODING 12531
SWIDTH 960 0
DWIDTH 9 0
BBX 5 6 2 0
BITMAP
C0
00
08
10
20
C0
ENDCHAR

STARTCHAR 30F4
ENCODING 12532
SWIDTH 960 0
DWIDTH 9 0
BBX 7 7 2 -1
BITMAP
26
24
DC
88
88
10
20
ENDCHAR

STARTCHAR 30F5
ENCODING 12533
SWIDTH 960 0
DWIDTH 9 0
BBX 4 5 3 0
BITMAP
40
70
90
A0
60
ENDCHAR

STARTCHAR 30F6
ENCODING 12534
SWIDTH 960 0
DWIDTH 9 0
BBX 4 4 2 0
BITMAP
40
70
A0
20
ENDCHAR

STARTCHAR 30F7
ENCODING 12535
SWIDTH 960 0
DWIDTH 9 0
BBX 0 0 0 0
BITMAP
ENDCHAR

STARTCHAR 30F8
ENCODING 12536
SWIDTH 960 0
DWIDTH 9 0
BBX 0 0 0 0
BITMAP
ENDCHAR

STARTCHAR 30F9
ENCODING 12537
SWIDTH 960 0
DWIDTH 9 0
BBX 0 0 0 0
BITMAP
ENDCHAR

STARTCHAR 30FA
ENCODING 12538
SWIDTH 960 0
DWIDTH 9 0
BBX 0 0 0 0
BITMAP
ENDCHAR

STARTCHAR 30FB
ENCODING 12539
SWIDTH 960 0
DWIDTH 9 0
BBX 1 1 4 3
BITMAP
80
ENDCHAR

STARTCHAR 30FC
ENCODING 12540
SWIDTH 960 0
DWIDTH 9 0
BBX 7 1 1 3
BITMAP
FE
ENDCHAR

STARTCHAR 30FD
ENCODING 12541
SWIDTH 960 0
DWIDTH 9 0
BBX 4 3 2 2
BITMAP
C0
20
10
ENDCHAR

STARTCHAR 30FE
ENCODING 12542
SWIDTH 960 0
DWIDTH 9 0
BBX 6 5 2 2
BITMAP
08
14
C0
20
10
ENDCHAR

STARTCHAR 3220
ENCODING 12832
SWIDTH 960 0
DWIDTH 9 0
BBX 0 0 0 0
BITMAP
ENDCHAR

STARTCHAR 3221
ENCODING 12833
SWIDTH 960 0
DWIDTH 9 0
BBX 0 0 0 0
BITMAP
ENDCHAR

STARTCHAR 3222
ENCODING 12834
SWIDTH 960 0
DWIDTH 9 0
BBX 0 0 0 0
BITMAP
ENDCHAR

STARTCHAR 3223
ENCODING 12835
SWIDTH 960 0
DWIDTH 9 0
BBX 0 0 0 0
BITMAP
ENDCHAR

STARTCHAR 3224
ENCODING 12836
SWIDTH 960 0
DWIDTH 9 0
BBX 0 0 0 0
BITMAP
ENDCHAR

STARTCHAR 3225
ENCODING 12837
SWIDTH 960 0
DWIDTH 9 0
BBX 0 0 0 0
BITMAP
ENDCHAR

STARTCHAR 3226
ENCODING 12838
SWIDTH 960 0
DWIDTH 9 0
BBX 0 0 0 0
BITMAP
ENDCHAR

STARTCHAR 3227
ENCODING 12839
SWIDTH 960 0
DWIDTH 9 0
BBX 0 0 0 0
BITMAP
ENDCHAR

STARTCHAR 3228
ENCODING 12840
SWIDTH 960 0
DWIDTH 9 0
BBX 0 0 0 0
BITMAP
ENDCHAR

STARTCHAR 3229
ENCODING 12841
SWIDTH 960 0
DWIDTH 9 0
BBX 0 0 0 0
BITMAP
ENDCHAR

STARTCHAR 322A
ENCODING 12842
SWIDTH 960 0
DWIDTH 9 0
BBX 0 0 0 0
BITMAP
ENDCHAR

STARTCHAR 322B
ENCODING 12843
SWIDTH 960 0
DWIDTH 9 0
BBX 0 0 0 0
BITMAP
ENDCHAR

STARTCHAR 322C
ENCODING 12844
SWIDTH 960 0
DWIDTH 9 0
BBX 0 0 0 0
BITMAP
ENDCHAR

STARTCHAR 322D
ENCODING 12845
SWIDTH 960 0
DWIDTH 9 0
BBX 0 0 0 0
BITMAP
ENDCHAR

STARTCHAR 322E
ENCODING 12846
SWIDTH 960 0
DWIDTH 9 0
BBX 0 0 0 0
BITMAP
ENDCHAR

STARTCHAR 322F
ENCODING 12847
SWIDTH 960 0
DWIDTH 9 0
BBX 0 0 0 0
BITMAP
ENDCHAR

STARTCHAR 3230
ENCODING 12848
SWIDTH 960 0
DWIDTH 9 0
BBX 0 0 0 0
BITMAP
ENDCHAR

STARTCHAR 3231
ENCODING 12849
SWIDTH 960 0
DWIDTH 9 0
BBX 9 8 0 -1
BITMAP
FE00
4600
5580
A680
6500
2300
4E80
0600
ENDCHAR

STARTCHAR 3232
ENCODING 12850
SWIDTH 960 0
DWIDTH 9 0
BBX 8 7 1 1
BITMAP
10
D4
FE
28
D7
42
81
ENDCHAR

STARTCHAR 3233
ENCODING 12851
SWIDTH 960 0
DWIDTH 9 0
BBX 0 0 0 0
BITMAP
ENDCHAR

STARTCHAR 3234
ENCODING 12852
SWIDTH 960 0
DWIDTH 9 0
BBX 0 0 0 0
BITMAP
ENDCHAR

STARTCHAR 3235
ENCODING 12853
SWIDTH 960 0
DWIDTH 9 0
BBX 0 0 0 0
BITMAP
ENDCHAR

STARTCHAR 3236
ENCODING 12854
SWIDTH 960 0
DWIDTH 9 0
BBX 0 0 0 0
BITMAP
ENDCHAR

STARTCHAR 3237
ENCODING 12855
SWIDTH 960 0
DWIDTH 9 0
BBX 0 0 0 0
BITMAP
ENDCHAR

STARTCHAR 3238
ENCODING 12856
SWIDTH 960 0
DWIDTH 9 0
BBX 0 0 0 0
BITMAP
ENDCHAR

STARTCHAR 3239
ENCODING 12857
SWIDTH 960 0
DWIDTH 9 0
BBX 8 9 0 -1
BITMAP
02
F4
4F
4D
7D
5F
55
73
0C
ENDCHAR

STARTCHAR 323A
ENCODING 12858
SWIDTH 960 0
DWIDTH 9 0
BBX 0 0 0 0
BITMAP
ENDCHAR

STARTCHAR 323B
ENCODING 12859
SWIDTH 960 0
DWIDTH 9 0
BBX 0 0 0 0
BITMAP
ENDCHAR

STARTCHAR 323C
ENCODING 12860
SWIDTH 960 0
DWIDTH 9 0
BBX 0 0 0 0
BITMAP
ENDCHAR

STARTCHAR 323D
ENCODING 12861
SWIDTH 960 0
DWIDTH 9 0
BBX 0 0 0 0
BITMAP
ENDCHAR

STARTCHAR 323E
ENCODING 12862
SWIDTH 960 0
DWIDTH 9 0
BBX 0 0 0 0
BITMAP
ENDCHAR

STARTCHAR 323F
ENCODING 12863
SWIDTH 960 0
DWIDTH 9 0
BBX 0 0 0 0
BITMAP
ENDCHAR

STARTCHAR 3240
ENCODING 12864
SWIDTH 960 0
DWIDTH 9 0
BBX 0 0 0 0
BITMAP
ENDCHAR

STARTCHAR 3241
ENCODING 12865
SWIDTH 960 0
DWIDTH 9 0
BBX 0 0 0 0
BITMAP
ENDCHAR

STARTCHAR 3242
ENCODING 12866
SWIDTH 960 0
DWIDTH 9 0
BBX 0 0 0 0
BITMAP
ENDCHAR

STARTCHAR 3243
ENCODING 12867
SWIDTH 960 0
DWIDTH 9 0
BBX 0 0 0 0
BITMAP
ENDCHAR

STARTCHAR 3280
ENCODING 12928
SWIDTH 960 0
DWIDTH 9 0
BBX 0 0 0 0
BITMAP
ENDCHAR

STARTCHAR 3281
ENCODING 12929
SWIDTH 960 0
DWIDTH 9 0
BBX 0 0 0 0
BITMAP
ENDCHAR

STARTCHAR 3282
ENCODING 12930
SWIDTH 960 0
DWIDTH 9 0
BBX 0 0 0 0
BITMAP
ENDCHAR

STARTCHAR 3283
ENCODING 12931
SWIDTH 960 0
DWIDTH 9 0
BBX 0 0 0 0
BITMAP
ENDCHAR

STARTCHAR 3284
ENCODING 12932
SWIDTH 960 0
DWIDTH 9 0
BBX 0 0 0 0
BITMAP
ENDCHAR

STARTCHAR 3285
ENCODING 12933
SWIDTH 960 0
DWIDTH 9 0
BBX 0 0 0 0
BITMAP
ENDCHAR

STARTCHAR 3286
ENCODING 12934
SWIDTH 960 0
DWIDTH 9 0
BBX 0 0 0 0
BITMAP
ENDCHAR

STARTCHAR 3287
ENCODING 12935
SWIDTH 960 0
DWIDTH 9 0
BBX 0 0 0 0
BITMAP
ENDCHAR

STARTCHAR 3288
ENCODING 12936
SWIDTH 960 0
DWIDTH 9 0
BBX 0 0 0 0
BITMAP
ENDCHAR

STARTCHAR 3289
ENCODING 12937
SWIDTH 960 0
DWIDTH 9 0
BBX 0 0 0 0
BITMAP
ENDCHAR

STARTCHAR 328A
ENCODING 12938
SWIDTH 960 0
DWIDTH 9 0
BBX 0 0 0 0
BITMAP
ENDCHAR

STARTCHAR 328B
ENCODING 12939
SWIDTH 960 0
DWIDTH 9 0
BBX 0 0 0 0
BITMAP
ENDCHAR

STARTCHAR 328C
ENCODING 12940
SWIDTH 960 0
DWIDTH 9 0
BBX 0 0 0 0
BITMAP
ENDCHAR

STARTCHAR 328D
ENCODING 12941
SWIDTH 960 0
DWIDTH 9 0
BBX 0 0 0 0
BITMAP
ENDCHAR

STARTCHAR 328E
ENCODING 12942
SWIDTH 960 0
DWIDTH 9 0
BBX 0 0 0 0
BITMAP
ENDCHAR

STARTCHAR 328F
ENCODING 12943
SWIDTH 960 0
DWIDTH 9 0
BBX 0 0 0 0
BITMAP
ENDCHAR

STARTCHAR 3290
ENCODING 12944
SWIDTH 960 0
DWIDTH 9 0
BBX 0 0 0 0
BITMAP
ENDCHAR

STARTCHAR 3291
ENCODING 12945
SWIDTH 960 0
DWIDTH 9 0
BBX 0 0 0 0
BITMAP
ENDCHAR

STARTCHAR 3292
ENCODING 12946
SWIDTH 960 0
DWIDTH 9 0
BBX 0 0 0 0
BITMAP
ENDCHAR

STARTCHAR 3293
ENCODING 12947
SWIDTH 960 0
DWIDTH 9 0
BBX 0 0 0 0
BITMAP
ENDCHAR

STARTCHAR 3294
ENCODING 12948
SWIDTH 960 0
DWIDTH 9 0
BBX 0 0 0 0
BITMAP
ENDCHAR

STARTCHAR 3295
ENCODING 12949
SWIDTH 960 0
DWIDTH 9 0
BBX 0 0 0 0
BITMAP
ENDCHAR

STARTCHAR 3296
ENCODING 12950
SWIDTH 960 0
DWIDTH 9 0
BBX 0 0 0 0
BITMAP
ENDCHAR

STARTCHAR 3297
ENCODING 12951
SWIDTH 960 0
DWIDTH 9 0
BBX 0 0 0 0
BITMAP
ENDCHAR

STARTCHAR 3298
ENCODING 12952
SWIDTH 960 0
DWIDTH 9 0
BBX 0 0 0 0
BITMAP
ENDCHAR

STARTCHAR 3299
ENCODING 12953
SWIDTH 960 0
DWIDTH 9 0
BBX 0 0 0 0
BITMAP
ENDCHAR

STARTCHAR 329A
ENCODING 12954
SWIDTH 960 0
DWIDTH 9 0
BBX 0 0 0 0
BITMAP
ENDCHAR

STARTCHAR 329B
ENCODING 12955
SWIDTH 960 0
DWIDTH 9 0
BBX 0 0 0 0
BITMAP
ENDCHAR

STARTCHAR 329C
ENCODING 12956
SWIDTH 960 0
DWIDTH 9 0
BBX 0 0 0 0
BITMAP
ENDCHAR

STARTCHAR 329D
ENCODING 12957
SWIDTH 960 0
DWIDTH 9 0
BBX 0 0 0 0
BITMAP
ENDCHAR

STARTCHAR 329E
ENCODING 12958
SWIDTH 960 0
DWIDTH 9 0
BBX 0 0 0 0
BITMAP
ENDCHAR

STARTCHAR 329F
ENCODING 12959
SWIDTH 960 0
DWIDTH 9 0
BBX 0 0 0 0
BITMAP
ENDCHAR

STARTCHAR 32A0
ENCODING 12960
SWIDTH 960 0
DWIDTH 9 0
BBX 0 0 0 0
BITMAP
ENDCHAR

STARTCHAR 32A1
ENCODING 12961
SWIDTH 960 0
DWIDTH 9 0
BBX 0 0 0 0
BITMAP
ENDCHAR

STARTCHAR 32A2
ENCODING 12962
SWIDTH 960 0
DWIDTH 9 0
BBX 0 0 0 0
BITMAP
ENDCHAR

STARTCHAR 32A3
ENCODING 12963
SWIDTH 960 0
DWIDTH 9 0
BBX 0 0 0 0
BITMAP
ENDCHAR

STARTCHAR 32A4
ENCODING 12964
SWIDTH 960 0
DWIDTH 9 0
BBX 9 8 0 -1
BITMAP
0400
3F80
A000
6000
2000
C000
4000
4000
ENDCHAR

STARTCHAR 32A5
ENCODING 12965
SWIDTH 960 0
DWIDTH 9 0
BBX 9 8 0 0
BITMAP
4400
7480
7500
7500
7500
7200
9500
3080
ENDCHAR

STARTCHAR 32A6
ENCODING 12966
SWIDTH 960 0
DWIDTH 9 0
BBX 9 9 0 -1
BITMAP
4400
6400
BE00
FF00
7480
BF00
4200
4500
8880
ENDCHAR

STARTCHAR 32A7
ENCODING 12967
SWIDTH 960 0
DWIDTH 9 0
BBX 8 9 1 -1
BITMAP
10
FE
22
7D
D6
82
01
EF
10
ENDCHAR

STARTCHAR 32A8
ENCODING 12968
SWIDTH 960 0
DWIDTH 9 0
BBX 9 9 0 -1
BITMAP
2000
4000
F000
2000
4000
7400
4B80
4600
4900
ENDCHAR

STARTCHAR 32A9
ENCODING 12969
SWIDTH 960 0
DWIDTH 9 0
BBX 0 0 0 0
BITMAP
ENDCHAR

STARTCHAR 32AA
ENCODING 12970
SWIDTH 960 0
DWIDTH 9 0
BBX 0 0 0 0
BITMAP
ENDCHAR

STARTCHAR 32AB
ENCODING 12971
SWIDTH 960 0
DWIDTH 9 0
BBX 0 0 0 0
BITMAP
ENDCHAR

STARTCHAR 32AC
ENCODING 12972
SWIDTH 960 0
DWIDTH 9 0
BBX 0 0 0 0
BITMAP
ENDCHAR

STARTCHAR 32AD
ENCODING 12973
SWIDTH 960 0
DWIDTH 9 0
BBX 0 0 0 0
BITMAP
ENDCHAR

STARTCHAR 32AE
ENCODING 12974
SWIDTH 960 0
DWIDTH 9 0
BBX 0 0 0 0
BITMAP
ENDCHAR

STARTCHAR 32AF
ENCODING 12975
SWIDTH 960 0
DWIDTH 9 0
BBX 0 0 0 0
BITMAP
ENDCHAR

STARTCHAR 32B0
ENCODING 12976
SWIDTH 960 0
DWIDTH 9 0
BBX 0 0 0 0
BITMAP
ENDCHAR

STARTCHAR 32C0
ENCODING 12992
SWIDTH 960 0
DWIDTH 9 0
BBX 0 0 0 0
BITMAP
ENDCHAR

STARTCHAR 32C1
ENCODING 12993
SWIDTH 960 0
DWIDTH 9 0
BBX 0 0 0 0
BITMAP
ENDCHAR

STARTCHAR 32C2
ENCODING 12994
SWIDTH 960 0
DWIDTH 9 0
BBX 0 0 0 0
BITMAP
ENDCHAR

STARTCHAR 32C3
ENCODING 12995
SWIDTH 960 0
DWIDTH 9 0
BBX 0 0 0 0
BITMAP
ENDCHAR

STARTCHAR 32C4
ENCODING 12996
SWIDTH 960 0
DWIDTH 9 0
BBX 0 0 0 0
BITMAP
ENDCHAR

STARTCHAR 32C5
ENCODING 12997
SWIDTH 960 0
DWIDTH 9 0
BBX 0 0 0 0
BITMAP
ENDCHAR

STARTCHAR 32C6
ENCODING 12998
SWIDTH 960 0
DWIDTH 9 0
BBX 0 0 0 0
BITMAP
ENDCHAR

STARTCHAR 32C7
ENCODING 12999
SWIDTH 960 0
DWIDTH 9 0
BBX 0 0 0 0
BITMAP
ENDCHAR

STARTCHAR 32C8
ENCODING 13000
SWIDTH 960 0
DWIDTH 9 0
BBX 0 0 0 0
BITMAP
ENDCHAR

STARTCHAR 32C9
ENCODING 13001
SWIDTH 960 0
DWIDTH 9 0
BBX 0 0 0 0
BITMAP
ENDCHAR

STARTCHAR 32CA
ENCODING 13002
SWIDTH 960 0
DWIDTH 9 0
BBX 0 0 0 0
BITMAP
ENDCHAR

STARTCHAR 32CB
ENCODING 13003
SWIDTH 960 0
DWIDTH 9 0
BBX 0 0 0 0
BITMAP
ENDCHAR

STARTCHAR 32D0
ENCODING 13008
SWIDTH 960 0
DWIDTH 9 0
BBX 0 0 0 0
BITMAP
ENDCHAR

STARTCHAR 32D1
ENCODING 13009
SWIDTH 960 0
DWIDTH 9 0
BBX 0 0 0 0
BITMAP
ENDCHAR

STARTCHAR 32D2
ENCODING 13010
SWIDTH 960 0
DWIDTH 9 0
BBX 0 0 0 0
BITMAP
ENDCHAR

STARTCHAR 32D3
ENCODING 13011
SWIDTH 960 0
DWIDTH 9 0
BBX 0 0 0 0
BITMAP
ENDCHAR

STARTCHAR 32D4
ENCODING 13012
SWIDTH 960 0
DWIDTH 9 0
BBX 0 0 0 0
BITMAP
ENDCHAR

STARTCHAR 32D5
ENCODING 13013
SWIDTH 960 0
DWIDTH 9 0
BBX 0 0 0 0
BITMAP
ENDCHAR

STARTCHAR 32D6
ENCODING 13014
SWIDTH 960 0
DWIDTH 9 0
BBX 0 0 0 0
BITMAP
ENDCHAR

STARTCHAR 32D7
ENCODING 13015
SWIDTH 960 0
DWIDTH 9 0
BBX 0 0 0 0
BITMAP
ENDCHAR

STARTCHAR 32D8
ENCODING 13016
SWIDTH 960 0
DWIDTH 9 0
BBX 0 0 0 0
BITMAP
ENDCHAR

STARTCHAR 32D9
ENCODING 13017
SWIDTH 960 0
DWIDTH 9 0
BBX 0 0 0 0
BITMAP
ENDCHAR

STARTCHAR 32DA
ENCODING 13018
SWIDTH 960 0
DWIDTH 9 0
BBX 0 0 0 0
BITMAP
ENDCHAR

STARTCHAR 32DB
ENCODING 13019
SWIDTH 960 0
DWIDTH 9 0
BBX 0 0 0 0
BITMAP
ENDCHAR

STARTCHAR 32DC
ENCODING 13020
SWIDTH 960 0
DWIDTH 9 0
BBX 0 0 0 0
BITMAP
ENDCHAR

STARTCHAR 32DD
ENCODING 13021
SWIDTH 960 0
DWIDTH 9 0
BBX 0 0 0 0
BITMAP
ENDCHAR

STARTCHAR 32DE
ENCODING 13022
SWIDTH 960 0
DWIDTH 9 0
BBX 0 0 0 0
BITMAP
ENDCHAR

STARTCHAR 32DF
ENCODING 13023
SWIDTH 960 0
DWIDTH 9 0
BBX 0 0 0 0
BITMAP
ENDCHAR

STARTCHAR 32E0
ENCODING 13024
SWIDTH 960 0
DWIDTH 9 0
BBX 0 0 0 0
BITMAP
ENDCHAR

STARTCHAR 32E1
ENCODING 13025
SWIDTH 960 0
DWIDTH 9 0
BBX 0 0 0 0
BITMAP
ENDCHAR

STARTCHAR 32E2
ENCODING 13026
SWIDTH 960 0
DWIDTH 9 0
BBX 0 0 0 0
BITMAP
ENDCHAR

STARTCHAR 32E3
ENCODING 13027
SWIDTH 960 0
DWIDTH 9 0
BBX 0 0 0 0
BITMAP
ENDCHAR

STARTCHAR 32E4
ENCODING 13028
SWIDTH 960 0
DWIDTH 9 0
BBX 0 0 0 0
BITMAP
ENDCHAR

STARTCHAR 32E5
ENCODING 13029
SWIDTH 960 0
DWIDTH 9 0
BBX 0 0 0 0
BITMAP
ENDCHAR

STARTCHAR 32E6
ENCODING 13030
SWIDTH 960 0
DWIDTH 9 0
BBX 0 0 0 0
BITMAP
ENDCHAR

STARTCHAR 32E7
ENCODING 13031
SWIDTH 960 0
DWIDTH 9 0
BBX 0 0 0 0
BITMAP
ENDCHAR

STARTCHAR 32E8
ENCODING 13032
SWIDTH 960 0
DWIDTH 9 0
BBX 0 0 0 0
BITMAP
ENDCHAR

STARTCHAR 32E9
ENCODING 13033
SWIDTH 960 0
DWIDTH 9 0
BBX 0 0 0 0
BITMAP
ENDCHAR

STARTCHAR 32EA
ENCODING 13034
SWIDTH 960 0
DWIDTH 9 0
BBX 0 0 0 0
BITMAP
ENDCHAR

STARTCHAR 32EB
ENCODING 13035
SWIDTH 960 0
DWIDTH 9 0
BBX 0 0 0 0
BITMAP
ENDCHAR

STARTCHAR 32EC
ENCODING 13036
SWIDTH 960 0
DWIDTH 9 0
BBX 0 0 0 0
BITMAP
ENDCHAR

STARTCHAR 32ED
ENCODING 13037
SWIDTH 960 0
DWIDTH 9 0
BBX 0 0 0 0
BITMAP
ENDCHAR

STARTCHAR 32EE
ENCODING 13038
SWIDTH 960 0
DWIDTH 9 0
BBX 0 0 0 0
BITMAP
ENDCHAR

STARTCHAR 32EF
ENCODING 13039
SWIDTH 960 0
DWIDTH 9 0
BBX 0 0 0 0
BITMAP
ENDCHAR

STARTCHAR 32F0
ENCODING 13040
SWIDTH 960 0
DWIDTH 9 0
BBX 0 0 0 0
BITMAP
ENDCHAR

STARTCHAR 32F1
ENCODING 13041
SWIDTH 960 0
DWIDTH 9 0
BBX 0 0 0 0
BITMAP
ENDCHAR

STARTCHAR 32F2
ENCODING 13042
SWIDTH 960 0
DWIDTH 9 0
BBX 0 0 0 0
BITMAP
ENDCHAR

STARTCHAR 32F3
ENCODING 13043
SWIDTH 960 0
DWIDTH 9 0
BBX 0 0 0 0
BITMAP
ENDCHAR

STARTCHAR 32F4
ENCODING 13044
SWIDTH 960 0
DWIDTH 9 0
BBX 0 0 0 0
BITMAP
ENDCHAR

STARTCHAR 32F5
ENCODING 13045
SWIDTH 960 0
DWIDTH 9 0
BBX 0 0 0 0
BITMAP
ENDCHAR

STARTCHAR 32F6
ENCODING 13046
SWIDTH 960 0
DWIDTH 9 0
BBX 0 0 0 0
BITMAP
ENDCHAR

STARTCHAR 32F7
ENCODING 13047
SWIDTH 960 0
DWIDTH 9 0
BBX 0 0 0 0
BITMAP
ENDCHAR

STARTCHAR 32F8
ENCODING 13048
SWIDTH 960 0
DWIDTH 9 0
BBX 0 0 0 0
BITMAP
ENDCHAR

STARTCHAR 32F9
ENCODING 13049
SWIDTH 960 0
DWIDTH 9 0
BBX 0 0 0 0
BITMAP
ENDCHAR

STARTCHAR 32FA
ENCODING 13050
SWIDTH 960 0
DWIDTH 9 0
BBX 0 0 0 0
BITMAP
ENDCHAR

STARTCHAR 32FB
ENCODING 13051
SWIDTH 960 0
DWIDTH 9 0
BBX 0 0 0 0
BITMAP
ENDCHAR

STARTCHAR 32FC
ENCODING 13052
SWIDTH 960 0
DWIDTH 9 0
BBX 0 0 0 0
BITMAP
ENDCHAR

STARTCHAR 32FD
ENCODING 13053
SWIDTH 960 0
DWIDTH 9 0
BBX 0 0 0 0
BITMAP
ENDCHAR

STARTCHAR 32FE
ENCODING 13054
SWIDTH 960 0
DWIDTH 9 0
BBX 0 0 0 0
BITMAP
ENDCHAR

STARTCHAR 3300
ENCODING 13056
SWIDTH 960 0
DWIDTH 9 0
BBX 0 0 0 0
BITMAP
ENDCHAR

STARTCHAR 3301
ENCODING 13057
SWIDTH 960 0
DWIDTH 9 0
BBX 0 0 0 0
BITMAP
ENDCHAR

STARTCHAR 3302
ENCODING 13058
SWIDTH 960 0
DWIDTH 9 0
BBX 0 0 0 0
BITMAP
ENDCHAR

STARTCHAR 3303
ENCODING 13059
SWIDTH 960 0
DWIDTH 9 0
BBX 7 7 1 0
BITMAP
E0
4E
40
00
00
C0
E0
ENDCHAR

STARTCHAR 3304
ENCODING 13060
SWIDTH 960 0
DWIDTH 9 0
BBX 0 0 0 0
BITMAP
ENDCHAR

STARTCHAR 3305
ENCODING 13061
SWIDTH 960 0
DWIDTH 9 0
BBX 0 0 0 0
BITMAP
ENDCHAR

STARTCHAR 3306
ENCODING 13062
SWIDTH 960 0
DWIDTH 9 0
BBX 0 0 0 0
BITMAP
ENDCHAR

STARTCHAR 3307
ENCODING 13063
SWIDTH 960 0
DWIDTH 9 0
BBX 0 0 0 0
BITMAP
ENDCHAR

STARTCHAR 3308
ENCODING 13064
SWIDTH 960 0
DWIDTH 9 0
BBX 0 0 0 0
BITMAP
ENDCHAR

STARTCHAR 3309
ENCODING 13065
SWIDTH 960 0
DWIDTH 9 0
BBX 0 0 0 0
BITMAP
ENDCHAR

STARTCHAR 330A
ENCODING 13066
SWIDTH 960 0
DWIDTH 9 0
BBX 0 0 0 0
BITMAP
ENDCHAR

STARTCHAR 330B
ENCODING 13067
SWIDTH 960 0
DWIDTH 9 0
BBX 0 0 0 0
BITMAP
ENDCHAR

STARTCHAR 330C
ENCODING 13068
SWIDTH 960 0
DWIDTH 9 0
BBX 0 0 0 0
BITMAP
ENDCHAR

STARTCHAR 330D
ENCODING 13069
SWIDTH 960 0
DWIDTH 9 0
BBX 8 8 1 -1
BITMAP
40
6E
AA
AC
00
A0
D7
48
ENDCHAR

STARTCHAR 330E
ENCODING 13070
SWIDTH 960 0
DWIDTH 9 0
BBX 0 0 0 0
BITMAP
ENDCHAR

STARTCHAR 330F
ENCODING 13071
SWIDTH 960 0
DWIDTH 9 0
BBX 0 0 0 0
BITMAP
ENDCHAR

STARTCHAR 3310
ENCODING 13072
SWIDTH 960 0
DWIDTH 9 0
BBX 0 0 0 0
BITMAP
ENDCHAR

STARTCHAR 3311
ENCODING 13073
SWIDTH 960 0
DWIDTH 9 0
BBX 0 0 0 0
BITMAP
ENDCHAR

STARTCHAR 3312
ENCODING 13074
SWIDTH 960 0
DWIDTH 9 0
BBX 0 0 0 0
BITMAP
ENDCHAR

STARTCHAR 3313
ENCODING 13075
SWIDTH 960 0
DWIDTH 9 0
BBX 0 0 0 0
BITMAP
ENDCHAR

STARTCHAR 3314
ENCODING 13076
SWIDTH 960 0
DWIDTH 9 0
BBX 6 7 2 1
BITMAP
80
60
80
00
00
1C
1C
ENDCHAR

STARTCHAR 3315
ENCODING 13077
SWIDTH 960 0
DWIDTH 9 0
BBX 0 0 0 0
BITMAP
ENDCHAR

STARTCHAR 3316
ENCODING 13078
SWIDTH 960 0
DWIDTH 9 0
BBX 0 0 0 0
BITMAP
ENDCHAR

STARTCHAR 3317
ENCODING 13079
SWIDTH 960 0
DWIDTH 9 0
BBX 0 0 0 0
BITMAP
ENDCHAR

STARTCHAR 3318
ENCODING 13080
SWIDTH 960 0
DWIDTH 9 0
BBX 7 8 1 0
BITMAP
10
64
CE
42
00
40
80
E0
ENDCHAR

STARTCHAR 3319
ENCODING 13081
SWIDTH 960 0
DWIDTH 9 0
BBX 0 0 0 0
BITMAP
ENDCHAR

STARTCHAR 331A
ENCODING 13082
SWIDTH 960 0
DWIDTH 9 0
BBX 0 0 0 0
BITMAP
ENDCHAR

STARTCHAR 331B
ENCODING 13083
SWIDTH 960 0
DWIDTH 9 0
BBX 0 0 0 0
BITMAP
ENDCHAR

STARTCHAR 331C
ENCODING 13084
SWIDTH 960 0
DWIDTH 9 0
BBX 0 0 0 0
BITMAP
ENDCHAR

STARTCHAR 331D
ENCODING 13085
SWIDTH 960 0
DWIDTH 9 0
BBX 0 0 0 0
BITMAP
ENDCHAR

STARTCHAR 331E
ENCODING 13086
SWIDTH 960 0
DWIDTH 9 0
BBX 0 0 0 0
BITMAP
ENDCHAR

STARTCHAR 331F
ENCODING 13087
SWIDTH 960 0
DWIDTH 9 0
BBX 0 0 0 0
BITMAP
ENDCHAR

STARTCHAR 3320
ENCODING 13088
SWIDTH 960 0
DWIDTH 9 0
BBX 0 0 0 0
BITMAP
ENDCHAR

STARTCHAR 3321
ENCODING 13089
SWIDTH 960 0
DWIDTH 9 0
BBX 0 0 0 0
BITMAP
ENDCHAR

STARTCHAR 3322
ENCODING 13090
SWIDTH 960 0
DWIDTH 9 0
BBX 8 8 0 -1
BITMAP
40
76
C1
36
00
60
F8
20
ENDCHAR

STARTCHAR 3323
ENCODING 13091
SWIDTH 960 0
DWIDTH 9 0
BBX 8 8 0 -1
BITMAP
40
76
C1
36
00
00
20
50
ENDCHAR

STARTCHAR 3324
ENCODING 13092
SWIDTH 960 0
DWIDTH 9 0
BBX 0 0 0 0
BITMAP
ENDCHAR

STARTCHAR 3325
ENCODING 13093
SWIDTH 960 0
DWIDTH 9 0
BBX 0 0 0 0
BITMAP
ENDCHAR

STARTCHAR 3326
ENCODING 13094
SWIDTH 960 0
DWIDTH 9 0
BBX 6 7 2 0
BITMAP
40
C0
80
00
00
18
14
ENDCHAR

STARTCHAR 3327
ENCODING 13095
SWIDTH 960 0
DWIDTH 9 0
BBX 6 6 2 0
BITMAP
C0
80
00
10
00
0C
ENDCHAR

STARTCHAR 3328
ENCODING 13096
SWIDTH 960 0
DWIDTH 9 0
BBX 0 0 0 0
BITMAP
ENDCHAR

STARTCHAR 3329
ENCODING 13097
SWIDTH 960 0
DWIDTH 9 0
BBX 0 0 0 0
BITMAP
ENDCHAR

STARTCHAR 332A
ENCODING 13098
SWIDTH 960 0
DWIDTH 9 0
BBX 0 0 0 0
BITMAP
ENDCHAR

STARTCHAR 332B
ENCODING 13099
SWIDTH 960 0
DWIDTH 9 0
BBX 8 8 0 -1
BITMAP
48
57
00
00
41
E3
45
09
ENDCHAR

STARTCHAR 332C
ENCODING 13100
SWIDTH 960 0
DWIDTH 9 0
BBX 0 0 0 0
BITMAP
ENDCHAR

STARTCHAR 332D
ENCODING 13101
SWIDTH 960 0
DWIDTH 9 0
BBX 0 0 0 0
BITMAP
ENDCHAR

STARTCHAR 332E
ENCODING 13102
SWIDTH 960 0
DWIDTH 9 0
BBX 0 0 0 0
BITMAP
ENDCHAR

STARTCHAR 332F
ENCODING 13103
SWIDTH 960 0
DWIDTH 9 0
BBX 0 0 0 0
BITMAP
ENDCHAR

STARTCHAR 3330
ENCODING 13104
SWIDTH 960 0
DWIDTH 9 0
BBX 0 0 0 0
BITMAP
ENDCHAR

STARTCHAR 3331
ENCODING 13105
SWIDTH 960 0
DWIDTH 9 0
BBX 0 0 0 0
BITMAP
ENDCHAR

STARTCHAR 3332
ENCODING 13106
SWIDTH 960 0
DWIDTH 9 0
BBX 0 0 0 0
BITMAP
ENDCHAR

STARTCHAR 3333
ENCODING 13107
SWIDTH 960 0
DWIDTH 9 0
BBX 0 0 0 0
BITMAP
ENDCHAR

STARTCHAR 3334
ENCODING 13108
SWIDTH 960 0
DWIDTH 9 0
BBX 0 0 0 0
BITMAP
ENDCHAR

STARTCHAR 3335
ENCODING 13109
SWIDTH 960 0
DWIDTH 9 0
BBX 0 0 0 0
BITMAP
ENDCHAR

STARTCHAR 3336
ENCODING 13110
SWIDTH 960 0
DWIDTH 9 0
BBX 8 7 1 0
BITMAP
47
A2
00
04
E6
5E
02
ENDCHAR

STARTCHAR 3337
ENCODING 13111
SWIDTH 960 0
DWIDTH 9 0
BBX 0 0 0 0
BITMAP
ENDCHAR

STARTCHAR 3338
ENCODING 13112
SWIDTH 960 0
DWIDTH 9 0
BBX 0 0 0 0
BITMAP
ENDCHAR

STARTCHAR 3339
ENCODING 13113
SWIDTH 960 0
DWIDTH 9 0
BBX 0 0 0 0
BITMAP
ENDCHAR

STARTCHAR 333A
ENCODING 13114
SWIDTH 960 0
DWIDTH 9 0
BBX 0 0 0 0
BITMAP
ENDCHAR

STARTCHAR 333B
ENCODING 13115
SWIDTH 960 0
DWIDTH 9 0
BBX 7 7 1 0
BITMAP
60
AE
00
00
00
80
60
ENDCHAR

STARTCHAR 333C
ENCODING 13116
SWIDTH 960 0
DWIDTH 9 0
BBX 0 0 0 0
BITMAP
ENDCHAR

STARTCHAR 333D
ENCODING 13117
SWIDTH 960 0
DWIDTH 9 0
BBX 0 0 0 0
BITMAP
ENDCHAR

STARTCHAR 333E
ENCODING 13118
SWIDTH 960 0
DWIDTH 9 0
BBX 0 0 0 0
BITMAP
ENDCHAR

STARTCHAR 333F
ENCODING 13119
SWIDTH 960 0
DWIDTH 9 0
BBX 0 0 0 0
BITMAP
ENDCHAR

STARTCHAR 3340
ENCODING 13120
SWIDTH 960 0
DWIDTH 9 0
BBX 0 0 0 0
BITMAP
ENDCHAR

STARTCHAR 3341
ENCODING 13121
SWIDTH 960 0
DWIDTH 9 0
BBX 0 0 0 0
BITMAP
ENDCHAR

STARTCHAR 3342
ENCODING 13122
SWIDTH 960 0
DWIDTH 9 0
BBX 0 0 0 0
BITMAP
ENDCHAR

STARTCHAR 3343
ENCODING 13123
SWIDTH 960 0
DWIDTH 9 0
BBX 0 0 0 0
BITMAP
ENDCHAR

STARTCHAR 3344
ENCODING 13124
SWIDTH 960 0
DWIDTH 9 0
BBX 0 0 0 0
BITMAP
ENDCHAR

STARTCHAR 3345
ENCODING 13125
SWIDTH 960 0
DWIDTH 9 0
BBX 0 0 0 0
BITMAP
ENDCHAR

STARTCHAR 3346
ENCODING 13126
SWIDTH 960 0
DWIDTH 9 0
BBX 0 0 0 0
BITMAP
ENDCHAR

STARTCHAR 3347
ENCODING 13127
SWIDTH 960 0
DWIDTH 9 0
BBX 0 0 0 0
BITMAP
ENDCHAR

STARTCHAR 3348
ENCODING 13128
SWIDTH 960 0
DWIDTH 9 0
BBX 0 0 0 0
BITMAP
ENDCHAR

STARTCHAR 3349
ENCODING 13129
SWIDTH 960 0
DWIDTH 9 0
BBX 7 6 1 0
BITMAP
C0
40
00
02
02
04
ENDCHAR

STARTCHAR 334A
ENCODING 13130
SWIDTH 960 0
DWIDTH 9 0
BBX 8 7 1 0
BITMAP
62
82
42
00
06
9E
27
ENDCHAR

STARTCHAR 334B
ENCODING 13131
SWIDTH 960 0
DWIDTH 9 0
BBX 0 0 0 0
BITMAP
ENDCHAR

STARTCHAR 334C
ENCODING 13132
SWIDTH 960 0
DWIDTH 9 0
BBX 0 0 0 0
BITMAP
ENDCHAR

STARTCHAR 334D
ENCODING 13133
SWIDTH 960 0
DWIDTH 9 0
BBX 7 7 1 -1
BITMAP
20
CE
20
00
00
4C
AA
ENDCHAR

STARTCHAR 334E
ENCODING 13134
SWIDTH 960 0
DWIDTH 9 0
BBX 0 0 0 0
BITMAP
ENDCHAR

STARTCHAR 334F
ENCODING 13135
SWIDTH 960 0
DWIDTH 9 0
BBX 0 0 0 0
BITMAP
ENDCHAR

STARTCHAR 3350
ENCODING 13136
SWIDTH 960 0
DWIDTH 9 0
BBX 0 0 0 0
BITMAP
ENDCHAR

STARTCHAR 3351
ENCODING 13137
SWIDTH 960 0
DWIDTH 9 0
BBX 7 8 1 -1
BITMAP
20
C0
CE
40
00
00
4C
AA
ENDCHAR

STARTCHAR 3352
ENCODING 13138
SWIDTH 960 0
DWIDTH 9 0
BBX 0 0 0 0
BITMAP
ENDCHAR

STARTCHAR 3353
ENCODING 13139
SWIDTH 960 0
DWIDTH 9 0
BBX 0 0 0 0
BITMAP
ENDCHAR

STARTCHAR 3354
ENCODING 13140
SWIDTH 960 0
DWIDTH 9 0
BBX 0 0 0 0
BITMAP
ENDCHAR

STARTCHAR 3355
ENCODING 13141
SWIDTH 960 0
DWIDTH 9 0
BBX 0 0 0 0
BITMAP
ENDCHAR

STARTCHAR 3356
ENCODING 13142
SWIDTH 960 0
DWIDTH 9 0
BBX 0 0 0 0
BITMAP
ENDCHAR

STARTCHAR 3357
ENCODING 13143
SWIDTH 960 0
DWIDTH 9 0
BBX 7 7 1 -1
BITMAP
E0
2E
40
00
00
40
A0
ENDCHAR

STARTCHAR 3358
ENCODING 13144
SWIDTH 960 0
DWIDTH 9 0
BBX 0 0 0 0
BITMAP
ENDCHAR

STARTCHAR 3359
ENCODING 13145
SWIDTH 960 0
DWIDTH 9 0
BBX 0 0 0 0
BITMAP
ENDCHAR

STARTCHAR 335A
ENCODING 13146
SWIDTH 960 0
DWIDTH 9 0
BBX 0 0 0 0
BITMAP
ENDCHAR

STARTCHAR 335B
ENCODING 13147
SWIDTH 960 0
DWIDTH 9 0
BBX 0 0 0 0
BITMAP
ENDCHAR

STARTCHAR 335C
ENCODING 13148
SWIDTH 960 0
DWIDTH 9 0
BBX 0 0 0 0
BITMAP
ENDCHAR

STARTCHAR 335D
ENCODING 13149
SWIDTH 960 0
DWIDTH 9 0
BBX 0 0 0 0
BITMAP
ENDCHAR

STARTCHAR 335E
ENCODING 13150
SWIDTH 960 0
DWIDTH 9 0
BBX 0 0 0 0
BITMAP
ENDCHAR

STARTCHAR 335F
ENCODING 13151
SWIDTH 960 0
DWIDTH 9 0
BBX 0 0 0 0
BITMAP
ENDCHAR

STARTCHAR 3360
ENCODING 13152
SWIDTH 960 0
DWIDTH 9 0
BBX 0 0 0 0
BITMAP
ENDCHAR

STARTCHAR 3361
ENCODING 13153
SWIDTH 960 0
DWIDTH 9 0
BBX 0 0 0 0
BITMAP
ENDCHAR

STARTCHAR 3362
ENCODING 13154
SWIDTH 960 0
DWIDTH 9 0
BBX 0 0 0 0
BITMAP
ENDCHAR

STARTCHAR 3363
ENCODING 13155
SWIDTH 960 0
DWIDTH 9 0
BBX 0 0 0 0
BITMAP
ENDCHAR

STARTCHAR 3364
ENCODING 13156
SWIDTH 960 0
DWIDTH 9 0
BBX 0 0 0 0
BITMAP
ENDCHAR

STARTCHAR 3365
ENCODING 13157
SWIDTH 960 0
DWIDTH 9 0
BBX 0 0 0 0
BITMAP
ENDCHAR

STARTCHAR 3366
ENCODING 13158
SWIDTH 960 0
DWIDTH 9 0
BBX 0 0 0 0
BITMAP
ENDCHAR

STARTCHAR 3367
ENCODING 13159
SWIDTH 960 0
DWIDTH 9 0
BBX 0 0 0 0
BITMAP
ENDCHAR

STARTCHAR 3368
ENCODING 13160
SWIDTH 960 0
DWIDTH 9 0
BBX 0 0 0 0
BITMAP
ENDCHAR

STARTCHAR 3369
ENCODING 13161
SWIDTH 960 0
DWIDTH 9 0
BBX 0 0 0 0
BITMAP
ENDCHAR

STARTCHAR 336A
ENCODING 13162
SWIDTH 960 0
DWIDTH 9 0
BBX 0 0 0 0
BITMAP
ENDCHAR

STARTCHAR 336B
ENCODING 13163
SWIDTH 960 0
DWIDTH 9 0
BBX 0 0 0 0
BITMAP
ENDCHAR

STARTCHAR 336C
ENCODING 13164
SWIDTH 960 0
DWIDTH 9 0
BBX 0 0 0 0
BITMAP
ENDCHAR

STARTCHAR 336D
ENCODING 13165
SWIDTH 960 0
DWIDTH 9 0
BBX 0 0 0 0
BITMAP
ENDCHAR

STARTCHAR 336E
ENCODING 13166
SWIDTH 960 0
DWIDTH 9 0
BBX 0 0 0 0
BITMAP
ENDCHAR

STARTCHAR 336F
ENCODING 13167
SWIDTH 960 0
DWIDTH 9 0
BBX 0 0 0 0
BITMAP
ENDCHAR

STARTCHAR 3370
ENCODING 13168
SWIDTH 960 0
DWIDTH 9 0
BBX 0 0 0 0
BITMAP
ENDCHAR

STARTCHAR 3371
ENCODING 13169
SWIDTH 960 0
DWIDTH 9 0
BBX 0 0 0 0
BITMAP
ENDCHAR

STARTCHAR 3372
ENCODING 13170
SWIDTH 960 0
DWIDTH 9 0
BBX 0 0 0 0
BITMAP
ENDCHAR

STARTCHAR 3373
ENCODING 13171
SWIDTH 960 0
DWIDTH 9 0
BBX 0 0 0 0
BITMAP
ENDCHAR

STARTCHAR 3374
ENCODING 13172
SWIDTH 960 0
DWIDTH 9 0
BBX 0 0 0 0
BITMAP
ENDCHAR

STARTCHAR 3375
ENCODING 13173
SWIDTH 960 0
DWIDTH 9 0
BBX 0 0 0 0
BITMAP
ENDCHAR

STARTCHAR 3376
ENCODING 13174
SWIDTH 960 0
DWIDTH 9 0
BBX 0 0 0 0
BITMAP
ENDCHAR

STARTCHAR 337B
ENCODING 13179
SWIDTH 960 0
DWIDTH 9 0
BBX 0 0 0 0
BITMAP
ENDCHAR

STARTCHAR 337C
ENCODING 13180
SWIDTH 960 0
DWIDTH 9 0
BBX 8 9 1 -1
BITMAP
02
9C
9E
82
85
82
CC
04
1B
ENDCHAR

STARTCHAR 337D
ENCODING 13181
SWIDTH 960 0
DWIDTH 9 0
BBX 9 9 0 -1
BITMAP
4500
0900
AB80
4D00
7980
4B00
D900
D900
4900
ENDCHAR

STARTCHAR 337E
ENCODING 13182
SWIDTH 960 0
DWIDTH 9 0
BBX 9 9 0 -1
BITMAP
2080
A900
4980
4480
3900
6900
AD00
3100
5100
ENDCHAR

STARTCHAR 337F
ENCODING 13183
SWIDTH 960 0
DWIDTH 9 0
BBX 0 0 0 0
BITMAP
ENDCHAR

STARTCHAR 3380
ENCODING 13184
SWIDTH 960 0
DWIDTH 9 0
BBX 0 0 0 0
BITMAP
ENDCHAR

STARTCHAR 3381
ENCODING 13185
SWIDTH 960 0
DWIDTH 9 0
BBX 0 0 0 0
BITMAP
ENDCHAR

STARTCHAR 3382
ENCODING 13186
SWIDTH 960 0
DWIDTH 9 0
BBX 0 0 0 0
BITMAP
ENDCHAR

STARTCHAR 3383
ENCODING 13187
SWIDTH 960 0
DWIDTH 9 0
BBX 0 0 0 0
BITMAP
ENDCHAR

STARTCHAR 3384
ENCODING 13188
SWIDTH 960 0
DWIDTH 9 0
BBX 0 0 0 0
BITMAP
ENDCHAR

STARTCHAR 3385
ENCODING 13189
SWIDTH 960 0
DWIDTH 9 0
BBX 0 0 0 0
BITMAP
ENDCHAR

STARTCHAR 3386
ENCODING 13190
SWIDTH 960 0
DWIDTH 9 0
BBX 0 0 0 0
BITMAP
ENDCHAR

STARTCHAR 3387
ENCODING 13191
SWIDTH 960 0
DWIDTH 9 0
BBX 0 0 0 0
BITMAP
ENDCHAR

STARTCHAR 3388
ENCODING 13192
SWIDTH 960 0
DWIDTH 9 0
BBX 0 0 0 0
BITMAP
ENDCHAR

STARTCHAR 3389
ENCODING 13193
SWIDTH 960 0
DWIDTH 9 0
BBX 0 0 0 0
BITMAP
ENDCHAR

STARTCHAR 338A
ENCODING 13194
SWIDTH 960 0
DWIDTH 9 0
BBX 0 0 0 0
BITMAP
ENDCHAR

STARTCHAR 338B
ENCODING 13195
SWIDTH 960 0
DWIDTH 9 0
BBX 0 0 0 0
BITMAP
ENDCHAR

STARTCHAR 338C
ENCODING 13196
SWIDTH 960 0
DWIDTH 9 0
BBX 0 0 0 0
BITMAP
ENDCHAR

STARTCHAR 338D
ENCODING 13197
SWIDTH 960 0
DWIDTH 9 0
BBX 0 0 0 0
BITMAP
ENDCHAR

STARTCHAR 338E
ENCODING 13198
SWIDTH 960 0
DWIDTH 9 0
BBX 0 0 0 0
BITMAP
ENDCHAR

STARTCHAR 338F
ENCODING 13199
SWIDTH 960 0
DWIDTH 9 0
BBX 0 0 0 0
BITMAP
ENDCHAR

STARTCHAR 3390
ENCODING 13200
SWIDTH 960 0
DWIDTH 9 0
BBX 0 0 0 0
BITMAP
ENDCHAR

STARTCHAR 3391
ENCODING 13201
SWIDTH 960 0
DWIDTH 9 0
BBX 0 0 0 0
BITMAP
ENDCHAR

STARTCHAR 3392
ENCODING 13202
SWIDTH 960 0
DWIDTH 9 0
BBX 0 0 0 0
BITMAP
ENDCHAR

STARTCHAR 3393
ENCODING 13203
SWIDTH 960 0
DWIDTH 9 0
BBX 0 0 0 0
BITMAP
ENDCHAR

STARTCHAR 3394
ENCODING 13204
SWIDTH 960 0
DWIDTH 9 0
BBX 0 0 0 0
BITMAP
ENDCHAR

STARTCHAR 3395
ENCODING 13205
SWIDTH 960 0
DWIDTH 9 0
BBX 0 0 0 0
BITMAP
ENDCHAR

STARTCHAR 3396
ENCODING 13206
SWIDTH 960 0
DWIDTH 9 0
BBX 0 0 0 0
BITMAP
ENDCHAR

STARTCHAR 3397
ENCODING 13207
SWIDTH 960 0
DWIDTH 9 0
BBX 0 0 0 0
BITMAP
ENDCHAR

STARTCHAR 3398
ENCODING 13208
SWIDTH 960 0
DWIDTH 9 0
BBX 0 0 0 0
BITMAP
ENDCHAR

STARTCHAR 3399
ENCODING 13209
SWIDTH 960 0
DWIDTH 9 0
BBX 0 0 0 0
BITMAP
ENDCHAR

STARTCHAR 339A
ENCODING 13210
SWIDTH 960 0
DWIDTH 9 0
BBX 0 0 0 0
BITMAP
ENDCHAR

STARTCHAR 339B
ENCODING 13211
SWIDTH 960 0
DWIDTH 9 0
BBX 0 0 0 0
BITMAP
ENDCHAR

STARTCHAR 339C
ENCODING 13212
SWIDTH 960 0
DWIDTH 9 0
BBX 9 5 0 0
BITMAP
D680
B780
B680
B680
B580
ENDCHAR

STARTCHAR 339D
ENCODING 13213
SWIDTH 960 0
DWIDTH 9 0
BBX 9 5 0 0
BITMAP
2300
D680
8A80
8A80
7680
ENDCHAR

STARTCHAR 339E
ENCODING 13214
SWIDTH 960 0
DWIDTH 9 0
BBX 9 7 0 0
BITMAP
8000
8000
B700
A680
6680
A680
D680
ENDCHAR

STARTCHAR 339F
ENCODING 13215
SWIDTH 960 0
DWIDTH 9 0
BBX 0 0 0 0
BITMAP
ENDCHAR

STARTCHAR 33A0
ENCODING 13216
SWIDTH 960 0
DWIDTH 9 0
BBX 0 0 0 0
BITMAP
ENDCHAR

STARTCHAR 33A1
ENCODING 13217
SWIDTH 960 0
DWIDTH 9 0
BBX 0 0 0 0
BITMAP
ENDCHAR

STARTCHAR 33A2
ENCODING 13218
SWIDTH 960 0
DWIDTH 9 0
BBX 0 0 0 0
BITMAP
ENDCHAR

STARTCHAR 33A3
ENCODING 13219
SWIDTH 960 0
DWIDTH 9 0
BBX 0 0 0 0
BITMAP
ENDCHAR

STARTCHAR 33A4
ENCODING 13220
SWIDTH 960 0
DWIDTH 9 0
BBX 0 0 0 0
BITMAP
ENDCHAR

STARTCHAR 33A5
ENCODING 13221
SWIDTH 960 0
DWIDTH 9 0
BBX 0 0 0 0
BITMAP
ENDCHAR

STARTCHAR 33A6
ENCODING 13222
SWIDTH 960 0
DWIDTH 9 0
BBX 0 0 0 0
BITMAP
ENDCHAR

STARTCHAR 33A7
ENCODING 13223
SWIDTH 960 0
DWIDTH 9 0
BBX 0 0 0 0
BITMAP
ENDCHAR

ENDFONT
